<svg width="36" height="36" viewBox="0 0 36 36" fill="none" xmlns="http://www.w3.org/2000/svg">
<path d="M18.7492 12.1425H16.4992V21.1425L23.6242 25.4175L24.7492 23.5725L18.7492 20.0175V12.1425ZM26.0047 2.85748L32.9152 8.62498L30.9952 10.9275L24.0802 5.16298L26.0047 2.85748ZM9.99372 2.85748L11.9167 5.16148L5.00472 10.9275L3.08472 8.62348L9.99372 2.85748ZM17.9992 6.14248C10.5442 6.14248 4.49922 12.1875 4.49922 19.6425C4.49922 27.0975 10.5442 33.1425 17.9992 33.1425C25.4542 33.1425 31.4992 27.0975 31.4992 19.6425C31.4992 12.1875 25.4542 6.14248 17.9992 6.14248ZM17.9992 30.1425C12.2092 30.1425 7.49922 25.4325 7.49922 19.6425C7.49922 13.8525 12.2092 9.14248 17.9992 9.14248C23.7892 9.14248 28.4992 13.8525 28.4992 19.6425C28.4992 25.4325 23.7892 30.1425 17.9992 30.1425Z" fill="#2500B3"/>
</svg>
