<svg width="36" height="36" viewBox="0 0 36 36" fill="none" xmlns="http://www.w3.org/2000/svg">
<path d="M18.7493 12.1425H16.4993V21.1425L23.6243 25.4175L24.7493 23.5725L18.7493 20.0175V12.1425ZM26.0048 2.85748L32.9153 8.62498L30.9953 10.9275L24.0803 5.16298L26.0048 2.85748ZM9.99378 2.85748L11.9168 5.16148L5.00478 10.9275L3.08478 8.62348L9.99378 2.85748ZM17.9993 6.14248C10.5443 6.14248 4.49928 12.1875 4.49928 19.6425C4.49928 27.0975 10.5443 33.1425 17.9993 33.1425C25.4543 33.1425 31.4993 27.0975 31.4993 19.6425C31.4993 12.1875 25.4543 6.14248 17.9993 6.14248ZM17.9993 30.1425C12.2093 30.1425 7.49928 25.4325 7.49928 19.6425C7.49928 13.8525 12.2093 9.14248 17.9993 9.14248C23.7893 9.14248 28.4993 13.8525 28.4993 19.6425C28.4993 25.4325 23.7893 30.1425 17.9993 30.1425Z" fill="#FF00FF"/>
</svg>
