<svg width="118" height="36" viewBox="0 0 118 36" fill="none" xmlns="http://www.w3.org/2000/svg">
<path d="M12.192 23.048L9.792 10.664H9.696L7.296 23.048H12.192ZM0.096 35L7.728 0.823999H11.808L19.44 35H14.544L13.104 27.656H6.432L4.992 35H0.096ZM21.8509 35V0.823999H26.7469V30.104H36.4429V35H21.8509ZM55.4565 0.823999V27.32C55.4565 28.44 55.2485 29.48 54.8325 30.44C54.4485 31.368 53.8885 32.2 53.1525 32.936C52.4165 33.672 51.5685 34.248 50.6085 34.664C49.6485 35.08 48.6245 35.288 47.5365 35.288C46.4485 35.288 45.4245 35.08 44.4645 34.664C43.5365 34.248 42.7045 33.672 41.9685 32.936C41.2325 32.2 40.6565 31.368 40.2405 30.44C39.8245 29.48 39.6165 28.44 39.6165 27.32V0.823999H44.5125V26.84C44.5125 28.056 44.8005 28.952 45.3765 29.528C45.9525 30.104 46.6725 30.392 47.5365 30.392C48.4005 30.392 49.1205 30.104 49.6965 29.528C50.2725 28.952 50.5605 28.056 50.5605 26.84V0.823999H55.4565ZM59.862 35V0.823999H64.566L71.958 21.416H72.054V0.823999H76.95V35H72.342L64.854 14.456H64.758V35H59.862ZM81.0941 8.888C81.0941 7.512 81.3341 6.296 81.8141 5.24C82.2941 4.184 82.9341 3.304 83.7341 2.6C84.5021 1.928 85.3661 1.416 86.3261 1.064C87.3181 0.711998 88.3101 0.535997 89.3021 0.535997C90.2941 0.535997 91.2701 0.711998 92.2301 1.064C93.2221 1.416 94.1181 1.928 94.9181 2.6C95.6861 3.304 96.3101 4.184 96.7901 5.24C97.2701 6.296 97.5101 7.512 97.5101 8.888V26.936C97.5101 28.376 97.2701 29.608 96.7901 30.632C96.3101 31.656 95.6861 32.504 94.9181 33.176C94.1181 33.88 93.2221 34.408 92.2301 34.76C91.2701 35.112 90.2941 35.288 89.3021 35.288C88.3101 35.288 87.3181 35.112 86.3261 34.76C85.3661 34.408 84.5021 33.88 83.7341 33.176C82.9341 32.504 82.2941 31.656 81.8141 30.632C81.3341 29.608 81.0941 28.376 81.0941 26.936V8.888ZM85.9901 26.936C85.9901 28.12 86.3101 29 86.9501 29.576C87.6221 30.12 88.4061 30.392 89.3021 30.392C90.1981 30.392 90.9661 30.12 91.6061 29.576C92.2781 29 92.6141 28.12 92.6141 26.936V8.888C92.6141 7.704 92.2781 6.84 91.6061 6.296C90.9661 5.72 90.1981 5.432 89.3021 5.432C88.4061 5.432 87.6221 5.72 86.9501 6.296C86.3101 6.84 85.9901 7.704 85.9901 8.888V26.936ZM117.66 10.664H112.764V9.56C112.764 8.44 112.492 7.48 111.948 6.68C111.436 5.848 110.556 5.432 109.308 5.432C108.636 5.432 108.092 5.56 107.676 5.816C107.26 6.072 106.924 6.392 106.668 6.776C106.412 7.192 106.236 7.672 106.14 8.216C106.044 8.728 105.996 9.272 105.996 9.848C105.996 10.52 106.012 11.08 106.044 11.528C106.108 11.976 106.236 12.376 106.428 12.728C106.62 13.08 106.892 13.384 107.244 13.64C107.628 13.896 108.14 14.152 108.78 14.408L112.524 15.896C113.612 16.312 114.492 16.808 115.164 17.384C115.836 17.928 116.364 18.568 116.748 19.304C117.1 20.072 117.34 20.952 117.468 21.944C117.596 22.904 117.66 24.008 117.66 25.256C117.66 26.696 117.516 28.04 117.228 29.288C116.94 30.504 116.476 31.544 115.836 32.408C115.164 33.304 114.284 34.008 113.196 34.52C112.108 35.032 110.78 35.288 109.212 35.288C108.028 35.288 106.924 35.08 105.9 34.664C104.876 34.248 103.996 33.672 103.26 32.936C102.524 32.2 101.932 31.352 101.484 30.392C101.068 29.4 100.86 28.328 100.86 27.176V25.352H105.756V26.888C105.756 27.784 106.012 28.6 106.524 29.336C107.068 30.04 107.964 30.392 109.212 30.392C110.044 30.392 110.684 30.28 111.132 30.056C111.612 29.8 111.98 29.448 112.236 29C112.492 28.552 112.636 28.024 112.668 27.416C112.732 26.776 112.764 26.072 112.764 25.304C112.764 24.408 112.732 23.672 112.668 23.096C112.604 22.52 112.476 22.056 112.284 21.704C112.06 21.352 111.756 21.064 111.372 20.84C111.02 20.616 110.54 20.376 109.932 20.12L106.428 18.68C104.316 17.816 102.892 16.68 102.156 15.272C101.452 13.832 101.1 12.04 101.1 9.896C101.1 8.616 101.276 7.4 101.628 6.248C101.98 5.096 102.508 4.104 103.212 3.272C103.884 2.44 104.732 1.784 105.756 1.304C106.812 0.791998 108.06 0.535997 109.5 0.535997C110.716 0.535997 111.82 0.759997 112.812 1.208C113.836 1.656 114.716 2.248 115.452 2.984C116.924 4.52 117.66 6.28 117.66 8.264V10.664Z" fill="black"/>
</svg>
