<?xml version="1.0" encoding="utf-8"?>
<svg viewBox="47.125 244.826 1421 471" xmlns="http://www.w3.org/2000/svg">
  <path d="M 753.297 244.826 L 663.196 400.904 L 843.398 400.912 L 753.297 244.826 Z" fill="#FF0000"/>
  <path d="M 654.241 540.682 C 654.241 540.38 654.225 540.078 654.217 539.776 L 722.816 539.776 C 722.816 540.078 722.824 540.38 722.824 540.682 C 722.824 606.216 669.704 659.352 604.173 659.352 L 604.173 590.758 C 631.825 590.758 654.241 568.339 654.241 540.69 L 654.241 540.682 Z" fill="#2500AD"/>
  <path d="M 851.48 540.658 C 851.48 540.356 851.496 540.054 851.504 539.752 L 782.905 539.752 C 782.905 540.054 782.897 540.356 782.897 540.658 C 782.897 606.192 836.017 659.328 901.548 659.328 L 901.548 590.735 C 873.896 590.735 851.488 568.315 851.488 540.666 L 851.48 540.658 Z" fill="#2500AD"/>
  <path d="M 920.611 625.425 L 931.576 642.766 L 911.075 642.766 L 901.54 660.107 L 892.005 642.766 L 871.504 642.766 L 882.469 625.425 L 871.504 608.084 L 892.005 608.084 L 901.54 590.743 L 911.075 608.084 L 931.576 608.084 L 920.611 625.425 Z" fill="#FF0000"/>
  <path d="M 771.931 522.292 L 782.889 539.633 L 762.396 539.633 L 752.86 556.974 L 743.325 539.633 L 722.824 539.633 L 733.782 522.292 L 722.824 504.951 L 743.325 504.951 L 752.86 487.602 L 762.396 504.951 L 782.889 504.951 L 771.931 522.292 Z" fill="#FF00FF"/>
  <path d="M 623.251 625.401 L 634.209 642.742 L 613.716 642.742 L 604.18 660.083 L 594.637 642.742 L 574.144 642.742 L 585.102 625.401 L 574.144 608.06 L 594.637 608.06 L 604.18 590.719 L 613.716 608.06 L 634.209 608.06 L 623.251 625.401 Z" fill="#FF0000"/>
  <path d="M 752.86 557.101 L 820.585 674.428 L 685.136 674.428 L 752.86 557.101 Z" fill="#A00059"/>
  <path d="M 754.497 715.826 L 751.319 686.707 L 737.842 712.711 L 745.391 684.41 L 723.436 703.786 L 740.695 680.126 L 713.217 690.259 L 737.866 674.436 L 708.584 673.959 L 737.278 668.11 L 710.15 657.087 L 739.018 661.999 L 717.699 641.916 L 742.848 656.928 L 730.222 630.495 L 748.251 653.582 L 746.026 624.376 L 754.497 652.414 L 762.968 624.376 L 760.743 653.582 L 778.772 630.495 L 766.146 656.928 L 791.295 641.916 L 769.976 661.999 L 798.844 657.087 L 771.716 668.11 L 800.41 673.959 L 771.128 674.436 L 795.769 690.259 L 768.291 680.126 L 785.558 703.786 L 763.595 684.41 L 771.152 712.711 L 757.675 686.707 L 754.497 715.826 Z" fill="#FF00FF"/>
  <path d="M 752.932 348.769 L 783.032 400.912 L 722.832 400.912 L 752.932 348.769 Z" fill="black"/>
  <path d="M 711.867 487.61 L 722.824 504.951 L 702.331 504.951 L 692.796 522.3 L 683.253 504.951 L 662.76 504.951 L 673.717 487.61 L 662.76 470.269 L 683.253 470.269 L 692.796 452.927 L 702.331 470.269 L 722.824 470.269 L 711.867 487.61 Z" fill="#FF9000"/>
  <path d="M 771.931 452.927 L 782.889 470.269 L 762.396 470.269 L 752.86 487.61 L 743.325 470.269 L 722.824 470.269 L 733.782 452.927 L 722.824 435.586 L 743.325 435.586 L 752.86 418.245 L 762.396 435.586 L 782.889 435.586 L 771.931 452.927 Z" fill="#FF9000"/>
  <path d="M 832.003 487.61 L 842.961 504.951 L 822.46 504.951 L 812.925 522.3 L 803.39 504.951 L 782.889 504.951 L 793.854 487.61 L 782.897 470.269 L 803.39 470.269 L 812.925 452.927 L 822.46 470.269 L 842.961 470.269 L 832.003 487.61 Z" fill="#FF9000"/>
  <path d="M 711.867 418.245 L 722.824 435.586 L 702.331 435.586 L 692.796 452.927 L 683.253 435.586 L 662.76 435.586 L 673.717 418.245 L 662.76 400.896 L 683.253 400.896 L 692.796 383.555 L 702.331 400.896 L 722.824 400.896 L 711.867 418.245 Z" fill="#FF9000"/>
  <path d="M 832.13 418.253 L 843.088 435.594 L 822.595 435.594 L 813.052 452.935 L 803.516 435.594 L 783.023 435.594 L 793.981 418.253 L 783.023 400.912 L 803.516 400.912 L 813.052 383.571 L 822.595 400.912 L 843.088 400.912 L 832.13 418.253 Z" fill="#FF9000"/>
  <path d="M 655.489 434.99 L 655.489 539.776 L 550.719 539.776 C 550.719 481.943 597.665 434.99 655.489 434.99 Z" fill="#005C00"/>
  <path d="M 655.488 490.828 L 655.488 539.776 L 606.548 539.776 C 606.548 512.755 628.48 490.828 655.488 490.828 Z" fill="#FF00FF"/>
  <path d="M 956.273 539.752 L 851.503 539.752 L 851.503 434.966 C 909.327 434.966 956.273 481.919 956.273 539.752 Z" fill="#005C00"/>
  <path d="M 900.444 539.752 L 851.504 539.752 L 851.504 490.805 C 878.52 490.805 900.444 512.739 900.444 539.752 Z" fill="#FF00FF"/>
  <path d="M 85.889 338.259 L 47.125 338.259 L 47.125 564.259 L 85.889 564.259 L 85.889 338.259 Z" fill="black"/>
  <path d="M 1468.125 564.259 L 1468.125 525.495 L 63.216 525.495 L 63.216 564.259 L 1468.125 564.259 Z" fill="black"/>
</svg>