<svg width="165" height="78" viewBox="0 0 165 78" fill="none" xmlns="http://www.w3.org/2000/svg">
<path d="M17.856 25.256V27.368C17.856 28.424 17.648 29.432 17.232 30.392C16.848 31.32 16.304 32.152 15.6 32.888C14.896 33.624 14.064 34.216 13.104 34.664C12.176 35.08 11.168 35.288 10.08 35.288C9.152 35.288 8.208 35.16 7.248 34.904C6.288 34.648 5.424 34.2 4.656 33.56C3.888 32.92 3.248 32.104 2.736 31.112C2.256 30.088 2.016 28.792 2.016 27.224V8.408C2.016 7.288 2.208 6.248 2.592 5.288C2.976 4.328 3.52 3.496 4.224 2.792C4.928 2.088 5.76 1.544 6.72 1.16C7.712 0.743998 8.8 0.535997 9.984 0.535997C12.288 0.535997 14.16 1.288 15.6 2.792C16.304 3.528 16.848 4.408 17.232 5.432C17.648 6.424 17.856 7.512 17.856 8.696V10.616H12.96V8.984C12.96 8.024 12.688 7.192 12.144 6.488C11.6 5.784 10.864 5.432 9.936 5.432C8.72 5.432 7.904 5.816 7.488 6.584C7.104 7.32 6.912 8.264 6.912 9.416V26.888C6.912 27.88 7.12 28.712 7.536 29.384C7.984 30.056 8.768 30.392 9.888 30.392C10.208 30.392 10.544 30.344 10.896 30.248C11.28 30.12 11.632 29.928 11.952 29.672C12.24 29.416 12.48 29.064 12.672 28.616C12.864 28.168 12.96 27.608 12.96 26.936V25.256H17.856ZM21.8509 35V0.823999H26.7469V30.104H36.4429V35H21.8509ZM39.7605 35V0.823999H44.6565V35H39.7605ZM49.4134 35V0.823999H64.0054V5.432H54.3094V15.464H62.7574V20.072H54.3094V30.104H64.0054V35H49.4134ZM66.987 35V0.823999H71.691L79.083 21.416H79.179V0.823999H84.075V35H79.467L71.979 14.456H71.883V35H66.987ZM91.7231 35V5.432H86.0591V0.823999H102.283V5.432H96.6191V35H91.7231ZM104.445 35V0.823999H119.037V5.432H109.341V15.464H117.789V20.072H109.341V30.104H119.037V35H104.445ZM138.05 10.664H133.154V9.56C133.154 8.44 132.882 7.48 132.338 6.68C131.826 5.848 130.946 5.432 129.698 5.432C129.026 5.432 128.482 5.56 128.066 5.816C127.65 6.072 127.314 6.392 127.058 6.776C126.802 7.192 126.626 7.672 126.53 8.216C126.434 8.728 126.386 9.272 126.386 9.848C126.386 10.52 126.402 11.08 126.434 11.528C126.498 11.976 126.626 12.376 126.818 12.728C127.01 13.08 127.282 13.384 127.634 13.64C128.018 13.896 128.53 14.152 129.17 14.408L132.914 15.896C134.002 16.312 134.882 16.808 135.554 17.384C136.226 17.928 136.754 18.568 137.138 19.304C137.49 20.072 137.73 20.952 137.858 21.944C137.986 22.904 138.05 24.008 138.05 25.256C138.05 26.696 137.906 28.04 137.618 29.288C137.33 30.504 136.866 31.544 136.226 32.408C135.554 33.304 134.674 34.008 133.586 34.52C132.498 35.032 131.17 35.288 129.602 35.288C128.418 35.288 127.314 35.08 126.29 34.664C125.266 34.248 124.386 33.672 123.65 32.936C122.914 32.2 122.322 31.352 121.874 30.392C121.458 29.4 121.25 28.328 121.25 27.176V25.352H126.146V26.888C126.146 27.784 126.402 28.6 126.914 29.336C127.458 30.04 128.354 30.392 129.602 30.392C130.434 30.392 131.074 30.28 131.522 30.056C132.002 29.8 132.37 29.448 132.626 29C132.882 28.552 133.026 28.024 133.058 27.416C133.122 26.776 133.154 26.072 133.154 25.304C133.154 24.408 133.122 23.672 133.058 23.096C132.994 22.52 132.866 22.056 132.674 21.704C132.45 21.352 132.146 21.064 131.762 20.84C131.41 20.616 130.93 20.376 130.322 20.12L126.818 18.68C124.706 17.816 123.282 16.68 122.546 15.272C121.842 13.832 121.49 12.04 121.49 9.896C121.49 8.616 121.666 7.4 122.018 6.248C122.37 5.096 122.898 4.104 123.602 3.272C124.274 2.44 125.122 1.784 126.146 1.304C127.202 0.791998 128.45 0.535997 129.89 0.535997C131.106 0.535997 132.21 0.759997 133.202 1.208C134.226 1.656 135.106 2.248 135.842 2.984C137.314 4.52 138.05 6.28 138.05 8.264V10.664ZM12.192 65.048L9.792 52.664H9.696L7.296 65.048H12.192ZM0.096 77L7.728 42.824H11.808L19.44 77H14.544L13.104 69.656H6.432L4.992 77H0.096ZM21.8509 77V42.824H29.1949C30.5389 42.824 31.7229 43 32.7469 43.352C33.7709 43.704 34.6989 44.328 35.5309 45.224C36.3629 46.12 36.9389 47.176 37.2589 48.392C37.5789 49.576 37.7389 51.192 37.7389 53.24C37.7389 54.776 37.6429 56.072 37.4509 57.128C37.2909 58.184 36.9229 59.176 36.3469 60.104C35.6749 61.224 34.7789 62.104 33.6589 62.744C32.5389 63.352 31.0669 63.656 29.2429 63.656H26.7469V77H21.8509ZM26.7469 47.432V59.048H29.0989C30.0909 59.048 30.8589 58.904 31.4029 58.616C31.9469 58.328 32.3469 57.928 32.6029 57.416C32.8589 56.936 33.0029 56.344 33.0349 55.64C33.0989 54.936 33.1309 54.152 33.1309 53.288C33.1309 52.488 33.1149 51.736 33.0829 51.032C33.0509 50.296 32.9069 49.656 32.6509 49.112C32.3949 48.568 32.0109 48.152 31.4989 47.864C30.9869 47.576 30.2509 47.432 29.2909 47.432H26.7469ZM41.3978 77V42.824H46.2938V72.104H55.9898V77H41.3978ZM59.3074 77V42.824H64.2034V77H59.3074ZM84.5123 67.256V69.368C84.5123 70.424 84.3043 71.432 83.8883 72.392C83.5043 73.32 82.9603 74.152 82.2563 74.888C81.5523 75.624 80.7203 76.216 79.7603 76.664C78.8323 77.08 77.8243 77.288 76.7363 77.288C75.8083 77.288 74.8643 77.16 73.9043 76.904C72.9443 76.648 72.0803 76.2 71.3123 75.56C70.5443 74.92 69.9043 74.104 69.3923 73.112C68.9123 72.088 68.6723 70.792 68.6723 69.224V50.408C68.6723 49.288 68.8643 48.248 69.2483 47.288C69.6323 46.328 70.1763 45.496 70.8803 44.792C71.5843 44.088 72.4163 43.544 73.3763 43.16C74.3683 42.744 75.4563 42.536 76.6403 42.536C78.9443 42.536 80.8163 43.288 82.2563 44.792C82.9603 45.528 83.5043 46.408 83.8883 47.432C84.3043 48.424 84.5123 49.512 84.5123 50.696V52.616H79.6163V50.984C79.6163 50.024 79.3443 49.192 78.8003 48.488C78.2563 47.784 77.5203 47.432 76.5923 47.432C75.3763 47.432 74.5603 47.816 74.1443 48.584C73.7603 49.32 73.5683 50.264 73.5683 51.416V68.888C73.5683 69.88 73.7763 70.712 74.1923 71.384C74.6403 72.056 75.4243 72.392 76.5443 72.392C76.8643 72.392 77.2003 72.344 77.5523 72.248C77.9363 72.12 78.2883 71.928 78.6083 71.672C78.8963 71.416 79.1363 71.064 79.3282 70.616C79.5203 70.168 79.6163 69.608 79.6163 68.936V67.256H84.5123ZM98.3951 65.048L95.9951 52.664H95.8991L93.4991 65.048H98.3951ZM86.2991 77L93.9311 42.824H98.0111L105.643 77H100.747L99.3071 69.656H92.6351L91.1951 77H86.2991ZM108.054 77V42.824H115.302C118.118 42.824 120.246 43.592 121.686 45.128C123.158 46.664 123.894 48.84 123.894 51.656V67.64C123.894 70.84 123.11 73.208 121.542 74.744C120.006 76.248 117.782 77 114.87 77H108.054ZM112.95 47.432V72.392H115.206C116.582 72.392 117.558 72.056 118.134 71.384C118.71 70.68 118.998 69.592 118.998 68.12V51.656C118.998 50.312 118.726 49.272 118.182 48.536C117.638 47.8 116.646 47.432 115.206 47.432H112.95ZM128.204 50.888C128.204 49.512 128.444 48.296 128.924 47.24C129.404 46.184 130.044 45.304 130.844 44.6C131.612 43.928 132.476 43.416 133.436 43.064C134.428 42.712 135.42 42.536 136.412 42.536C137.404 42.536 138.38 42.712 139.34 43.064C140.332 43.416 141.228 43.928 142.028 44.6C142.796 45.304 143.42 46.184 143.9 47.24C144.38 48.296 144.62 49.512 144.62 50.888V68.936C144.62 70.376 144.38 71.608 143.9 72.632C143.42 73.656 142.796 74.504 142.028 75.176C141.228 75.88 140.332 76.408 139.34 76.76C138.38 77.112 137.404 77.288 136.412 77.288C135.42 77.288 134.428 77.112 133.436 76.76C132.476 76.408 131.612 75.88 130.844 75.176C130.044 74.504 129.404 73.656 128.924 72.632C128.444 71.608 128.204 70.376 128.204 68.936V50.888ZM133.1 68.936C133.1 70.12 133.42 71 134.06 71.576C134.732 72.12 135.516 72.392 136.412 72.392C137.308 72.392 138.076 72.12 138.716 71.576C139.388 71 139.724 70.12 139.724 68.936V50.888C139.724 49.704 139.388 48.84 138.716 48.296C138.076 47.72 137.308 47.432 136.412 47.432C135.516 47.432 134.732 47.72 134.06 48.296C133.42 48.84 133.1 49.704 133.1 50.888V68.936ZM164.769 52.664H159.873V51.56C159.873 50.44 159.601 49.48 159.057 48.68C158.545 47.848 157.665 47.432 156.417 47.432C155.745 47.432 155.201 47.56 154.785 47.816C154.369 48.072 154.033 48.392 153.777 48.776C153.521 49.192 153.345 49.672 153.249 50.216C153.153 50.728 153.105 51.272 153.105 51.848C153.105 52.52 153.121 53.08 153.153 53.528C153.217 53.976 153.345 54.376 153.537 54.728C153.729 55.08 154.001 55.384 154.353 55.64C154.737 55.896 155.249 56.152 155.889 56.408L159.633 57.896C160.721 58.312 161.601 58.808 162.273 59.384C162.945 59.928 163.473 60.568 163.857 61.304C164.209 62.072 164.449 62.952 164.577 63.944C164.705 64.904 164.769 66.008 164.769 67.256C164.769 68.696 164.625 70.04 164.337 71.288C164.049 72.504 163.585 73.544 162.945 74.408C162.273 75.304 161.393 76.008 160.305 76.52C159.217 77.032 157.889 77.288 156.321 77.288C155.137 77.288 154.033 77.08 153.009 76.664C151.985 76.248 151.105 75.672 150.369 74.936C149.633 74.2 149.041 73.352 148.593 72.392C148.177 71.4 147.969 70.328 147.969 69.176V67.352H152.865V68.888C152.865 69.784 153.121 70.6 153.633 71.336C154.177 72.04 155.073 72.392 156.321 72.392C157.153 72.392 157.793 72.28 158.241 72.056C158.721 71.8 159.089 71.448 159.345 71C159.601 70.552 159.745 70.024 159.777 69.416C159.841 68.776 159.873 68.072 159.873 67.304C159.873 66.408 159.841 65.672 159.777 65.096C159.713 64.52 159.585 64.056 159.393 63.704C159.169 63.352 158.865 63.064 158.481 62.84C158.129 62.616 157.649 62.376 157.041 62.12L153.537 60.68C151.425 59.816 150.001 58.68 149.265 57.272C148.561 55.832 148.209 54.04 148.209 51.896C148.209 50.616 148.385 49.4 148.737 48.248C149.089 47.096 149.617 46.104 150.321 45.272C150.993 44.44 151.841 43.784 152.865 43.304C153.921 42.792 155.169 42.536 156.609 42.536C157.825 42.536 158.929 42.76 159.921 43.208C160.945 43.656 161.825 44.248 162.561 44.984C164.033 46.52 164.769 48.28 164.769 50.264V52.664Z" fill="black"/>
</svg>
