<svg width="314" height="118" viewBox="0 0 314 118" fill="none" xmlns="http://www.w3.org/2000/svg">
<path d="M15.856 25.256V27.368C15.856 28.424 15.648 29.432 15.232 30.392C14.848 31.32 14.304 32.152 13.6 32.888C12.896 33.624 12.064 34.216 11.104 34.664C10.176 35.08 9.168 35.288 8.08 35.288C7.152 35.288 6.208 35.16 5.248 34.904C4.288 34.648 3.424 34.2 2.656 33.56C1.888 32.92 1.248 32.104 0.736 31.112C0.256 30.088 0.0160002 28.792 0.0160002 27.224V8.408C0.0160002 7.288 0.208 6.248 0.592 5.288C0.976 4.328 1.52 3.496 2.224 2.792C2.928 2.088 3.76 1.544 4.72 1.16C5.712 0.743998 6.8 0.535997 7.984 0.535997C10.288 0.535997 12.16 1.288 13.6 2.792C14.304 3.528 14.848 4.408 15.232 5.432C15.648 6.424 15.856 7.512 15.856 8.696V10.616H10.96V8.984C10.96 8.024 10.688 7.192 10.144 6.488C9.6 5.784 8.864 5.432 7.936 5.432C6.72 5.432 5.904 5.816 5.488 6.584C5.104 7.32 4.912 8.264 4.912 9.416V26.888C4.912 27.88 5.12 28.712 5.536 29.384C5.984 30.056 6.768 30.392 7.888 30.392C8.208 30.392 8.544 30.344 8.896 30.248C9.28 30.12 9.632 29.928 9.952 29.672C10.24 29.416 10.48 29.064 10.672 28.616C10.864 28.168 10.96 27.608 10.96 26.936V25.256H15.856ZM19.5629 8.888C19.5629 7.512 19.8029 6.296 20.2829 5.24C20.7629 4.184 21.4029 3.304 22.2029 2.6C22.9709 1.928 23.8349 1.416 24.7949 1.064C25.7869 0.711998 26.7789 0.535997 27.7709 0.535997C28.7629 0.535997 29.7389 0.711998 30.6989 1.064C31.6909 1.416 32.5869 1.928 33.3869 2.6C34.1549 3.304 34.7789 4.184 35.2589 5.24C35.7389 6.296 35.9789 7.512 35.9789 8.888V26.936C35.9789 28.376 35.7389 29.608 35.2589 30.632C34.7789 31.656 34.1549 32.504 33.3869 33.176C32.5869 33.88 31.6909 34.408 30.6989 34.76C29.7389 35.112 28.7629 35.288 27.7709 35.288C26.7789 35.288 25.7869 35.112 24.7949 34.76C23.8349 34.408 22.9709 33.88 22.2029 33.176C21.4029 32.504 20.7629 31.656 20.2829 30.632C19.8029 29.608 19.5629 28.376 19.5629 26.936V8.888ZM24.4589 26.936C24.4589 28.12 24.7789 29 25.4189 29.576C26.0909 30.12 26.8749 30.392 27.7709 30.392C28.6669 30.392 29.4349 30.12 30.0749 29.576C30.7469 29 31.0829 28.12 31.0829 26.936V8.888C31.0829 7.704 30.7469 6.84 30.0749 6.296C29.4349 5.72 28.6669 5.432 27.7709 5.432C26.8749 5.432 26.0909 5.72 25.4189 6.296C24.7789 6.84 24.4589 7.704 24.4589 8.888V26.936ZM40.0964 35V0.823999H44.8004L52.1924 21.416H52.2884V0.823999H57.1844V35H52.5764L45.0884 14.456H44.9924V35H40.0964ZM77.4565 10.664H72.5605V9.56C72.5605 8.44 72.2885 7.48 71.7445 6.68C71.2325 5.848 70.3525 5.432 69.1045 5.432C68.4325 5.432 67.8885 5.56 67.4725 5.816C67.0565 6.072 66.7205 6.392 66.4645 6.776C66.2085 7.192 66.0325 7.672 65.9365 8.216C65.8405 8.728 65.7925 9.272 65.7925 9.848C65.7925 10.52 65.8085 11.08 65.8405 11.528C65.9045 11.976 66.0325 12.376 66.2245 12.728C66.4165 13.08 66.6885 13.384 67.0405 13.64C67.4245 13.896 67.9365 14.152 68.5765 14.408L72.3205 15.896C73.4085 16.312 74.2885 16.808 74.9605 17.384C75.6325 17.928 76.1605 18.568 76.5445 19.304C76.8965 20.072 77.1365 20.952 77.2645 21.944C77.3925 22.904 77.4565 24.008 77.4565 25.256C77.4565 26.696 77.3125 28.04 77.0245 29.288C76.7365 30.504 76.2725 31.544 75.6325 32.408C74.9605 33.304 74.0805 34.008 72.9925 34.52C71.9045 35.032 70.5765 35.288 69.0085 35.288C67.8245 35.288 66.7205 35.08 65.6965 34.664C64.6725 34.248 63.7925 33.672 63.0565 32.936C62.3205 32.2 61.7285 31.352 61.2805 30.392C60.8645 29.4 60.6565 28.328 60.6565 27.176V25.352H65.5525V26.888C65.5525 27.784 65.8085 28.6 66.3205 29.336C66.8645 30.04 67.7605 30.392 69.0085 30.392C69.8405 30.392 70.4805 30.28 70.9285 30.056C71.4085 29.8 71.7765 29.448 72.0325 29C72.2885 28.552 72.4325 28.024 72.4645 27.416C72.5285 26.776 72.5605 26.072 72.5605 25.304C72.5605 24.408 72.5285 23.672 72.4645 23.096C72.4005 22.52 72.2725 22.056 72.0805 21.704C71.8565 21.352 71.5525 21.064 71.1685 20.84C70.8165 20.616 70.3365 20.376 69.7285 20.12L66.2245 18.68C64.1125 17.816 62.6885 16.68 61.9525 15.272C61.2485 13.832 60.8965 12.04 60.8965 9.896C60.8965 8.616 61.0725 7.4 61.4245 6.248C61.7765 5.096 62.3045 4.104 63.0085 3.272C63.6805 2.44 64.5285 1.784 65.5525 1.304C66.6085 0.791998 67.8565 0.535997 69.2965 0.535997C70.5125 0.535997 71.6165 0.759997 72.6085 1.208C73.6325 1.656 74.5125 2.248 75.2485 2.984C76.7205 4.52 77.4565 6.28 77.4565 8.264V10.664ZM81.2605 35V0.823999H86.1565V35H81.2605ZM90.9134 35V0.823999H98.1614C100.977 0.823999 103.105 1.592 104.545 3.128C106.017 4.664 106.753 6.84 106.753 9.656V25.64C106.753 28.84 105.969 31.208 104.401 32.744C102.865 34.248 100.641 35 97.7294 35H90.9134ZM95.8094 5.432V30.392H98.0654C99.4414 30.392 100.417 30.056 100.993 29.384C101.569 28.68 101.857 27.592 101.857 26.12V9.656C101.857 8.312 101.585 7.272 101.041 6.536C100.497 5.8 99.5054 5.432 98.0654 5.432H95.8094ZM111.351 35V0.823999H125.943V5.432H116.247V15.464H124.695V20.072H116.247V30.104H125.943V35H111.351ZM134.013 5.432V16.088H136.797C137.661 16.088 138.349 15.976 138.861 15.752C139.373 15.496 139.773 15.144 140.061 14.696C140.317 14.248 140.493 13.704 140.589 13.064C140.685 12.392 140.733 11.624 140.733 10.76C140.733 9.896 140.685 9.144 140.589 8.504C140.493 7.832 140.301 7.256 140.013 6.776C139.405 5.88 138.253 5.432 136.557 5.432H134.013ZM129.117 35V0.823999H136.989C142.749 0.823999 145.629 4.168 145.629 10.856C145.629 12.872 145.309 14.584 144.669 15.992C144.061 17.4 142.973 18.536 141.405 19.4L146.685 35H141.501L136.941 20.408H134.013V35H129.117ZM159.442 23.048L157.042 10.664H156.946L154.546 23.048H159.442ZM147.346 35L154.978 0.823999H159.058L166.69 35H161.794L160.354 27.656H153.682L152.242 35H147.346ZM173.997 5.432V16.088H176.781C177.645 16.088 178.333 15.976 178.845 15.752C179.357 15.496 179.757 15.144 180.045 14.696C180.301 14.248 180.477 13.704 180.573 13.064C180.669 12.392 180.717 11.624 180.717 10.76C180.717 9.896 180.669 9.144 180.573 8.504C180.477 7.832 180.285 7.256 179.997 6.776C179.389 5.88 178.237 5.432 176.541 5.432H173.997ZM169.101 35V0.823999H176.973C182.733 0.823999 185.613 4.168 185.613 10.856C185.613 12.872 185.293 14.584 184.653 15.992C184.045 17.4 182.957 18.536 181.389 19.4L186.669 35H181.485L176.925 20.408H173.997V35H169.101ZM199.426 23.048L197.026 10.664H196.93L194.53 23.048H199.426ZM187.33 35L194.962 0.823999H199.042L206.674 35H201.778L200.338 27.656H193.666L192.226 35H187.33ZM209.085 35V0.823999H213.789L220.077 18.92H220.173L226.413 0.823999H231.165V35H226.269V14.216H226.173L221.325 28.904H218.877L214.077 14.216H213.981V35H209.085ZM249.271 26.936C249.271 28.12 249.591 29 250.231 29.576C250.903 30.12 251.687 30.392 252.583 30.392C253.031 30.392 253.383 30.328 253.639 30.2L251.431 28.424L253.927 25.448L255.895 27.032V26.936V8.888C255.895 7.704 255.559 6.84 254.887 6.296C254.247 5.72 253.479 5.432 252.583 5.432C251.687 5.432 250.903 5.72 250.231 6.296C249.591 6.84 249.271 7.704 249.271 8.888V26.936ZM244.375 8.888C244.375 7.512 244.615 6.296 245.095 5.24C245.575 4.184 246.215 3.304 247.015 2.6C247.783 1.928 248.647 1.416 249.607 1.064C250.599 0.711998 251.591 0.535997 252.583 0.535997C253.575 0.535997 254.551 0.711998 255.511 1.064C256.503 1.416 257.399 1.928 258.199 2.6C258.967 3.304 259.591 4.184 260.071 5.24C260.551 6.296 260.791 7.512 260.791 8.888V26.936C260.791 28.28 260.551 29.448 260.071 30.44L263.095 32.888L260.599 35.864L257.719 33.512C256.247 34.696 254.535 35.288 252.583 35.288C251.591 35.288 250.599 35.112 249.607 34.76C248.647 34.408 247.783 33.88 247.015 33.176C246.215 32.504 245.575 31.656 245.095 30.632C244.615 29.608 244.375 28.376 244.375 26.936V8.888ZM280.941 0.823999V27.32C280.941 28.44 280.733 29.48 280.317 30.44C279.933 31.368 279.373 32.2 278.637 32.936C277.901 33.672 277.053 34.248 276.093 34.664C275.133 35.08 274.109 35.288 273.021 35.288C271.933 35.288 270.909 35.08 269.949 34.664C269.021 34.248 268.189 33.672 267.453 32.936C266.717 32.2 266.141 31.368 265.725 30.44C265.309 29.48 265.101 28.44 265.101 27.32V0.823999H269.997V26.84C269.997 28.056 270.285 28.952 270.861 29.528C271.437 30.104 272.157 30.392 273.021 30.392C273.885 30.392 274.605 30.104 275.181 29.528C275.757 28.952 276.045 28.056 276.045 26.84V0.823999H280.941ZM285.538 35V0.823999H300.13V5.432H290.434V15.464H298.882V20.072H290.434V30.104H300.13V35H285.538ZM0.0160002 49.888C0.0160002 48.512 0.256 47.296 0.736 46.24C1.216 45.184 1.856 44.304 2.656 43.6C3.424 42.928 4.288 42.416 5.248 42.064C6.24 41.712 7.232 41.536 8.224 41.536C9.216 41.536 10.192 41.712 11.152 42.064C12.144 42.416 13.04 42.928 13.84 43.6C14.608 44.304 15.232 45.184 15.712 46.24C16.192 47.296 16.432 48.512 16.432 49.888V67.936C16.432 69.376 16.192 70.608 15.712 71.632C15.232 72.656 14.608 73.504 13.84 74.176C13.04 74.88 12.144 75.408 11.152 75.76C10.192 76.112 9.216 76.288 8.224 76.288C7.232 76.288 6.24 76.112 5.248 75.76C4.288 75.408 3.424 74.88 2.656 74.176C1.856 73.504 1.216 72.656 0.736 71.632C0.256 70.608 0.0160002 69.376 0.0160002 67.936V49.888ZM4.912 67.936C4.912 69.12 5.232 70 5.872 70.576C6.544 71.12 7.328 71.392 8.224 71.392C9.12 71.392 9.888 71.12 10.528 70.576C11.2 70 11.536 69.12 11.536 67.936V49.888C11.536 48.704 11.2 47.84 10.528 47.296C9.888 46.72 9.12 46.432 8.224 46.432C7.328 46.432 6.544 46.72 5.872 47.296C5.232 47.84 4.912 48.704 4.912 49.888V67.936ZM45.1998 66.256V68.368C45.1998 69.424 44.9918 70.432 44.5758 71.392C44.1918 72.32 43.6478 73.152 42.9438 73.888C42.2398 74.624 41.4078 75.216 40.4478 75.664C39.5198 76.08 38.5118 76.288 37.4238 76.288C36.4958 76.288 35.5518 76.16 34.5918 75.904C33.6318 75.648 32.7678 75.2 31.9998 74.56C31.2318 73.92 30.5918 73.104 30.0798 72.112C29.5998 71.088 29.3598 69.792 29.3598 68.224V49.408C29.3598 48.288 29.5518 47.248 29.9358 46.288C30.3198 45.328 30.8638 44.496 31.5678 43.792C32.2718 43.088 33.1038 42.544 34.0638 42.16C35.0558 41.744 36.1438 41.536 37.3278 41.536C39.6318 41.536 41.5038 42.288 42.9438 43.792C43.6478 44.528 44.1918 45.408 44.5758 46.432C44.9918 47.424 45.1998 48.512 45.1998 49.696V51.616H40.3038V49.984C40.3038 49.024 40.0318 48.192 39.4878 47.488C38.9438 46.784 38.2078 46.432 37.2798 46.432C36.0638 46.432 35.2478 46.816 34.8318 47.584C34.4478 48.32 34.2558 49.264 34.2558 50.416V67.888C34.2558 68.88 34.4638 69.712 34.8798 70.384C35.3278 71.056 36.1118 71.392 37.2318 71.392C37.5518 71.392 37.8878 71.344 38.2398 71.248C38.6238 71.12 38.9758 70.928 39.2958 70.672C39.5838 70.416 39.8238 70.064 40.0157 69.616C40.2078 69.168 40.3038 68.608 40.3038 67.936V66.256H45.1998ZM65.0346 41.824V68.32C65.0346 69.44 64.8266 70.48 64.4106 71.44C64.0266 72.368 63.4666 73.2 62.7306 73.936C61.9946 74.672 61.1466 75.248 60.1866 75.664C59.2266 76.08 58.2026 76.288 57.1146 76.288C56.0266 76.288 55.0026 76.08 54.0426 75.664C53.1146 75.248 52.2826 74.672 51.5466 73.936C50.8106 73.2 50.2346 72.368 49.8186 71.44C49.4026 70.48 49.1946 69.44 49.1946 68.32V41.824H54.0906V67.84C54.0906 69.056 54.3786 69.952 54.9546 70.528C55.5306 71.104 56.2506 71.392 57.1146 71.392C57.9786 71.392 58.6986 71.104 59.2746 70.528C59.8506 69.952 60.1386 69.056 60.1386 67.84V41.824H65.0346ZM74.5281 46.432V57.088H77.3121C78.1761 57.088 78.8641 56.976 79.3761 56.752C79.8881 56.496 80.2881 56.144 80.5761 55.696C80.8321 55.248 81.0081 54.704 81.1041 54.064C81.2001 53.392 81.2481 52.624 81.2481 51.76C81.2481 50.896 81.2001 50.144 81.1041 49.504C81.0081 48.832 80.8161 48.256 80.5281 47.776C79.9201 46.88 78.7681 46.432 77.0721 46.432H74.5281ZM69.6321 76V41.824H77.5041C83.2641 41.824 86.1441 45.168 86.1441 51.856C86.1441 53.872 85.8241 55.584 85.1841 56.992C84.5761 58.4 83.4881 59.536 81.9201 60.4L87.2001 76H82.0161L77.4561 61.408H74.5281V76H69.6321ZM105.91 51.664H101.014V50.56C101.014 49.44 100.742 48.48 100.198 47.68C99.6856 46.848 98.8056 46.432 97.5576 46.432C96.8856 46.432 96.3416 46.56 95.9256 46.816C95.5096 47.072 95.1736 47.392 94.9176 47.776C94.6616 48.192 94.4856 48.672 94.3896 49.216C94.2936 49.728 94.2456 50.272 94.2456 50.848C94.2456 51.52 94.2616 52.08 94.2936 52.528C94.3576 52.976 94.4856 53.376 94.6776 53.728C94.8696 54.08 95.1416 54.384 95.4936 54.64C95.8776 54.896 96.3896 55.152 97.0296 55.408L100.774 56.896C101.862 57.312 102.742 57.808 103.414 58.384C104.086 58.928 104.614 59.568 104.998 60.304C105.35 61.072 105.59 61.952 105.718 62.944C105.846 63.904 105.91 65.008 105.91 66.256C105.91 67.696 105.766 69.04 105.478 70.288C105.19 71.504 104.726 72.544 104.086 73.408C103.414 74.304 102.534 75.008 101.446 75.52C100.358 76.032 99.0296 76.288 97.4616 76.288C96.2776 76.288 95.1736 76.08 94.1496 75.664C93.1256 75.248 92.2456 74.672 91.5096 73.936C90.7736 73.2 90.1816 72.352 89.7336 71.392C89.3176 70.4 89.1096 69.328 89.1096 68.176V66.352H94.0056V67.888C94.0056 68.784 94.2616 69.6 94.7736 70.336C95.3176 71.04 96.2136 71.392 97.4616 71.392C98.2936 71.392 98.9336 71.28 99.3816 71.056C99.8616 70.8 100.23 70.448 100.486 70C100.742 69.552 100.886 69.024 100.918 68.416C100.982 67.776 101.014 67.072 101.014 66.304C101.014 65.408 100.982 64.672 100.918 64.096C100.854 63.52 100.726 63.056 100.534 62.704C100.31 62.352 100.006 62.064 99.6216 61.84C99.2696 61.616 98.7896 61.376 98.1816 61.12L94.6776 59.68C92.5656 58.816 91.1416 57.68 90.4056 56.272C89.7016 54.832 89.3496 53.04 89.3496 50.896C89.3496 49.616 89.5256 48.4 89.8776 47.248C90.2296 46.096 90.7576 45.104 91.4616 44.272C92.1336 43.44 92.9816 42.784 94.0056 42.304C95.0616 41.792 96.3096 41.536 97.7496 41.536C98.9656 41.536 100.07 41.76 101.062 42.208C102.086 42.656 102.966 43.248 103.702 43.984C105.174 45.52 105.91 47.28 105.91 49.264V51.664ZM109.282 49.888C109.282 48.512 109.522 47.296 110.002 46.24C110.482 45.184 111.122 44.304 111.922 43.6C112.69 42.928 113.554 42.416 114.514 42.064C115.506 41.712 116.498 41.536 117.49 41.536C118.482 41.536 119.458 41.712 120.418 42.064C121.41 42.416 122.306 42.928 123.106 43.6C123.874 44.304 124.498 45.184 124.978 46.24C125.458 47.296 125.698 48.512 125.698 49.888V67.936C125.698 69.376 125.458 70.608 124.978 71.632C124.498 72.656 123.874 73.504 123.106 74.176C122.306 74.88 121.41 75.408 120.418 75.76C119.458 76.112 118.482 76.288 117.49 76.288C116.498 76.288 115.506 76.112 114.514 75.76C113.554 75.408 112.69 74.88 111.922 74.176C111.122 73.504 110.482 72.656 110.002 71.632C109.522 70.608 109.282 69.376 109.282 67.936V49.888ZM114.178 67.936C114.178 69.12 114.498 70 115.138 70.576C115.81 71.12 116.594 71.392 117.49 71.392C118.386 71.392 119.154 71.12 119.794 70.576C120.466 70 120.802 69.12 120.802 67.936V49.888C120.802 48.704 120.466 47.84 119.794 47.296C119.154 46.72 118.386 46.432 117.49 46.432C116.594 46.432 115.81 46.72 115.138 47.296C114.498 47.84 114.178 48.704 114.178 49.888V67.936ZM148.801 64.048L146.401 51.664H146.305L143.905 64.048H148.801ZM136.705 76L144.337 41.824H148.417L156.049 76H151.153L149.713 68.656H143.041L141.601 76H136.705ZM159.051 76V46.432H153.387V41.824H169.611V46.432H163.947V76H159.051ZM171.773 76V41.824H186.365V46.432H176.669V56.464H185.117V61.072H176.669V71.104H186.365V76H171.773ZM189.346 76V41.824H194.05L201.442 62.416H201.538V41.824H206.434V76H201.826L194.338 55.456H194.242V76H189.346ZM210.867 76V41.824H218.115C220.931 41.824 223.059 42.592 224.499 44.128C225.971 45.664 226.707 47.84 226.707 50.656V66.64C226.707 69.84 225.923 72.208 224.355 73.744C222.819 75.248 220.595 76 217.683 76H210.867ZM215.763 46.432V71.392H218.019C219.395 71.392 220.371 71.056 220.947 70.384C221.523 69.68 221.811 68.592 221.811 67.12V50.656C221.811 49.312 221.539 48.272 220.995 47.536C220.451 46.8 219.459 46.432 218.019 46.432H215.763ZM231.304 76V41.824H245.896V46.432H236.2V56.464H244.648V61.072H236.2V71.104H245.896V76H231.304ZM264.91 41.824V68.32C264.91 69.44 264.702 70.48 264.286 71.44C263.902 72.368 263.342 73.2 262.606 73.936C261.87 74.672 261.022 75.248 260.062 75.664C259.102 76.08 258.078 76.288 256.99 76.288C255.902 76.288 254.878 76.08 253.918 75.664C252.99 75.248 252.158 74.672 251.422 73.936C250.686 73.2 250.11 72.368 249.694 71.44C249.278 70.48 249.07 69.44 249.07 68.32V41.824H253.966V67.84C253.966 69.056 254.254 69.952 254.83 70.528C255.406 71.104 256.126 71.392 256.99 71.392C257.854 71.392 258.574 71.104 259.15 70.528C259.726 69.952 260.014 69.056 260.014 67.84V41.824H264.91ZM288.301 64.048L285.901 51.664H285.805L283.405 64.048H288.301ZM276.205 76L283.837 41.824H287.917L295.549 76H290.653L289.213 68.656H282.541L281.101 76H276.205ZM284.701 33.52L289.021 40.288H285.853L279.517 33.52H284.701ZM313.8 51.664H308.904V50.56C308.904 49.44 308.632 48.48 308.088 47.68C307.576 46.848 306.696 46.432 305.448 46.432C304.776 46.432 304.232 46.56 303.816 46.816C303.4 47.072 303.064 47.392 302.808 47.776C302.552 48.192 302.376 48.672 302.28 49.216C302.184 49.728 302.136 50.272 302.136 50.848C302.136 51.52 302.152 52.08 302.184 52.528C302.248 52.976 302.376 53.376 302.568 53.728C302.76 54.08 303.032 54.384 303.384 54.64C303.768 54.896 304.28 55.152 304.92 55.408L308.664 56.896C309.752 57.312 310.632 57.808 311.304 58.384C311.976 58.928 312.504 59.568 312.888 60.304C313.24 61.072 313.48 61.952 313.608 62.944C313.736 63.904 313.8 65.008 313.8 66.256C313.8 67.696 313.656 69.04 313.368 70.288C313.08 71.504 312.616 72.544 311.976 73.408C311.304 74.304 310.424 75.008 309.336 75.52C308.248 76.032 306.92 76.288 305.352 76.288C304.168 76.288 303.064 76.08 302.04 75.664C301.016 75.248 300.136 74.672 299.4 73.936C298.664 73.2 298.072 72.352 297.624 71.392C297.208 70.4 297 69.328 297 68.176V66.352H301.896V67.888C301.896 68.784 302.152 69.6 302.664 70.336C303.208 71.04 304.104 71.392 305.352 71.392C306.184 71.392 306.824 71.28 307.272 71.056C307.752 70.8 308.12 70.448 308.376 70C308.632 69.552 308.776 69.024 308.808 68.416C308.872 67.776 308.904 67.072 308.904 66.304C308.904 65.408 308.872 64.672 308.808 64.096C308.744 63.52 308.616 63.056 308.424 62.704C308.2 62.352 307.896 62.064 307.512 61.84C307.16 61.616 306.68 61.376 306.072 61.12L302.568 59.68C300.456 58.816 299.032 57.68 298.296 56.272C297.592 54.832 297.24 53.04 297.24 50.896C297.24 49.616 297.416 48.4 297.768 47.248C298.12 46.096 298.648 45.104 299.352 44.272C300.024 43.44 300.872 42.784 301.896 42.304C302.952 41.792 304.2 41.536 305.64 41.536C306.856 41.536 307.96 41.76 308.952 42.208C309.976 42.656 310.856 43.248 311.592 43.984C313.064 45.52 313.8 47.28 313.8 49.264V51.664ZM0.304 117V82.824H14.896V87.432H5.2V97.464H13.648V102.072H5.2V112.104H14.896V117H0.304ZM15.6696 117L22.5816 99.096L16.1976 82.824H21.3816L25.0776 92.952L28.8216 82.824H34.0056L27.4776 99.096L34.5336 117H29.3496L25.0776 105.48L20.8536 117H15.6696ZM36.7259 117V82.824H44.0699C45.4139 82.824 46.5979 83 47.6219 83.352C48.6459 83.704 49.5739 84.328 50.4059 85.224C51.2379 86.12 51.8139 87.176 52.1339 88.392C52.4539 89.576 52.6139 91.192 52.6139 93.24C52.6139 94.776 52.5179 96.072 52.3259 97.128C52.1659 98.184 51.7979 99.176 51.2219 100.104C50.5499 101.224 49.6539 102.104 48.5339 102.744C47.4139 103.352 45.9419 103.656 44.1179 103.656H41.6219V117H36.7259ZM41.6219 87.432V99.048H43.9739C44.9659 99.048 45.7339 98.904 46.2779 98.616C46.8219 98.328 47.2219 97.928 47.4779 97.416C47.7339 96.936 47.8779 96.344 47.9099 95.64C47.9739 94.936 48.0059 94.152 48.0059 93.288C48.0059 92.488 47.9899 91.736 47.9579 91.032C47.9259 90.296 47.7819 89.656 47.5259 89.112C47.2699 88.568 46.8859 88.152 46.3739 87.864C45.8619 87.576 45.1259 87.432 44.1659 87.432H41.6219ZM56.2728 117V82.824H70.8648V87.432H61.1688V97.464H69.6168V102.072H61.1688V112.104H70.8648V117H56.2728ZM89.5904 107.256V109.368C89.5904 110.424 89.3824 111.432 88.9664 112.392C88.5824 113.32 88.0384 114.152 87.3344 114.888C86.6304 115.624 85.7984 116.216 84.8384 116.664C83.9104 117.08 82.9024 117.288 81.8144 117.288C80.8864 117.288 79.9424 117.16 78.9824 116.904C78.0224 116.648 77.1584 116.2 76.3904 115.56C75.6224 114.92 74.9824 114.104 74.4704 113.112C73.9904 112.088 73.7504 110.792 73.7504 109.224V90.408C73.7504 89.288 73.9424 88.248 74.3264 87.288C74.7104 86.328 75.2544 85.496 75.9584 84.792C76.6624 84.088 77.4944 83.544 78.4544 83.16C79.4464 82.744 80.5344 82.536 81.7184 82.536C84.0224 82.536 85.8944 83.288 87.3344 84.792C88.0384 85.528 88.5824 86.408 88.9664 87.432C89.3824 88.424 89.5904 89.512 89.5904 90.696V92.616H84.6944V90.984C84.6944 90.024 84.4224 89.192 83.8784 88.488C83.3344 87.784 82.5984 87.432 81.6704 87.432C80.4544 87.432 79.6384 87.816 79.2224 88.584C78.8384 89.32 78.6464 90.264 78.6464 91.416V108.888C78.6464 109.88 78.8544 110.712 79.2704 111.384C79.7184 112.056 80.5024 112.392 81.6224 112.392C81.9424 112.392 82.2784 112.344 82.6304 112.248C83.0144 112.12 83.3664 111.928 83.6864 111.672C83.9744 111.416 84.2144 111.064 84.4064 110.616C84.5984 110.168 84.6944 109.608 84.6944 108.936V107.256H89.5904ZM96.8013 117V87.432H91.1372V82.824H107.361V87.432H101.697V117H96.8013ZM116.786 105.048L114.386 92.664H114.29L111.89 105.048H116.786ZM104.69 117L112.322 82.824H116.402L124.034 117H119.138L117.698 109.656H111.026L109.586 117H104.69ZM127.036 117V87.432H121.372V82.824H137.596V87.432H131.932V117H127.036ZM139.901 117V82.824H144.797V117H139.901ZM166.162 82.824L159.154 117H154.834L147.874 82.824H153.058L156.946 106.68H157.042L160.978 82.824H166.162ZM177.208 105.048L174.808 92.664H174.712L172.312 105.048H177.208ZM165.112 117L172.744 82.824H176.824L184.456 117H179.56L178.12 109.656H171.448L170.008 117H165.112ZM202.707 92.664H197.811V91.56C197.811 90.44 197.539 89.48 196.995 88.68C196.483 87.848 195.603 87.432 194.355 87.432C193.683 87.432 193.139 87.56 192.723 87.816C192.307 88.072 191.971 88.392 191.715 88.776C191.459 89.192 191.283 89.672 191.187 90.216C191.091 90.728 191.043 91.272 191.043 91.848C191.043 92.52 191.059 93.08 191.091 93.528C191.155 93.976 191.283 94.376 191.475 94.728C191.667 95.08 191.939 95.384 192.291 95.64C192.675 95.896 193.187 96.152 193.827 96.408L197.571 97.896C198.659 98.312 199.539 98.808 200.211 99.384C200.883 99.928 201.411 100.568 201.795 101.304C202.147 102.072 202.387 102.952 202.515 103.944C202.643 104.904 202.707 106.008 202.707 107.256C202.707 108.696 202.563 110.04 202.275 111.288C201.987 112.504 201.523 113.544 200.883 114.408C200.211 115.304 199.331 116.008 198.243 116.52C197.155 117.032 195.827 117.288 194.259 117.288C193.075 117.288 191.971 117.08 190.947 116.664C189.923 116.248 189.043 115.672 188.307 114.936C187.571 114.2 186.979 113.352 186.531 112.392C186.115 111.4 185.907 110.328 185.907 109.176V107.352H190.803V108.888C190.803 109.784 191.059 110.6 191.571 111.336C192.115 112.04 193.011 112.392 194.259 112.392C195.091 112.392 195.731 112.28 196.179 112.056C196.659 111.8 197.027 111.448 197.283 111C197.539 110.552 197.683 110.024 197.715 109.416C197.779 108.776 197.811 108.072 197.811 107.304C197.811 106.408 197.779 105.672 197.715 105.096C197.651 104.52 197.523 104.056 197.331 103.704C197.107 103.352 196.803 103.064 196.419 102.84C196.067 102.616 195.587 102.376 194.979 102.12L191.475 100.68C189.363 99.816 187.939 98.68 187.203 97.272C186.499 95.832 186.146 94.04 186.146 91.896C186.146 90.616 186.323 89.4 186.675 88.248C187.027 87.096 187.555 86.104 188.259 85.272C188.931 84.44 189.779 83.784 190.803 83.304C191.859 82.792 193.107 82.536 194.547 82.536C195.763 82.536 196.867 82.76 197.859 83.208C198.883 83.656 199.763 84.248 200.499 84.984C201.971 86.52 202.707 88.28 202.707 90.264V92.664ZM206.079 117V112.104H210.975V117H206.079Z" fill="black"/>
</svg>
