<svg width="431" height="130" viewBox="0 0 431 130" fill="none" xmlns="http://www.w3.org/2000/svg">
<path d="M2.304 35V0.823999H9.552C12.368 0.823999 14.496 1.592 15.936 3.128C17.408 4.664 18.144 6.84 18.144 9.656V25.64C18.144 28.84 17.36 31.208 15.792 32.744C14.256 34.248 12.032 35 9.12 35H2.304ZM7.2 5.432V30.392H9.456C10.832 30.392 11.808 30.056 12.384 29.384C12.96 28.68 13.248 27.592 13.248 26.12V9.656C13.248 8.312 12.976 7.272 12.432 6.536C11.888 5.8 10.896 5.432 9.456 5.432H7.2ZM22.4535 8.888C22.4535 7.512 22.6935 6.296 23.1735 5.24C23.6535 4.184 24.2935 3.304 25.0935 2.6C25.8615 1.928 26.7255 1.416 27.6855 1.064C28.6775 0.711998 29.6695 0.535997 30.6615 0.535997C31.6535 0.535997 32.6295 0.711998 33.5895 1.064C34.5815 1.416 35.4775 1.928 36.2775 2.6C37.0455 3.304 37.6695 4.184 38.1495 5.24C38.6295 6.296 38.8695 7.512 38.8695 8.888V26.936C38.8695 28.376 38.6295 29.608 38.1495 30.632C37.6695 31.656 37.0455 32.504 36.2775 33.176C35.4775 33.88 34.5815 34.408 33.5895 34.76C32.6295 35.112 31.6535 35.288 30.6615 35.288C29.6695 35.288 28.6775 35.112 27.6855 34.76C26.7255 34.408 25.8615 33.88 25.0935 33.176C24.2935 32.504 23.6535 31.656 23.1735 30.632C22.6935 29.608 22.4535 28.376 22.4535 26.936V8.888ZM27.3495 26.936C27.3495 28.12 27.6695 29 28.3095 29.576C28.9815 30.12 29.7655 30.392 30.6615 30.392C31.5575 30.392 32.3255 30.12 32.9655 29.576C33.6375 29 33.9735 28.12 33.9735 26.936V8.888C33.9735 7.704 33.6375 6.84 32.9655 6.296C32.3255 5.72 31.5575 5.432 30.6615 5.432C29.7655 5.432 28.9815 5.72 28.3095 6.296C27.6695 6.84 27.3495 7.704 27.3495 8.888V26.936ZM59.019 10.664H54.123V9.56C54.123 8.44 53.851 7.48 53.307 6.68C52.795 5.848 51.915 5.432 50.667 5.432C49.995 5.432 49.451 5.56 49.035 5.816C48.619 6.072 48.283 6.392 48.027 6.776C47.771 7.192 47.595 7.672 47.499 8.216C47.403 8.728 47.355 9.272 47.355 9.848C47.355 10.52 47.371 11.08 47.403 11.528C47.467 11.976 47.595 12.376 47.787 12.728C47.979 13.08 48.251 13.384 48.603 13.64C48.987 13.896 49.499 14.152 50.139 14.408L53.883 15.896C54.971 16.312 55.851 16.808 56.523 17.384C57.195 17.928 57.723 18.568 58.107 19.304C58.459 20.072 58.699 20.952 58.827 21.944C58.955 22.904 59.019 24.008 59.019 25.256C59.019 26.696 58.875 28.04 58.587 29.288C58.299 30.504 57.835 31.544 57.195 32.408C56.523 33.304 55.643 34.008 54.555 34.52C53.467 35.032 52.139 35.288 50.571 35.288C49.387 35.288 48.283 35.08 47.259 34.664C46.235 34.248 45.355 33.672 44.619 32.936C43.883 32.2 43.291 31.352 42.843 30.392C42.427 29.4 42.219 28.328 42.219 27.176V25.352H47.115V26.888C47.115 27.784 47.371 28.6 47.883 29.336C48.427 30.04 49.323 30.392 50.571 30.392C51.403 30.392 52.043 30.28 52.491 30.056C52.971 29.8 53.339 29.448 53.595 29C53.851 28.552 53.995 28.024 54.027 27.416C54.091 26.776 54.123 26.072 54.123 25.304C54.123 24.408 54.091 23.672 54.027 23.096C53.963 22.52 53.835 22.056 53.643 21.704C53.419 21.352 53.115 21.064 52.731 20.84C52.379 20.616 51.899 20.376 51.291 20.12L47.787 18.68C45.675 17.816 44.251 16.68 43.515 15.272C42.811 13.832 42.459 12.04 42.459 9.896C42.459 8.616 42.635 7.4 42.987 6.248C43.339 5.096 43.867 4.104 44.571 3.272C45.243 2.44 46.091 1.784 47.115 1.304C48.171 0.791998 49.419 0.535997 50.859 0.535997C52.075 0.535997 53.179 0.759997 54.171 1.208C55.195 1.656 56.075 2.248 56.811 2.984C58.283 4.52 59.019 6.28 59.019 8.264V10.664ZM81.4733 23.048L79.0733 10.664H78.9773L76.5773 23.048H81.4733ZM69.3773 35L77.0093 0.823999H81.0893L88.7213 35H83.8253L82.3853 27.656H75.7133L74.2733 35H69.3773ZM91.1321 35V0.823999H96.0281V30.104H105.724V35H91.1321ZM124.738 0.823999V27.32C124.738 28.44 124.53 29.48 124.114 30.44C123.73 31.368 123.17 32.2 122.434 32.936C121.698 33.672 120.85 34.248 119.89 34.664C118.93 35.08 117.906 35.288 116.818 35.288C115.73 35.288 114.706 35.08 113.746 34.664C112.818 34.248 111.986 33.672 111.25 32.936C110.514 32.2 109.938 31.368 109.522 30.44C109.106 29.48 108.898 28.44 108.898 27.32V0.823999H113.794V26.84C113.794 28.056 114.082 28.952 114.658 29.528C115.234 30.104 115.954 30.392 116.818 30.392C117.682 30.392 118.402 30.104 118.978 29.528C119.554 28.952 119.842 28.056 119.842 26.84V0.823999H124.738ZM129.143 35V0.823999H133.847L141.239 21.416H141.335V0.823999H146.231V35H141.623L134.135 14.456H134.039V35H129.143ZM150.375 8.888C150.375 7.512 150.615 6.296 151.095 5.24C151.575 4.184 152.215 3.304 153.015 2.6C153.783 1.928 154.647 1.416 155.607 1.064C156.599 0.711998 157.591 0.535997 158.583 0.535997C159.575 0.535997 160.551 0.711998 161.511 1.064C162.503 1.416 163.399 1.928 164.199 2.6C164.967 3.304 165.591 4.184 166.071 5.24C166.551 6.296 166.791 7.512 166.791 8.888V26.936C166.791 28.376 166.551 29.608 166.071 30.632C165.591 31.656 164.967 32.504 164.199 33.176C163.399 33.88 162.503 34.408 161.511 34.76C160.551 35.112 159.575 35.288 158.583 35.288C157.591 35.288 156.599 35.112 155.607 34.76C154.647 34.408 153.783 33.88 153.015 33.176C152.215 32.504 151.575 31.656 151.095 30.632C150.615 29.608 150.375 28.376 150.375 26.936V8.888ZM155.271 26.936C155.271 28.12 155.591 29 156.231 29.576C156.903 30.12 157.687 30.392 158.583 30.392C159.479 30.392 160.247 30.12 160.887 29.576C161.559 29 161.895 28.12 161.895 26.936V8.888C161.895 7.704 161.559 6.84 160.887 6.296C160.247 5.72 159.479 5.432 158.583 5.432C157.687 5.432 156.903 5.72 156.231 6.296C155.591 6.84 155.271 7.704 155.271 8.888V26.936ZM186.941 10.664H182.045V9.56C182.045 8.44 181.773 7.48 181.229 6.68C180.717 5.848 179.837 5.432 178.589 5.432C177.917 5.432 177.373 5.56 176.957 5.816C176.541 6.072 176.205 6.392 175.949 6.776C175.693 7.192 175.517 7.672 175.421 8.216C175.325 8.728 175.277 9.272 175.277 9.848C175.277 10.52 175.293 11.08 175.325 11.528C175.389 11.976 175.517 12.376 175.709 12.728C175.901 13.08 176.173 13.384 176.525 13.64C176.909 13.896 177.421 14.152 178.061 14.408L181.805 15.896C182.893 16.312 183.773 16.808 184.445 17.384C185.117 17.928 185.645 18.568 186.029 19.304C186.381 20.072 186.621 20.952 186.749 21.944C186.877 22.904 186.941 24.008 186.941 25.256C186.941 26.696 186.797 28.04 186.509 29.288C186.221 30.504 185.757 31.544 185.117 32.408C184.445 33.304 183.565 34.008 182.477 34.52C181.389 35.032 180.061 35.288 178.493 35.288C177.309 35.288 176.205 35.08 175.181 34.664C174.157 34.248 173.277 33.672 172.541 32.936C171.805 32.2 171.213 31.352 170.765 30.392C170.349 29.4 170.141 28.328 170.141 27.176V25.352H175.037V26.888C175.037 27.784 175.293 28.6 175.805 29.336C176.349 30.04 177.245 30.392 178.493 30.392C179.325 30.392 179.965 30.28 180.413 30.056C180.893 29.8 181.261 29.448 181.517 29C181.773 28.552 181.917 28.024 181.949 27.416C182.013 26.776 182.045 26.072 182.045 25.304C182.045 24.408 182.013 23.672 181.949 23.096C181.885 22.52 181.757 22.056 181.565 21.704C181.341 21.352 181.037 21.064 180.653 20.84C180.301 20.616 179.821 20.376 179.213 20.12L175.709 18.68C173.597 17.816 172.173 16.68 171.437 15.272C170.733 13.832 170.381 12.04 170.381 9.896C170.381 8.616 170.557 7.4 170.909 6.248C171.261 5.096 171.789 4.104 172.493 3.272C173.165 2.44 174.013 1.784 175.037 1.304C176.093 0.791998 177.341 0.535997 178.781 0.535997C179.997 0.535997 181.101 0.759997 182.093 1.208C183.117 1.656 183.997 2.248 184.733 2.984C186.205 4.52 186.941 6.28 186.941 8.264V10.664ZM215.059 25.256V27.368C215.059 28.424 214.851 29.432 214.435 30.392C214.051 31.32 213.507 32.152 212.803 32.888C212.099 33.624 211.267 34.216 210.307 34.664C209.379 35.08 208.371 35.288 207.283 35.288C206.355 35.288 205.411 35.16 204.451 34.904C203.491 34.648 202.627 34.2 201.859 33.56C201.091 32.92 200.451 32.104 199.939 31.112C199.459 30.088 199.219 28.792 199.219 27.224V8.408C199.219 7.288 199.411 6.248 199.795 5.288C200.179 4.328 200.723 3.496 201.427 2.792C202.131 2.088 202.963 1.544 203.923 1.16C204.915 0.743998 206.003 0.535997 207.187 0.535997C209.491 0.535997 211.363 1.288 212.803 2.792C213.507 3.528 214.051 4.408 214.435 5.432C214.851 6.424 215.059 7.512 215.059 8.696V10.616H210.163V8.984C210.163 8.024 209.891 7.192 209.347 6.488C208.803 5.784 208.067 5.432 207.139 5.432C205.923 5.432 205.107 5.816 204.691 6.584C204.307 7.32 204.115 8.264 204.115 9.416V26.888C204.115 27.88 204.323 28.712 204.739 29.384C205.187 30.056 205.971 30.392 207.091 30.392C207.411 30.392 207.747 30.344 208.099 30.248C208.483 30.12 208.835 29.928 209.155 29.672C209.443 29.416 209.683 29.064 209.875 28.616C210.067 28.168 210.163 27.608 210.163 26.936V25.256H215.059ZM218.766 8.888C218.766 7.512 219.006 6.296 219.486 5.24C219.966 4.184 220.606 3.304 221.406 2.6C222.174 1.928 223.038 1.416 223.998 1.064C224.99 0.711998 225.982 0.535997 226.974 0.535997C227.966 0.535997 228.942 0.711998 229.902 1.064C230.894 1.416 231.79 1.928 232.59 2.6C233.358 3.304 233.982 4.184 234.462 5.24C234.942 6.296 235.182 7.512 235.182 8.888V26.936C235.182 28.376 234.942 29.608 234.462 30.632C233.982 31.656 233.358 32.504 232.59 33.176C231.79 33.88 230.894 34.408 229.902 34.76C228.942 35.112 227.966 35.288 226.974 35.288C225.982 35.288 224.99 35.112 223.998 34.76C223.038 34.408 222.174 33.88 221.406 33.176C220.606 32.504 219.966 31.656 219.486 30.632C219.006 29.608 218.766 28.376 218.766 26.936V8.888ZM223.662 26.936C223.662 28.12 223.982 29 224.622 29.576C225.294 30.12 226.078 30.392 226.974 30.392C227.87 30.392 228.638 30.12 229.278 29.576C229.95 29 230.286 28.12 230.286 26.936V8.888C230.286 7.704 229.95 6.84 229.278 6.296C228.638 5.72 227.87 5.432 226.974 5.432C226.078 5.432 225.294 5.72 224.622 6.296C223.982 6.84 223.662 7.704 223.662 8.888V26.936ZM239.3 35V0.823999H244.004L251.396 21.416H251.492V0.823999H256.388V35H251.78L244.292 14.456H244.196V35H239.3ZM276.66 10.664H271.764V9.56C271.764 8.44 271.492 7.48 270.948 6.68C270.436 5.848 269.556 5.432 268.308 5.432C267.636 5.432 267.092 5.56 266.676 5.816C266.26 6.072 265.924 6.392 265.668 6.776C265.412 7.192 265.236 7.672 265.14 8.216C265.044 8.728 264.996 9.272 264.996 9.848C264.996 10.52 265.012 11.08 265.044 11.528C265.108 11.976 265.236 12.376 265.428 12.728C265.62 13.08 265.892 13.384 266.244 13.64C266.628 13.896 267.14 14.152 267.78 14.408L271.524 15.896C272.612 16.312 273.492 16.808 274.164 17.384C274.836 17.928 275.364 18.568 275.748 19.304C276.1 20.072 276.34 20.952 276.468 21.944C276.596 22.904 276.66 24.008 276.66 25.256C276.66 26.696 276.516 28.04 276.228 29.288C275.94 30.504 275.476 31.544 274.836 32.408C274.164 33.304 273.284 34.008 272.196 34.52C271.108 35.032 269.78 35.288 268.212 35.288C267.028 35.288 265.924 35.08 264.9 34.664C263.876 34.248 262.996 33.672 262.26 32.936C261.524 32.2 260.932 31.352 260.484 30.392C260.068 29.4 259.86 28.328 259.86 27.176V25.352H264.756V26.888C264.756 27.784 265.012 28.6 265.524 29.336C266.068 30.04 266.964 30.392 268.212 30.392C269.044 30.392 269.684 30.28 270.132 30.056C270.612 29.8 270.98 29.448 271.236 29C271.492 28.552 271.636 28.024 271.668 27.416C271.732 26.776 271.764 26.072 271.764 25.304C271.764 24.408 271.732 23.672 271.668 23.096C271.604 22.52 271.476 22.056 271.284 21.704C271.06 21.352 270.756 21.064 270.372 20.84C270.02 20.616 269.54 20.376 268.932 20.12L265.428 18.68C263.316 17.816 261.892 16.68 261.156 15.272C260.452 13.832 260.1 12.04 260.1 9.896C260.1 8.616 260.276 7.4 260.628 6.248C260.98 5.096 261.508 4.104 262.212 3.272C262.884 2.44 263.732 1.784 264.756 1.304C265.812 0.791998 267.06 0.535997 268.5 0.535997C269.716 0.535997 270.82 0.759997 271.812 1.208C272.836 1.656 273.716 2.248 274.452 2.984C275.924 4.52 276.66 6.28 276.66 8.264V10.664ZM280.464 35V0.823999H285.36V35H280.464ZM290.117 35V0.823999H297.365C300.181 0.823999 302.309 1.592 303.749 3.128C305.221 4.664 305.957 6.84 305.957 9.656V25.64C305.957 28.84 305.173 31.208 303.605 32.744C302.069 34.248 299.845 35 296.933 35H290.117ZM295.013 5.432V30.392H297.269C298.645 30.392 299.621 30.056 300.197 29.384C300.773 28.68 301.061 27.592 301.061 26.12V9.656C301.061 8.312 300.789 7.272 300.245 6.536C299.701 5.8 298.709 5.432 297.269 5.432H295.013ZM310.554 35V0.823999H325.146V5.432H315.45V15.464H323.898V20.072H315.45V30.104H325.146V35H310.554ZM333.216 5.432V16.088H336C336.864 16.088 337.552 15.976 338.064 15.752C338.576 15.496 338.976 15.144 339.264 14.696C339.52 14.248 339.696 13.704 339.792 13.064C339.888 12.392 339.936 11.624 339.936 10.76C339.936 9.896 339.888 9.144 339.792 8.504C339.696 7.832 339.504 7.256 339.216 6.776C338.608 5.88 337.456 5.432 335.76 5.432H333.216ZM328.32 35V0.823999H336.192C341.952 0.823999 344.832 4.168 344.832 10.856C344.832 12.872 344.512 14.584 343.872 15.992C343.264 17.4 342.176 18.536 340.608 19.4L345.888 35H340.704L336.144 20.408H333.216V35H328.32ZM358.645 23.048L356.245 10.664H356.149L353.749 23.048H358.645ZM346.549 35L354.181 0.823999H358.261L365.893 35H360.997L359.557 27.656H352.885L351.445 35H346.549ZM373.2 5.432V16.088H375.984C376.848 16.088 377.536 15.976 378.048 15.752C378.56 15.496 378.96 15.144 379.248 14.696C379.504 14.248 379.68 13.704 379.776 13.064C379.872 12.392 379.92 11.624 379.92 10.76C379.92 9.896 379.872 9.144 379.776 8.504C379.68 7.832 379.488 7.256 379.2 6.776C378.592 5.88 377.44 5.432 375.744 5.432H373.2ZM368.304 35V0.823999H376.176C381.936 0.823999 384.816 4.168 384.816 10.856C384.816 12.872 384.496 14.584 383.856 15.992C383.248 17.4 382.16 18.536 380.592 19.4L385.872 35H380.688L376.128 20.408H373.2V35H368.304ZM398.63 23.048L396.23 10.664H396.134L393.734 23.048H398.63ZM386.534 35L394.166 0.823999H398.246L405.878 35H400.982L399.542 27.656H392.87L391.43 35H386.534ZM408.288 35V0.823999H412.992L419.28 18.92H419.376L425.616 0.823999H430.368V35H425.472V14.216H425.376L420.528 28.904H418.08L413.28 14.216H413.184V35H408.288ZM12.192 65.048L9.792 52.664H9.696L7.296 65.048H12.192ZM0.096 77L7.728 42.824H11.808L19.44 77H14.544L13.104 69.656H6.432L4.992 77H0.096ZM30.7571 77V42.824H45.3491V47.432H35.6531V57.464H44.1011V62.072H35.6531V72.104H45.3491V77H30.7571ZM46.1227 77L53.0348 59.096L46.6508 42.824H51.8348L55.5308 52.952L59.2748 42.824H64.4588L57.9308 59.096L64.9868 77H59.8028L55.5308 65.48L51.3068 77H46.1227ZM67.179 77V42.824H74.523C75.867 42.824 77.051 43 78.075 43.352C79.099 43.704 80.027 44.328 80.859 45.224C81.691 46.12 82.267 47.176 82.587 48.392C82.907 49.576 83.067 51.192 83.067 53.24C83.067 54.776 82.971 56.072 82.779 57.128C82.619 58.184 82.251 59.176 81.675 60.104C81.003 61.224 80.107 62.104 78.987 62.744C77.867 63.352 76.395 63.656 74.571 63.656H72.075V77H67.179ZM72.075 47.432V59.048H74.427C75.419 59.048 76.187 58.904 76.731 58.616C77.275 58.328 77.675 57.928 77.931 57.416C78.187 56.936 78.331 56.344 78.363 55.64C78.427 54.936 78.459 54.152 78.459 53.288C78.459 52.488 78.443 51.736 78.411 51.032C78.379 50.296 78.235 49.656 77.979 49.112C77.723 48.568 77.339 48.152 76.827 47.864C76.315 47.576 75.579 47.432 74.619 47.432H72.075ZM86.7259 77V42.824H101.318V47.432H91.6219V57.464H100.07V62.072H91.6219V72.104H101.318V77H86.7259ZM109.388 47.432V58.088H112.172C113.036 58.088 113.724 57.976 114.236 57.752C114.748 57.496 115.148 57.144 115.436 56.696C115.692 56.248 115.868 55.704 115.964 55.064C116.06 54.392 116.108 53.624 116.108 52.76C116.108 51.896 116.06 51.144 115.964 50.504C115.868 49.832 115.676 49.256 115.388 48.776C114.78 47.88 113.628 47.432 111.932 47.432H109.388ZM104.492 77V42.824H112.364C118.124 42.824 121.004 46.168 121.004 52.856C121.004 54.872 120.684 56.584 120.044 57.992C119.436 59.4 118.348 60.536 116.78 61.4L122.06 77H116.876L112.316 62.408H109.388V77H104.492ZM125.073 77V42.824H129.969V77H125.073ZM134.726 77V42.824H149.318V47.432H139.622V57.464H148.07V62.072H139.622V72.104H149.318V77H134.726ZM134.822 41.288L139.526 34.52H144.038L148.742 41.288H144.998L141.782 36.728L138.566 41.288H134.822ZM152.3 77V42.824H157.004L164.396 63.416H164.492V42.824H169.388V77H164.78L157.292 56.456H157.196V77H152.3ZM189.372 67.256V69.368C189.372 70.424 189.164 71.432 188.748 72.392C188.364 73.32 187.82 74.152 187.116 74.888C186.412 75.624 185.58 76.216 184.62 76.664C183.692 77.08 182.684 77.288 181.596 77.288C180.668 77.288 179.724 77.16 178.764 76.904C177.804 76.648 176.94 76.2 176.172 75.56C175.404 74.92 174.764 74.104 174.252 73.112C173.772 72.088 173.532 70.792 173.532 69.224V50.408C173.532 49.288 173.724 48.248 174.108 47.288C174.492 46.328 175.036 45.496 175.74 44.792C176.444 44.088 177.276 43.544 178.236 43.16C179.228 42.744 180.316 42.536 181.5 42.536C183.804 42.536 185.676 43.288 187.116 44.792C187.82 45.528 188.364 46.408 188.748 47.432C189.164 48.424 189.372 49.512 189.372 50.696V52.616H184.476V50.984C184.476 50.024 184.204 49.192 183.66 48.488C183.116 47.784 182.38 47.432 181.452 47.432C180.236 47.432 179.42 47.816 179.004 48.584C178.62 49.32 178.428 50.264 178.428 51.416V68.888C178.428 69.88 178.636 70.712 179.052 71.384C179.5 72.056 180.284 72.392 181.404 72.392C181.724 72.392 182.06 72.344 182.412 72.248C182.796 72.12 183.148 71.928 183.468 71.672C183.756 71.416 183.996 71.064 184.188 70.616C184.38 70.168 184.476 69.608 184.476 68.936V67.256H189.372ZM193.511 77V42.824H198.407V77H193.511ZM213.051 65.048L210.651 52.664H210.555L208.155 65.048H213.051ZM200.955 77L208.587 42.824H212.667L220.299 77H215.403L213.963 69.656H207.291L205.851 77H200.955ZM231.617 77V42.824H238.865C241.681 42.824 243.809 43.592 245.249 45.128C246.721 46.664 247.457 48.84 247.457 51.656V67.64C247.457 70.84 246.673 73.208 245.105 74.744C243.569 76.248 241.345 77 238.433 77H231.617ZM236.513 47.432V72.392H238.769C240.145 72.392 241.121 72.056 241.697 71.384C242.273 70.68 242.561 69.592 242.561 68.12V51.656C242.561 50.312 242.289 49.272 241.745 48.536C241.201 47.8 240.209 47.432 238.769 47.432H236.513ZM261.38 65.048L258.98 52.664H258.884L256.484 65.048H261.38ZM249.284 77L256.916 42.824H260.996L268.628 77H263.732L262.292 69.656H255.62L254.18 77H249.284ZM295.785 42.824V69.32C295.785 70.44 295.577 71.48 295.161 72.44C294.777 73.368 294.217 74.2 293.481 74.936C292.745 75.672 291.897 76.248 290.937 76.664C289.977 77.08 288.953 77.288 287.865 77.288C286.777 77.288 285.753 77.08 284.793 76.664C283.865 76.248 283.033 75.672 282.297 74.936C281.561 74.2 280.985 73.368 280.569 72.44C280.153 71.48 279.945 70.44 279.945 69.32V42.824H284.841V68.84C284.841 70.056 285.129 70.952 285.705 71.528C286.281 72.104 287.001 72.392 287.865 72.392C288.729 72.392 289.449 72.104 290.025 71.528C290.601 70.952 290.889 70.056 290.889 68.84V42.824H295.785ZM284.745 41.288L289.065 34.52H294.249L287.913 41.288H284.745ZM300.382 77V42.824H305.278V72.104H314.974V77H300.382ZM317.801 77V47.432H312.137V42.824H328.361V47.432H322.697V77H317.801ZM330.667 77V42.824H335.563V77H330.667ZM340.32 77V42.824H345.024L351.312 60.92H351.408L357.648 42.824H362.4V77H357.504V56.216H357.408L352.56 70.904H350.112L345.312 56.216H345.216V77H340.32ZM376.88 65.048L374.48 52.664H374.384L371.984 65.048H376.88ZM364.784 77L372.416 42.824H376.496L384.128 77H379.232L377.792 69.656H371.12L369.68 77H364.784ZM2.304 119V84.824H16.896V89.432H7.2V99.464H15.648V104.072H7.2V114.104H16.896V119H2.304ZM20.0696 119V84.824H27.3176C30.1336 84.824 32.2616 85.592 33.7016 87.128C35.1736 88.664 35.9096 90.84 35.9096 93.656V109.64C35.9096 112.84 35.1256 115.208 33.5576 116.744C32.0216 118.248 29.7976 119 26.8856 119H20.0696ZM24.9656 89.432V114.392H27.2216C28.5976 114.392 29.5736 114.056 30.1496 113.384C30.7256 112.68 31.0136 111.592 31.0136 110.12V93.656C31.0136 92.312 30.7416 91.272 30.1976 90.536C29.6536 89.8 28.6616 89.432 27.2216 89.432H24.9656ZM40.6511 119V84.824H45.5471V119H40.6511ZM54.288 123.128L57.216 119.288C56.352 119.224 55.488 119.032 54.624 118.712C53.76 118.392 52.992 117.912 52.32 117.272C51.616 116.632 51.056 115.832 50.64 114.872C50.224 113.88 50.016 112.664 50.016 111.224V92.408C50.016 91.288 50.208 90.248 50.592 89.288C50.976 88.328 51.52 87.496 52.224 86.792C52.928 86.088 53.76 85.544 54.72 85.16C55.712 84.744 56.8 84.536 57.984 84.536C60.288 84.536 62.16 85.288 63.6 86.792C64.304 87.528 64.848 88.408 65.232 89.432C65.648 90.424 65.856 91.512 65.856 92.696V94.616H60.96V92.984C60.96 92.024 60.688 91.192 60.144 90.488C59.6 89.784 58.864 89.432 57.936 89.432C56.72 89.432 55.904 89.816 55.488 90.584C55.104 91.32 54.912 92.264 54.912 93.416V110.888C54.912 111.88 55.12 112.712 55.536 113.384C55.984 114.056 56.768 114.392 57.888 114.392C58.208 114.392 58.544 114.344 58.896 114.248C59.28 114.12 59.632 113.928 59.952 113.672C60.24 113.416 60.48 113.064 60.672 112.616C60.864 112.168 60.96 111.608 60.96 110.936V109.256H65.856V111.368C65.856 112.296 65.696 113.192 65.376 114.056C65.056 114.92 64.624 115.704 64.08 116.408C63.504 117.112 62.816 117.704 62.016 118.184C61.248 118.664 60.4 119 59.472 119.192L57.408 121.88C57.664 121.848 57.904 121.816 58.128 121.784C58.384 121.784 58.64 121.784 58.896 121.784C59.696 121.784 60.352 121.896 60.864 122.12C61.376 122.344 61.792 122.632 62.112 122.984C62.432 123.368 62.656 123.768 62.784 124.184C62.912 124.6 62.976 125 62.976 125.384C62.976 126.152 62.784 126.808 62.4 127.352C62.048 127.928 61.584 128.392 61.008 128.744C60.432 129.096 59.792 129.352 59.088 129.512C58.416 129.672 57.744 129.752 57.072 129.752C56.144 129.752 55.28 129.64 54.48 129.416C53.68 129.192 53.056 129 52.608 128.84L53.424 126.824C53.936 127.016 54.448 127.176 54.96 127.304C55.472 127.464 56 127.544 56.544 127.544C56.8 127.544 57.072 127.512 57.36 127.448C57.68 127.416 57.968 127.32 58.224 127.16C58.832 126.84 59.136 126.312 59.136 125.576C59.136 125.032 58.912 124.584 58.464 124.232C58.016 123.912 57.52 123.752 56.976 123.752C56.272 123.752 55.648 123.864 55.104 124.088L54.288 123.128ZM79.7389 107.048L77.3389 94.664H77.2429L74.8429 107.048H79.7389ZM67.6429 119L75.2749 84.824H79.3549L86.9869 119H82.0909L80.6509 111.656H73.9789L72.5389 119H67.6429ZM85.4989 77.288C85.3389 78.024 85.1469 78.712 84.9229 79.352C84.6989 79.992 84.3949 80.552 84.0109 81.032C83.6269 81.512 83.1629 81.896 82.6189 82.184C82.0749 82.472 81.4189 82.616 80.6509 82.616C80.2669 82.616 79.7389 82.52 79.0669 82.328C78.4269 82.136 77.7549 81.912 77.0509 81.656C76.6989 81.528 76.3629 81.416 76.0429 81.32C75.7229 81.224 75.4029 81.112 75.0829 80.984C74.4429 80.792 73.9949 80.696 73.7389 80.696C73.0669 80.696 72.5549 80.904 72.2029 81.32C71.8509 81.704 71.6589 82.216 71.6269 82.856H69.1789C69.4349 81.288 69.9309 80.04 70.6669 79.112C71.0509 78.632 71.5149 78.248 72.0589 77.96C72.6029 77.672 73.2589 77.528 74.0269 77.528C74.4109 77.528 74.9229 77.624 75.5629 77.816C76.2349 78.008 76.9229 78.232 77.6269 78.488C78.3309 78.744 78.9869 78.968 79.5949 79.16C80.2349 79.352 80.6829 79.448 80.9389 79.448C81.6109 79.448 82.1229 79.256 82.4749 78.872C82.8269 78.456 83.0189 77.928 83.0509 77.288H85.4989ZM89.1098 92.888C89.1098 91.512 89.3498 90.296 89.8298 89.24C90.3098 88.184 90.9498 87.304 91.7498 86.6C92.5178 85.928 93.3818 85.416 94.3418 85.064C95.3338 84.712 96.3258 84.536 97.3178 84.536C98.3098 84.536 99.2858 84.712 100.246 85.064C101.238 85.416 102.134 85.928 102.934 86.6C103.702 87.304 104.326 88.184 104.806 89.24C105.286 90.296 105.526 91.512 105.526 92.888V110.936C105.526 112.376 105.286 113.608 104.806 114.632C104.326 115.656 103.702 116.504 102.934 117.176C102.134 117.88 101.238 118.408 100.246 118.76C99.2858 119.112 98.3098 119.288 97.3178 119.288C96.3258 119.288 95.3338 119.112 94.3418 118.76C93.3818 118.408 92.5178 117.88 91.7498 117.176C90.9498 116.504 90.3098 115.656 89.8298 114.632C89.3498 113.608 89.1098 112.376 89.1098 110.936V92.888ZM94.0058 110.936C94.0058 112.12 94.3258 113 94.9658 113.576C95.6378 114.12 96.4218 114.392 97.3178 114.392C98.2138 114.392 98.9818 114.12 99.6218 113.576C100.294 113 100.63 112.12 100.63 110.936V92.888C100.63 91.704 100.294 90.84 99.6218 90.296C98.9818 89.72 98.2138 89.432 97.3178 89.432C96.4218 89.432 95.6378 89.72 94.9658 90.296C94.3258 90.84 94.0058 91.704 94.0058 92.888V110.936ZM118.886 119V84.824H123.782V119H118.886ZM128.346 119V84.824H133.05L140.442 105.416H140.538V84.824H145.434V119H140.826L133.338 98.456H133.242V119H128.346ZM165.419 109.256V111.368C165.419 112.424 165.211 113.432 164.795 114.392C164.411 115.32 163.867 116.152 163.163 116.888C162.459 117.624 161.627 118.216 160.667 118.664C159.739 119.08 158.731 119.288 157.643 119.288C156.715 119.288 155.771 119.16 154.811 118.904C153.851 118.648 152.987 118.2 152.219 117.56C151.451 116.92 150.811 116.104 150.299 115.112C149.819 114.088 149.579 112.792 149.579 111.224V92.408C149.579 91.288 149.771 90.248 150.155 89.288C150.539 88.328 151.083 87.496 151.787 86.792C152.491 86.088 153.323 85.544 154.283 85.16C155.275 84.744 156.363 84.536 157.547 84.536C159.851 84.536 161.723 85.288 163.163 86.792C163.867 87.528 164.411 88.408 164.795 89.432C165.211 90.424 165.419 91.512 165.419 92.696V94.616H160.523V92.984C160.523 92.024 160.251 91.192 159.707 90.488C159.163 89.784 158.427 89.432 157.499 89.432C156.283 89.432 155.467 89.816 155.051 90.584C154.667 91.32 154.475 92.264 154.475 93.416V110.888C154.475 111.88 154.683 112.712 155.099 113.384C155.547 114.056 156.331 114.392 157.451 114.392C157.771 114.392 158.107 114.344 158.459 114.248C158.843 114.12 159.195 113.928 159.515 113.672C159.803 113.416 160.043 113.064 160.234 112.616C160.427 112.168 160.523 111.608 160.523 110.936V109.256H165.419ZM174.309 89.432V100.088H177.093C177.957 100.088 178.645 99.976 179.157 99.752C179.669 99.496 180.069 99.144 180.357 98.696C180.613 98.248 180.789 97.704 180.885 97.064C180.981 96.392 181.029 95.624 181.029 94.76C181.029 93.896 180.981 93.144 180.885 92.504C180.789 91.832 180.597 91.256 180.309 90.776C179.701 89.88 178.549 89.432 176.853 89.432H174.309ZM169.413 119V84.824H177.285C183.045 84.824 185.925 88.168 185.925 94.856C185.925 96.872 185.605 98.584 184.965 99.992C184.357 101.4 183.269 102.536 181.701 103.4L186.981 119H181.797L177.237 104.408H174.309V119H169.413ZM189.995 119V84.824H194.891V119H189.995ZM189.323 83.288L193.643 76.52H198.827L192.491 83.288H189.323ZM216.256 84.824L209.248 119H204.928L197.968 84.824H203.152L207.04 108.68H207.136L211.072 84.824H216.256ZM219.195 119V84.824H233.787V89.432H224.091V99.464H232.539V104.072H224.091V114.104H233.787V119H219.195ZM236.96 119V84.824H241.856V114.104H251.552V119H236.96Z" fill="black"/>
</svg>
