<svg width="379" height="382" viewBox="0 0 379 382" fill="none" xmlns="http://www.w3.org/2000/svg">
<path d="M189.5 54.8745L0 381.984L379 382L189.5 54.8745Z" fill="#2500AD"/>
<path d="M187.912 272.958L251.961 382H123.863L187.912 272.958Z" fill="#F1F6F4"/>
<rect x="100.573" y="4.05884" width="163.034" height="132.332" fill="white"/>
<path d="M219.882 218.244L237.081 245.613H204.915L189.948 272.981L174.981 245.613H142.802L160.002 218.244L142.802 190.876H174.981L189.948 163.496L204.915 190.876H237.081L219.882 218.244Z" fill="#FF00FF"/>
<path d="M125.418 163.997L142.802 191.111H110.29L95.1624 218.239L80.022 191.111H47.5098L64.8941 163.997L47.5098 136.882H80.022L95.1624 109.767L110.29 136.882H142.802L125.418 163.997Z" fill="#FF9000"/>
<path d="M219.882 109.26L237.081 136.378H204.915L189.948 163.496L174.981 136.378H142.802L160.002 109.26L142.802 82.1423H174.981L189.948 55.0244L204.915 82.1423H237.081L219.882 109.26Z" fill="#FF9000"/>
<path d="M314.163 163.997L331.36 191.111H299.186L284.221 218.239L269.256 191.111H237.082L254.291 163.997L237.094 136.882H269.256L284.221 109.767L299.186 136.882H331.36L314.163 163.997Z" fill="#FF9000"/>
<path d="M125.418 55.0306L142.802 82.3988H110.29L95.1624 109.767L80.022 82.3988H47.5098L64.8941 55.0306L47.5098 27.6499H80.022L95.1624 0.281738L110.29 27.6499H142.802L125.418 55.0306Z" fill="#FF9000"/>
<path d="M314.161 55.0243L331.36 82.3956H299.194L284.215 109.767L269.248 82.3956H237.082L254.281 55.0243L237.082 27.653H269.248L284.215 0.281738L299.194 27.653H331.36L314.161 55.0243Z" fill="#FF9000"/>
</svg>
