<svg width="504" height="503" viewBox="0 0 504 503" fill="none" xmlns="http://www.w3.org/2000/svg">
<path d="M252 3.9009e-05L269.433 160.159L343.402 17.1244L301.95 172.786L422.466 66.1978L327.724 196.333L478.503 140.594L343.261 227.624L503.95 230.253L346.484 262.436L495.374 323.08L336.94 296.06L453.922 406.52L315.926 323.956L385.205 469.322L286.28 342.356L298.493 503L252 348.778L205.507 503L217.727 342.356L118.803 469.322L188.074 323.956L50.0777 406.52L167.059 296.06L8.63365 323.08L157.523 262.436L0.049859 230.253L160.738 227.624L25.4969 140.594L176.283 196.333L81.5335 66.1978L202.05 172.785L160.598 17.1244L234.567 160.159L252 3.9009e-05Z" fill="#FF9000"/>
<path d="M209.151 251.5L184.513 213.033L230.575 213.033L252 174.565L273.424 213.033L319.486 213.033L294.848 251.5L319.486 289.967L273.424 289.967L252 328.435L230.575 289.967L184.513 289.967L209.151 251.5Z" fill="#FF00FF"/>
</svg>
