<svg width="406" height="471" viewBox="0 0 406 471" fill="none" xmlns="http://www.w3.org/2000/svg">
<path d="M202.801 0L112.7 156.078L292.902 156.086L202.801 0Z" fill="#FF0000"/>
<path d="M103.745 295.856C103.745 295.554 103.729 295.252 103.721 294.95H172.32C172.32 295.252 172.328 295.554 172.328 295.856C172.328 361.39 119.208 414.526 53.6768 414.526V345.932C81.3292 345.932 103.745 323.513 103.745 295.864V295.856Z" fill="#2500AD"/>
<path d="M300.984 295.832C300.984 295.53 301 295.228 301.008 294.926H232.409C232.409 295.228 232.401 295.53 232.401 295.832C232.401 361.366 285.521 414.502 351.052 414.502V345.909C323.4 345.909 300.992 323.489 300.992 295.84L300.984 295.832Z" fill="#2500AD"/>
<path d="M370.115 380.599L381.08 397.94H360.579L351.044 415.281L341.509 397.94H321.008L331.973 380.599L321.008 363.258H341.509L351.044 345.917L360.579 363.258H381.08L370.115 380.599Z" fill="#FF0000"/>
<path d="M221.435 277.466L232.393 294.807H211.9L202.364 312.148L192.829 294.807H172.328L183.286 277.466L172.328 260.125H192.829L202.364 242.776L211.9 260.125H232.393L221.435 277.466Z" fill="#FF00FF"/>
<path d="M72.7549 380.575L83.7126 397.916H63.2196L53.6842 415.257L44.141 397.916H23.6479L34.6056 380.575L23.6479 363.234H44.141L53.6842 345.893L63.2196 363.234H83.7126L72.7549 380.575Z" fill="#FF0000"/>
<path d="M202.364 312.275L270.089 429.602H134.64L202.364 312.275Z" fill="#A00059"/>
<path d="M204.001 471L200.823 441.881L187.346 467.885L194.895 439.584L172.94 458.96L190.199 435.3L162.721 445.433L187.37 429.61L158.088 429.133L186.782 423.284L159.654 412.261L188.522 417.173L167.203 397.09L192.352 412.102L179.726 385.669L197.755 408.756L195.53 379.55L204.001 407.588L212.472 379.55L210.247 408.756L228.276 385.669L215.65 412.102L240.799 397.09L219.48 417.173L248.348 412.261L221.22 423.284L249.914 429.133L220.632 429.61L245.273 445.433L217.795 435.3L235.062 458.96L213.099 439.584L220.656 467.885L207.179 441.881L204.001 471Z" fill="#FF00FF"/>
<path d="M202.436 103.943L232.536 156.086H172.336L202.436 103.943Z" fill="black"/>
<path d="M161.371 242.784L172.328 260.125H151.835L142.3 277.474L132.757 260.125H112.264L123.221 242.784L112.264 225.443H132.757L142.3 208.101L151.835 225.443H172.328L161.371 242.784Z" fill="#FF9000"/>
<path d="M221.435 208.101L232.393 225.443H211.9L202.364 242.784L192.829 225.443H172.328L183.286 208.101L172.328 190.76H192.829L202.364 173.419L211.9 190.76H232.393L221.435 208.101Z" fill="#FF9000"/>
<path d="M281.507 242.784L292.465 260.125H271.964L262.429 277.474L252.894 260.125H232.393L243.358 242.784L232.401 225.443H252.894L262.429 208.101L271.964 225.443H292.465L281.507 242.784Z" fill="#FF9000"/>
<path d="M161.371 173.419L172.328 190.76H151.835L142.3 208.101L132.757 190.76H112.264L123.221 173.419L112.264 156.07H132.757L142.3 138.729L151.835 156.07H172.328L161.371 173.419Z" fill="#FF9000"/>
<path d="M281.634 173.427L292.592 190.768H272.099L262.556 208.109L253.02 190.768H232.527L243.485 173.427L232.527 156.086H253.02L262.556 138.745L272.099 156.086H292.592L281.634 173.427Z" fill="#FF9000"/>
<path d="M104.993 190.164V294.95H0.223145C0.223145 237.117 47.1688 190.164 104.993 190.164Z" fill="#005C00"/>
<path d="M104.992 246.002V294.95H56.0522C56.0522 267.929 77.9835 246.002 104.992 246.002Z" fill="#FF00FF"/>
<path d="M405.777 294.926H301.007V190.14C358.831 190.14 405.777 237.093 405.777 294.926Z" fill="#005C00"/>
<path d="M349.948 294.926H301.008V245.979C328.024 245.979 349.948 267.913 349.948 294.926Z" fill="#FF00FF"/>
</svg>
