<svg width="55" height="55" viewBox="0 0 55 55" fill="none" xmlns="http://www.w3.org/2000/svg">
<circle cx="27.5" cy="27.5" r="26.5" fill="#2500AD" stroke="white" stroke-width="2"/>
<path d="M27.5 18.763C29.1615 18.763 30.5078 20.1094 30.5078 21.7709C30.5078 23.4323 29.1615 24.7787 27.5 24.7787C25.8386 24.7787 24.4922 23.4323 24.4922 21.7709C24.4922 20.1094 25.8386 18.763 27.5 18.763ZM27.5 31.6537C31.7539 31.6537 36.237 33.7448 36.237 34.6615V36.237H18.763V34.6615C18.763 33.7448 23.2461 31.6537 27.5 31.6537ZM27.5 16.0417C24.3347 16.0417 21.7709 18.6055 21.7709 21.7709C21.7709 24.9362 24.3347 27.5 27.5 27.5C30.6654 27.5 33.2292 24.9362 33.2292 21.7709C33.2292 18.6055 30.6654 16.0417 27.5 16.0417ZM27.5 28.9323C23.6758 28.9323 16.0417 30.8516 16.0417 34.6615V38.9584H38.9584V34.6615C38.9584 30.8516 31.3242 28.9323 27.5 28.9323Z" fill="white"/>
</svg>
