<svg width="20" height="20" viewBox="0 0 20 20" fill="none" xmlns="http://www.w3.org/2000/svg">
<rect x="0.345703" width="19.3208" height="19.3208" rx="9.66038" fill="#E5E5E5"/>
<g clip-path="url(#clip0_949_1786)">
<path d="M10.006 5.70065C11.2965 5.70065 11.4479 5.70641 11.958 5.72942C12.4297 5.75051 12.6847 5.82913 12.8554 5.89624C13.0817 5.98444 13.2427 6.08799 13.4115 6.25673C13.5802 6.42547 13.6857 6.58654 13.772 6.81281C13.8371 6.98346 13.9177 7.23849 13.9388 7.7102C13.9618 8.22025 13.9675 8.37174 13.9675 9.66221C13.9675 10.9527 13.9618 11.1042 13.9388 11.6142C13.9177 12.0859 13.8391 12.341 13.772 12.5116C13.6837 12.7379 13.5802 12.899 13.4115 13.0677C13.2427 13.2364 13.0817 13.3419 12.8554 13.4282C12.6847 13.4934 12.4297 13.5739 11.958 13.595C11.4479 13.618 11.2965 13.6238 10.006 13.6238C8.71549 13.6238 8.56401 13.618 8.05395 13.595C7.58225 13.5739 7.32722 13.4953 7.15656 13.4282C6.9303 13.34 6.76923 13.2364 6.60049 13.0677C6.43175 12.899 6.32628 12.7379 6.24 12.5116C6.1748 12.341 6.09427 12.0859 6.07317 11.6142C6.05016 11.1042 6.04441 10.9527 6.04441 9.66221C6.04441 8.37174 6.05016 8.22025 6.07317 7.7102C6.09427 7.23849 6.17288 6.98346 6.24 6.81281C6.3282 6.58654 6.43175 6.42547 6.60049 6.25673C6.76923 6.08799 6.9303 5.98253 7.15656 5.89624C7.32722 5.83104 7.58225 5.75051 8.05395 5.72942C8.56401 5.70449 8.71741 5.70065 10.006 5.70065ZM10.006 4.83011C8.6944 4.83011 8.5295 4.83586 8.01369 4.85887C7.4998 4.88188 7.14889 4.96433 6.84209 5.08322C6.52379 5.20594 6.25534 5.37276 5.98689 5.64121C5.71843 5.90966 5.55353 6.18003 5.42889 6.49642C5.31001 6.80322 5.22755 7.15412 5.20454 7.66993C5.18153 8.18382 5.17578 8.34873 5.17578 9.6603C5.17578 10.9719 5.18153 11.1368 5.20454 11.6526C5.22755 12.1665 5.31001 12.5174 5.42889 12.8261C5.55161 13.1444 5.71843 13.4128 5.98689 13.6813C6.25534 13.9497 6.5257 14.1147 6.84209 14.2393C7.14889 14.3582 7.4998 14.4406 8.0156 14.4636C8.53141 14.4867 8.6944 14.4924 10.0079 14.4924C11.3214 14.4924 11.4844 14.4867 12.0002 14.4636C12.5141 14.4406 12.865 14.3582 13.1737 14.2393C13.492 14.1166 13.7604 13.9497 14.0289 13.6813C14.2973 13.4128 14.4623 13.1425 14.5869 12.8261C14.7058 12.5193 14.7882 12.1684 14.8112 11.6526C14.8342 11.1368 14.84 10.9738 14.84 9.6603C14.84 8.34681 14.8342 8.18382 14.8112 7.66801C14.7882 7.15412 14.7058 6.80322 14.5869 6.4945C14.4642 6.1762 14.2973 5.90774 14.0289 5.63929C13.7604 5.37084 13.4901 5.20594 13.1737 5.0813C12.8669 4.96242 12.516 4.87996 12.0002 4.85695C11.4825 4.83586 11.3175 4.83011 10.006 4.83011Z" fill="white"/>
<path d="M10.006 5.70065C11.2965 5.70065 11.4479 5.70641 11.958 5.72942C12.4297 5.75051 12.6847 5.82913 12.8554 5.89624C13.0817 5.98444 13.2427 6.08799 13.4115 6.25673C13.5802 6.42547 13.6857 6.58654 13.772 6.81281C13.8371 6.98346 13.9177 7.23849 13.9388 7.7102C13.9618 8.22025 13.9675 8.37174 13.9675 9.66221C13.9675 10.9527 13.9618 11.1042 13.9388 11.6142C13.9177 12.0859 13.8391 12.341 13.772 12.5116C13.6837 12.7379 13.5802 12.899 13.4115 13.0677C13.2427 13.2364 13.0817 13.3419 12.8554 13.4282C12.6847 13.4934 12.4297 13.5739 11.958 13.595C11.4479 13.618 11.2965 13.6238 10.006 13.6238C8.71549 13.6238 8.56401 13.618 8.05395 13.595C7.58225 13.5739 7.32722 13.4953 7.15656 13.4282C6.9303 13.34 6.76923 13.2364 6.60049 13.0677C6.43175 12.899 6.32628 12.7379 6.24 12.5116C6.1748 12.341 6.09427 12.0859 6.07317 11.6142C6.05016 11.1042 6.04441 10.9527 6.04441 9.66221C6.04441 8.37174 6.05016 8.22025 6.07317 7.7102C6.09427 7.23849 6.17288 6.98346 6.24 6.81281C6.3282 6.58654 6.43175 6.42547 6.60049 6.25673C6.76923 6.08799 6.9303 5.98253 7.15656 5.89624C7.32722 5.83104 7.58225 5.75051 8.05395 5.72942C8.56401 5.70449 8.71741 5.70065 10.006 5.70065Z" fill="white"/>
<path d="M10.0057 7.18097C8.63657 7.18097 7.52441 8.2912 7.52441 9.66222C7.52441 11.0332 8.63465 12.1435 10.0057 12.1435C11.3767 12.1435 12.4869 11.0332 12.4869 9.66222C12.4869 8.2912 11.3767 7.18097 10.0057 7.18097ZM10.0057 11.271C9.11594 11.271 8.39496 10.55 8.39496 9.6603C8.39496 8.77058 9.11594 8.0496 10.0057 8.0496C10.8954 8.0496 11.6164 8.77058 11.6164 9.6603C11.6164 10.55 10.8954 11.271 10.0057 11.271Z" fill="#E5E5E5"/>
<path d="M12.5849 7.66034C12.9048 7.66034 13.164 7.40107 13.164 7.08125C13.164 6.76143 12.9048 6.50217 12.5849 6.50217C12.2651 6.50217 12.0059 6.76143 12.0059 7.08125C12.0059 7.40107 12.2651 7.66034 12.5849 7.66034Z" fill="#E5E5E5"/>
</g>
<defs>
<clipPath id="clip0_949_1786">
<rect width="9.66038" height="9.66038" fill="white" transform="translate(5.17578 4.83011)"/>
</clipPath>
</defs>
</svg>
