<svg width="20" height="20" viewBox="0 0 20 20" fill="none" xmlns="http://www.w3.org/2000/svg">
<rect width="19.3208" height="19.3208" rx="9.66038" fill="#E5E5E5"/>
<g clip-path="url(#clip0_949_1788)">
<path d="M13.7773 4.83011H5.5432C5.35407 4.83011 5.17268 4.90524 5.03895 5.03898C4.90521 5.17271 4.83008 5.3541 4.83008 5.54323V13.7774C4.83008 13.9665 4.90521 14.1479 5.03895 14.2816C5.17268 14.4154 5.35407 14.4905 5.5432 14.4905H13.7773C13.9665 14.4905 14.1479 14.4154 14.2816 14.2816C14.4153 14.1479 14.4905 13.9665 14.4905 13.7774V5.54323C14.4905 5.3541 14.4153 5.17271 14.2816 5.03898C14.1479 4.90524 13.9665 4.83011 13.7773 4.83011ZM7.70941 13.0595H6.257V8.44604H7.70941V13.0595ZM6.9822 7.80671C6.81744 7.80578 6.65666 7.75607 6.52013 7.66385C6.38361 7.57164 6.27746 7.44104 6.21509 7.28855C6.15271 7.13606 6.1369 6.96851 6.16966 6.80705C6.20242 6.64558 6.28228 6.49744 6.39915 6.38132C6.51602 6.26519 6.66467 6.18629 6.82634 6.15457C6.98801 6.12285 7.15546 6.13973 7.30754 6.20308C7.45963 6.26644 7.58954 6.37342 7.68088 6.51054C7.77222 6.64765 7.8209 6.80875 7.82077 6.97351C7.82232 7.08381 7.80166 7.19329 7.75999 7.29544C7.71833 7.39758 7.65654 7.49029 7.57828 7.56805C7.50003 7.6458 7.40692 7.707 7.30451 7.74801C7.2021 7.78901 7.09249 7.80897 6.9822 7.80671ZM13.0629 13.0636H11.6111V10.5431C11.6111 9.79984 11.2952 9.5704 10.8873 9.5704C10.4566 9.5704 10.0339 9.8951 10.0339 10.5619V13.0636H8.58152V8.4494H9.97825V9.08873H9.99704C10.1372 8.80495 10.6283 8.31992 11.3777 8.31992C12.1881 8.31992 13.0635 8.80093 13.0635 10.2097L13.0629 13.0636Z" fill="white"/>
</g>
<defs>
<clipPath id="clip0_949_1788">
<rect width="9.66038" height="9.66038" fill="white" transform="translate(4.83008 4.83011)"/>
</clipPath>
</defs>
</svg>
