<svg width="82" height="66" viewBox="0 0 82 66" fill="none" xmlns="http://www.w3.org/2000/svg">
<path d="M82 20.4875V15.5208H63.4462V29.3891H38.3032L31.3854 10.4994H27.0687L20.1235 29.3891H5.39366V0H0V34.7849H18.1431L14.8303 43.7961H20.4977L23.6919 34.7849H34.7713L37.9199 43.7961H43.5782L40.2745 34.7849H50.2404V52.7251C50.2404 57.6644 47.9953 60.3212 43.7425 60.4308C43.706 60.4308 40.822 60.4308 40.822 60.4308V66C40.822 66 43.7242 66 43.7607 66C51.2991 65.8813 55.6158 61.2433 55.6158 53.2364V34.7758H63.4462V48.8084H82V43.8417H68.8216V34.7758H81.1695V29.38H68.8216V20.4784H82V20.4875ZM25.5993 29.3891L29.2681 19.045L32.8821 29.3891H25.5993Z" fill="black"/>
</svg>
