<svg width="62" height="30" viewBox="0 0 62 30" fill="none" xmlns="http://www.w3.org/2000/svg">
<g clip-path="url(#clip0_76_482)">
<path d="M0 0V3.30909H7.87064V29.9751H13.7521V3.30909H21.758V0H0Z" fill="white"/>
<path d="M31.6915 0H25.8101V29.9751H31.6915V0Z" fill="white"/>
<path d="M48.4961 0H36.8179V29.9751H42.6983V18.6912H48.4951C54.716 18.6912 58.439 14.4407 58.439 9.34587C58.439 4.25105 54.716 0 48.4951 0H48.4961ZM47.3514 15.3821H42.6983V3.30909H47.3514C49.995 3.30909 52.4725 5.69907 52.4725 9.34587C52.4725 12.9927 49.995 15.3821 47.3514 15.3821Z" fill="white"/>
<path d="M22.7318 29.1163H16.8311V30.0006H22.7318V29.1163Z" fill="white"/>
<path d="M16.8311 26.1096H20.281L16.8311 27.3415V28.1858H22.7318V27.3015H19.2903L22.7151 26.0592L22.7318 26.053V25.2253H16.8311V26.1096Z" fill="white"/>
<path d="M22.2782 21.8871C22.1139 21.7706 21.9275 21.6886 21.7304 21.646C21.5035 21.595 21.2715 21.5701 21.0389 21.5717C20.8469 21.5704 20.655 21.5815 20.4645 21.6049C20.3069 21.6236 20.153 21.6658 20.008 21.7302C19.8772 21.7986 19.7614 21.8924 19.6675 22.0061C19.5583 22.1433 19.4724 22.2974 19.4132 22.4622L19.1583 23.0997C19.1251 23.1884 19.082 23.2731 19.0299 23.3522C18.9921 23.4083 18.9414 23.4546 18.8821 23.4873C18.8213 23.5195 18.7548 23.5393 18.6862 23.5455C18.5917 23.5548 18.4967 23.559 18.4016 23.558C18.3081 23.5581 18.2148 23.5499 18.1228 23.5336C18.0404 23.5197 17.9614 23.4906 17.8898 23.4478C17.8265 23.405 17.7731 23.3492 17.7332 23.2842C17.6884 23.2032 17.6669 23.1115 17.671 23.0192C17.671 22.8114 17.7358 22.6732 17.8695 22.5874C18.014 22.4974 18.182 22.4517 18.3525 22.456H18.5667V21.5727H18.1306C17.9591 21.5731 17.7894 21.6071 17.6313 21.673C17.4731 21.7388 17.3295 21.835 17.2088 21.9562C17.0785 22.0875 16.9737 22.2416 16.8997 22.4108C16.82 22.593 16.78 22.7899 16.7822 22.9885C16.7768 23.2104 16.8212 23.4307 16.9122 23.6333C16.9926 23.806 17.1114 23.9582 17.2595 24.0786C17.4116 24.2046 17.5881 24.2982 17.7781 24.3534C17.983 24.4147 18.196 24.4453 18.41 24.4444C18.7792 24.4444 19.0915 24.3815 19.3375 24.2578C19.5835 24.1342 19.7876 23.8853 19.937 23.5216L20.1835 22.9252C20.218 22.8405 20.2585 22.7584 20.3047 22.6794C20.3393 22.6221 20.3867 22.5734 20.4431 22.537C20.5146 22.5019 20.5922 22.4807 20.6718 22.4747C20.7966 22.4625 20.9219 22.4569 21.0473 22.4581C21.1784 22.4581 21.2985 22.4622 21.4024 22.4705C21.4951 22.4755 21.5855 22.5009 21.6672 22.5448C21.7386 22.5851 21.7966 22.6455 21.8338 22.7184C21.8771 22.8179 21.8971 22.9259 21.8923 23.0343C21.8923 23.2369 21.8338 23.3829 21.7178 23.4676C21.6023 23.5526 21.4621 23.598 21.3183 23.5969H21.0295V24.4802H21.3674C21.5588 24.4819 21.7485 24.4437 21.9241 24.368C22.0909 24.295 22.2426 24.192 22.3717 24.064C22.5021 23.933 22.6046 23.7771 22.673 23.6058C22.7459 23.424 22.7826 23.2299 22.7811 23.0343C22.788 22.7976 22.7423 22.5624 22.6474 22.3453C22.5644 22.1641 22.4375 22.0061 22.2782 21.8855" fill="white"/>
<path d="M22.7318 19.8882H16.8311V20.7725H22.7318V19.8882Z" fill="white"/>
<path d="M22.4135 16.5788C22.29 16.4407 22.1388 16.3299 21.9696 16.2535C21.767 16.1653 21.5473 16.1225 21.3262 16.1283H19.4608V17.6751H20.2509V17.0126H21.3262C21.52 17.0126 21.6641 17.0646 21.755 17.1716C21.8438 17.2784 21.8924 17.4128 21.8924 17.5514C21.8924 17.69 21.8438 17.8244 21.755 17.9312C21.6646 18.0351 21.5205 18.0902 21.3262 18.0902H18.2372C18.0434 18.0902 17.8993 18.0382 17.8089 17.9312C17.7201 17.8244 17.6715 17.69 17.6715 17.5514C17.6715 17.4128 17.7201 17.2784 17.8089 17.1716C17.8993 17.0677 18.0434 17.0126 18.2372 17.0126H18.5583V16.1294H18.2372C18.0189 16.1253 17.8023 16.168 17.6021 16.2546C17.4282 16.3311 17.2715 16.4417 17.1415 16.5798C17.0259 16.7168 16.9354 16.873 16.8741 17.0412C16.7516 17.3711 16.7516 17.7338 16.8741 18.0637C16.9339 18.2303 17.0248 18.3842 17.142 18.5173C17.2698 18.6598 17.4266 18.7735 17.6021 18.8508C17.8025 18.9369 18.019 18.9794 18.2372 18.9755H21.3262C21.5472 18.9812 21.7669 18.9386 21.9696 18.8508C22.1402 18.7735 22.2915 18.6598 22.413 18.5178C22.5349 18.3864 22.6291 18.232 22.6898 18.0637C22.8116 17.7336 22.8116 17.3712 22.6898 17.0412C22.6278 16.8714 22.5341 16.7149 22.4135 16.5798" fill="white"/>
<path d="M22.7318 13.3756V12.4908H16.8311V13.3756H19.3373V14.355H16.8311V15.2393H22.7318V14.355H20.1279V13.3756H22.7318Z" fill="white"/>
<path d="M22.7318 10.1204H17.6713V9.15613H16.8311V11.9696H17.6713V11.0053H22.7318V10.1204Z" fill="white"/>
<path d="M17.2595 8.3919C17.4117 8.51761 17.5882 8.61097 17.7781 8.66623C17.983 8.72779 18.196 8.75844 18.41 8.75715C18.7792 8.75715 19.0915 8.69481 19.3375 8.57063C19.5835 8.44646 19.7876 8.19811 19.937 7.83441L20.1835 7.23951C20.218 7.15487 20.2585 7.07274 20.3047 6.99376C20.3395 6.93658 20.3868 6.88793 20.4431 6.8514C20.5148 6.81679 20.5923 6.79565 20.6718 6.78905C20.7962 6.77676 20.9212 6.77103 21.0462 6.77191C21.1789 6.77191 21.2985 6.77606 21.4014 6.78438C21.494 6.78942 21.5844 6.81461 21.6661 6.85816C21.7376 6.89871 21.7955 6.95923 21.8327 7.03221C21.8766 7.13267 21.8966 7.24183 21.8912 7.35122C21.8912 7.55437 21.8327 7.69985 21.7168 7.78453C21.6014 7.86995 21.4611 7.91555 21.3173 7.91442H21.0285V8.79768H21.3664C21.5578 8.79957 21.7476 8.76115 21.9231 8.68494C22.0898 8.61206 22.2415 8.5092 22.3706 8.38151C22.5008 8.25031 22.6033 8.0945 22.672 7.92326C22.7447 7.74147 22.7814 7.5474 22.7801 7.35174C22.7867 7.11512 22.7411 6.87994 22.6464 6.6628C22.5633 6.48171 22.4365 6.32391 22.2771 6.20351C22.1129 6.0868 21.9265 6.00459 21.7293 5.96191C21.5028 5.91132 21.2711 5.88674 21.0389 5.88865C20.8469 5.88758 20.655 5.89869 20.4645 5.92191C20.3071 5.94085 20.1534 5.98305 20.0086 6.04712C19.8777 6.11579 19.7618 6.20955 19.6675 6.32301C19.5582 6.46039 19.4723 6.61467 19.4132 6.7797L19.1583 7.41668C19.125 7.50531 19.0819 7.59 19.0299 7.66919C18.9921 7.72523 18.9414 7.77153 18.8821 7.80428C18.8214 7.83661 18.7548 7.85657 18.6862 7.86299C18.5916 7.87175 18.4966 7.87574 18.4016 7.87494C18.3081 7.87523 18.2148 7.86723 18.1228 7.85104C18.0406 7.83666 17.9616 7.80762 17.8898 7.76531C17.8263 7.72244 17.7729 7.66643 17.7332 7.60113C17.6883 7.52017 17.6668 7.42848 17.671 7.33615C17.671 7.13144 17.7358 6.99012 17.8695 6.9044C18.014 6.81485 18.1818 6.76933 18.352 6.77347H18.5672V5.88865H18.1306C17.9591 5.88901 17.7894 5.92307 17.6313 5.98887C17.4731 6.05467 17.3295 6.15092 17.2088 6.27209C17.0786 6.40304 16.9738 6.55682 16.8997 6.72567C16.8201 6.90807 16.7801 7.10511 16.7822 7.30394C16.7768 7.52564 16.8212 7.74574 16.9122 7.9482C16.9926 8.121 17.1113 8.27342 17.2595 8.39398" fill="white"/>
<path d="M57.7981 2.40078V0.352148H57.0288V0.0778198H58.8796V0.352148H58.1067V2.40078H57.7981Z" fill="white"/>
<path d="M59.1865 2.40078V0.0778198H59.6518L60.2044 1.72275C60.2555 1.8762 60.2928 1.99067 60.3161 2.06618C60.3422 1.98201 60.384 1.85836 60.4399 1.69418L60.9971 0.0778198H61.4149V2.40078H61.1172V0.456581L60.4383 2.40078H60.1615L59.4826 0.423328V2.40078H59.1865Z" fill="white"/>
</g>
<defs>
<clipPath id="clip0_76_482">
<rect width="61.4151" height="30" fill="white"/>
</clipPath>
</defs>
</svg>
