<svg width="596" height="1002" viewBox="0 0 596 1002" fill="none" xmlns="http://www.w3.org/2000/svg">
<path d="M382.656 152.017L431 228.009H340.587L298.518 304L256.448 228.009H166L214.344 152.017L166 76.0261H256.448L298.518 0L340.587 76.0261H431L382.656 152.017Z" fill="#FF00FF"/>
<path d="M298 304L596 820H0L298 304Z" fill="#A00059"/>
<path d="M298.5 1002L284.551 874.316L225.405 988.339L258.535 864.244L162.179 949.205L237.924 845.461L117.331 889.893L225.509 820.51L97 818.419L222.929 792.77L103.87 744.436L230.566 765.972L137 677.91L247.375 743.739L191.961 627.833L271.089 729.068L261.325 601L298.5 723.945L335.675 601L325.911 729.068L405.039 627.833L349.625 743.739L460 677.91L366.434 765.972L493.13 744.436L374.071 792.77L500 818.419L371.491 820.51L479.634 889.893L359.041 845.461L434.821 949.205L338.43 864.244L371.595 988.339L312.449 874.316L298.5 1002Z" fill="#FF9000"/>
</svg>
