<svg width="194" height="77" viewBox="0 0 194 77" fill="none" xmlns="http://www.w3.org/2000/svg">
<path d="M0.304 35V0.823999H7.648C8.992 0.823999 10.176 0.999999 11.2 1.352C12.224 1.704 13.152 2.328 13.984 3.224C14.816 4.12 15.392 5.176 15.712 6.392C16.032 7.576 16.192 9.192 16.192 11.24C16.192 12.776 16.096 14.072 15.904 15.128C15.744 16.184 15.376 17.176 14.8 18.104C14.128 19.224 13.232 20.104 12.112 20.744C10.992 21.352 9.52 21.656 7.696 21.656H5.2V35H0.304ZM5.2 5.432V17.048H7.552C8.544 17.048 9.312 16.904 9.856 16.616C10.4 16.328 10.8 15.928 11.056 15.416C11.312 14.936 11.456 14.344 11.488 13.64C11.552 12.936 11.584 12.152 11.584 11.288C11.584 10.488 11.568 9.736 11.536 9.032C11.504 8.296 11.36 7.656 11.104 7.112C10.848 6.568 10.464 6.152 9.952 5.864C9.44 5.576 8.704 5.432 7.744 5.432H5.2ZM24.7469 5.432V16.088H27.5309C28.3949 16.088 29.0829 15.976 29.5949 15.752C30.1069 15.496 30.5069 15.144 30.7949 14.696C31.0509 14.248 31.2269 13.704 31.3229 13.064C31.4189 12.392 31.4669 11.624 31.4669 10.76C31.4669 9.896 31.4189 9.144 31.3229 8.504C31.2269 7.832 31.0349 7.256 30.7469 6.776C30.1389 5.88 28.9869 5.432 27.2909 5.432H24.7469ZM19.8509 35V0.823999H27.7229C33.4829 0.823999 36.3629 4.168 36.3629 10.856C36.3629 12.872 36.0429 14.584 35.4029 15.992C34.7949 17.4 33.7069 18.536 32.1389 19.4L37.4189 35H32.2349L27.6749 20.408H24.7469V35H19.8509ZM40.0004 8.888C40.0004 7.512 40.2404 6.296 40.7204 5.24C41.2004 4.184 41.8404 3.304 42.6404 2.6C43.4084 1.928 44.2724 1.416 45.2324 1.064C46.2244 0.711998 47.2164 0.535997 48.2084 0.535997C49.2004 0.535997 50.1764 0.711998 51.1364 1.064C52.1284 1.416 53.0244 1.928 53.8244 2.6C54.5924 3.304 55.2164 4.184 55.6964 5.24C56.1764 6.296 56.4164 7.512 56.4164 8.888V26.936C56.4164 28.376 56.1764 29.608 55.6964 30.632C55.2164 31.656 54.5924 32.504 53.8244 33.176C53.0244 33.88 52.1284 34.408 51.1364 34.76C50.1764 35.112 49.2004 35.288 48.2084 35.288C47.2164 35.288 46.2244 35.112 45.2324 34.76C44.2724 34.408 43.4084 33.88 42.6404 33.176C41.8404 32.504 41.2004 31.656 40.7204 30.632C40.2404 29.608 40.0004 28.376 40.0004 26.936V8.888ZM44.8964 26.936C44.8964 28.12 45.2164 29 45.8564 29.576C46.5284 30.12 47.3124 30.392 48.2084 30.392C49.1044 30.392 49.8724 30.12 50.5124 29.576C51.1844 29 51.5204 28.12 51.5204 26.936V8.888C51.5204 7.704 51.1844 6.84 50.5124 6.296C49.8724 5.72 49.1044 5.432 48.2084 5.432C47.3124 5.432 46.5284 5.72 45.8564 6.296C45.2164 6.84 44.8964 7.704 44.8964 8.888V26.936ZM72.1019 0.823999V26.936C72.1019 29.272 71.3659 31.224 69.8939 32.792C69.1579 33.56 68.2779 34.168 67.2539 34.616C66.2619 35.064 65.0939 35.288 63.7499 35.288C62.1819 35.288 60.8699 34.952 59.8139 34.28C58.7899 33.576 57.9739 32.888 57.3659 32.216L61.2059 29.144C61.5579 29.496 61.9579 29.8 62.4059 30.056C62.8859 30.28 63.3819 30.392 63.8939 30.392C64.1819 30.392 64.5179 30.344 64.9019 30.248C65.2859 30.12 65.6539 29.896 66.0059 29.576C66.3579 29.288 66.6459 28.888 66.8699 28.376C67.0939 27.832 67.2059 27.128 67.2059 26.264V0.823999H72.1019ZM76.7103 35V0.823999H91.3023V5.432H81.6063V15.464H90.0543V20.072H81.6063V30.104H91.3023V35H76.7103ZM97.6919 35V5.432H92.0279V0.823999H108.252V5.432H102.588V35H97.6919ZM109.563 8.888C109.563 7.512 109.803 6.296 110.283 5.24C110.763 4.184 111.403 3.304 112.203 2.6C112.971 1.928 113.835 1.416 114.795 1.064C115.787 0.711998 116.779 0.535997 117.771 0.535997C118.763 0.535997 119.739 0.711998 120.699 1.064C121.691 1.416 122.587 1.928 123.387 2.6C124.155 3.304 124.779 4.184 125.259 5.24C125.739 6.296 125.979 7.512 125.979 8.888V26.936C125.979 28.376 125.739 29.608 125.259 30.632C124.779 31.656 124.155 32.504 123.387 33.176C122.587 33.88 121.691 34.408 120.699 34.76C119.739 35.112 118.763 35.288 117.771 35.288C116.779 35.288 115.787 35.112 114.795 34.76C113.835 34.408 112.971 33.88 112.203 33.176C111.403 32.504 110.763 31.656 110.283 30.632C109.803 29.608 109.563 28.376 109.563 26.936V8.888ZM114.459 26.936C114.459 28.12 114.779 29 115.419 29.576C116.091 30.12 116.875 30.392 117.771 30.392C118.667 30.392 119.435 30.12 120.075 29.576C120.747 29 121.083 28.12 121.083 26.936V8.888C121.083 7.704 120.747 6.84 120.075 6.296C119.435 5.72 118.667 5.432 117.771 5.432C116.875 5.432 116.091 5.72 115.419 6.296C114.779 6.84 114.459 7.704 114.459 8.888V26.936ZM146.128 10.664H141.232V9.56C141.232 8.44 140.96 7.48 140.416 6.68C139.904 5.848 139.024 5.432 137.776 5.432C137.104 5.432 136.56 5.56 136.144 5.816C135.728 6.072 135.392 6.392 135.136 6.776C134.88 7.192 134.704 7.672 134.608 8.216C134.512 8.728 134.464 9.272 134.464 9.848C134.464 10.52 134.48 11.08 134.512 11.528C134.576 11.976 134.704 12.376 134.896 12.728C135.088 13.08 135.36 13.384 135.712 13.64C136.096 13.896 136.608 14.152 137.248 14.408L140.992 15.896C142.08 16.312 142.96 16.808 143.632 17.384C144.304 17.928 144.832 18.568 145.216 19.304C145.568 20.072 145.808 20.952 145.936 21.944C146.064 22.904 146.128 24.008 146.128 25.256C146.128 26.696 145.984 28.04 145.696 29.288C145.408 30.504 144.944 31.544 144.304 32.408C143.632 33.304 142.752 34.008 141.664 34.52C140.576 35.032 139.248 35.288 137.68 35.288C136.496 35.288 135.392 35.08 134.368 34.664C133.344 34.248 132.464 33.672 131.728 32.936C130.992 32.2 130.4 31.352 129.952 30.392C129.536 29.4 129.328 28.328 129.328 27.176V25.352H134.224V26.888C134.224 27.784 134.48 28.6 134.992 29.336C135.536 30.04 136.432 30.392 137.68 30.392C138.512 30.392 139.152 30.28 139.6 30.056C140.08 29.8 140.448 29.448 140.704 29C140.96 28.552 141.104 28.024 141.136 27.416C141.2 26.776 141.232 26.072 141.232 25.304C141.232 24.408 141.2 23.672 141.136 23.096C141.072 22.52 140.944 22.056 140.752 21.704C140.528 21.352 140.224 21.064 139.84 20.84C139.488 20.616 139.008 20.376 138.4 20.12L134.896 18.68C132.784 17.816 131.36 16.68 130.624 15.272C129.92 13.832 129.568 12.04 129.568 9.896C129.568 8.616 129.744 7.4 130.096 6.248C130.448 5.096 130.976 4.104 131.68 3.272C132.352 2.44 133.2 1.784 134.224 1.304C135.28 0.791998 136.528 0.535997 137.968 0.535997C139.184 0.535997 140.288 0.759997 141.28 1.208C142.304 1.656 143.184 2.248 143.92 2.984C145.392 4.52 146.128 6.28 146.128 8.264V10.664ZM158.695 35V0.823999H165.943C168.759 0.823999 170.887 1.592 172.327 3.128C173.799 4.664 174.535 6.84 174.535 9.656V25.64C174.535 28.84 173.751 31.208 172.183 32.744C170.647 34.248 168.423 35 165.511 35H158.695ZM163.591 5.432V30.392H165.847C167.223 30.392 168.199 30.056 168.775 29.384C169.351 28.68 169.639 27.592 169.639 26.12V9.656C169.639 8.312 169.367 7.272 168.823 6.536C168.279 5.8 167.287 5.432 165.847 5.432H163.591ZM179.132 35V0.823999H193.724V5.432H184.028V15.464H192.476V20.072H184.028V30.104H193.724V35H179.132ZM0.304 76V41.824H7.456C9.024 41.824 10.352 42.064 11.44 42.544C12.56 43.024 13.472 43.664 14.176 44.464C14.88 45.264 15.376 46.192 15.664 47.248C15.984 48.272 16.144 49.344 16.144 50.464V51.712C16.144 52.64 16.064 53.424 15.904 54.064C15.776 54.704 15.568 55.264 15.28 55.744C14.736 56.64 13.904 57.408 12.784 58.048C13.936 58.592 14.784 59.392 15.328 60.448C15.872 61.504 16.144 62.944 16.144 64.768V66.688C16.144 69.696 15.408 72 13.936 73.6C12.496 75.2 10.176 76 6.976 76H0.304ZM5.2 60.16V71.104H7.312C8.304 71.104 9.072 70.96 9.616 70.672C10.192 70.384 10.624 69.984 10.912 69.472C11.2 68.96 11.376 68.352 11.44 67.648C11.504 66.944 11.536 66.176 11.536 65.344C11.536 64.48 11.488 63.728 11.392 63.088C11.296 62.448 11.104 61.904 10.816 61.456C10.496 61.008 10.064 60.688 9.52 60.496C8.976 60.272 8.256 60.16 7.36 60.16H5.2ZM5.2 46.432V55.84H7.408C9.04 55.84 10.128 55.44 10.672 54.64C11.248 53.808 11.536 52.608 11.536 51.04C11.536 49.504 11.216 48.352 10.576 47.584C9.968 46.816 8.848 46.432 7.216 46.432H5.2ZM25.6375 46.432V57.088H28.4215C29.2855 57.088 29.9735 56.976 30.4855 56.752C30.9975 56.496 31.3975 56.144 31.6855 55.696C31.9415 55.248 32.1175 54.704 32.2135 54.064C32.3095 53.392 32.3575 52.624 32.3575 51.76C32.3575 50.896 32.3095 50.144 32.2135 49.504C32.1175 48.832 31.9255 48.256 31.6375 47.776C31.0295 46.88 29.8775 46.432 28.1815 46.432H25.6375ZM20.7415 76V41.824H28.6135C34.3735 41.824 37.2535 45.168 37.2535 51.856C37.2535 53.872 36.9335 55.584 36.2935 56.992C35.6855 58.4 34.5975 59.536 33.0295 60.4L38.3095 76H33.1255L28.5655 61.408H25.6375V76H20.7415ZM51.067 64.048L48.667 51.664H48.571L46.171 64.048H51.067ZM38.971 76L46.603 41.824H50.683L58.315 76H53.419L51.979 68.656H45.307L43.867 76H38.971ZM60.5339 76V41.824H65.2379L72.6299 62.416H72.7259V41.824H77.6219V76H73.0139L65.5259 55.456H65.4299V76H60.5339ZM82.054 76V41.824H89.302C92.118 41.824 94.246 42.592 95.686 44.128C97.158 45.664 97.894 47.84 97.894 50.656V66.64C97.894 69.84 97.11 72.208 95.542 73.744C94.006 75.248 91.782 76 88.87 76H82.054ZM86.95 46.432V71.392H89.206C90.582 71.392 91.558 71.056 92.134 70.384C92.71 69.68 92.998 68.592 92.998 67.12V50.656C92.998 49.312 92.726 48.272 92.182 47.536C91.638 46.8 90.646 46.432 89.206 46.432H86.95ZM102.636 76V41.824H107.532V76H102.636ZM112.096 76V41.824H116.8L124.192 62.416H124.288V41.824H129.184V76H124.576L117.088 55.456H116.992V76H112.096ZM133.329 49.888C133.329 48.512 133.569 47.296 134.049 46.24C134.529 45.184 135.169 44.304 135.969 43.6C136.737 42.928 137.601 42.416 138.561 42.064C139.553 41.712 140.545 41.536 141.537 41.536C142.529 41.536 143.505 41.712 144.465 42.064C145.457 42.416 146.353 42.928 147.153 43.6C147.921 44.304 148.545 45.184 149.025 46.24C149.505 47.296 149.745 48.512 149.745 49.888V51.616H144.849V49.888C144.849 48.704 144.513 47.84 143.841 47.296C143.201 46.72 142.433 46.432 141.537 46.432C140.641 46.432 139.857 46.72 139.185 47.296C138.545 47.84 138.225 48.704 138.225 49.888V67.936C138.225 69.12 138.545 70 139.185 70.576C139.857 71.12 140.641 71.392 141.537 71.392C142.433 71.392 143.201 71.12 143.841 70.576C144.513 70 144.849 69.12 144.849 67.936V61.504H140.961V57.184H149.745V67.936C149.745 69.376 149.505 70.608 149.025 71.632C148.545 72.656 147.921 73.504 147.153 74.176C146.353 74.88 145.457 75.408 144.465 75.76C143.505 76.112 142.529 76.288 141.537 76.288C140.545 76.288 139.553 76.112 138.561 75.76C137.601 75.408 136.737 74.88 135.969 74.176C135.169 73.504 134.529 72.656 134.049 71.632C133.569 70.608 133.329 69.376 133.329 67.936V49.888Z" fill="black"/>
</svg>
