<svg width="728" height="408" viewBox="0 0 728 408" fill="none" xmlns="http://www.w3.org/2000/svg">
<path d="M363.731 0.0199267L388.888 231.138L495.629 24.7313L435.811 249.358L609.723 95.5467L473.006 283.338L690.586 202.904L495.426 328.493L727.308 332.286L500.077 378.729L714.932 466.241L486.305 427.249L655.115 586.648L455.979 467.505L555.952 677.275L413.2 494.056L430.823 725.874L363.731 503.325L296.639 725.874L314.274 494.056L171.521 677.275L271.483 467.505L72.3474 586.648L241.158 427.249L12.5416 466.241L227.397 378.729L0.154697 332.286L232.036 328.493L36.8761 202.904L254.468 283.338L117.74 95.5467L291.651 249.358L231.834 24.7313L338.575 231.138L363.731 0.0199267Z" fill="#FF9000"/>
<path d="M301.899 362.947L266.345 307.437L332.815 307.437L363.732 251.926L394.648 307.437L461.118 307.437L425.564 362.947L461.118 418.457L394.648 418.457L363.732 473.968L332.815 418.457L266.345 418.457L301.899 362.947Z" fill="#FF00FF"/>
</svg>
