<svg width="555" height="429" viewBox="0 0 555 429" fill="none" xmlns="http://www.w3.org/2000/svg">
<rect width="554.027" height="421.905" fill="white"/>
<ellipse cx="203.481" cy="229.394" rx="22.1864" ry="22.8127" fill="#2500B3"/>
<path d="M229.749 57.5628L224.423 42.9228H221.647L216.322 57.5628H220.085L220.804 55.3833H225.307L225.986 57.5628H229.749ZM224.362 52.3812H221.812L223.128 48.4745L224.362 52.3812ZM240.016 56.7609V46.5006H236.746V47.4053C236.39 47.0489 236.027 46.7884 235.657 46.6239C235.286 46.4594 234.827 46.3772 234.279 46.3772C233.196 46.3772 232.326 46.7062 231.668 47.3641C231.215 47.8165 230.927 48.3374 230.804 48.9268C230.694 49.5163 230.64 50.4141 230.64 51.6204C230.64 52.813 230.694 53.704 230.804 54.2935C230.927 54.8829 231.215 55.4107 231.668 55.8767C232.326 56.5347 233.189 56.8637 234.258 56.8637C235.232 56.8637 236.027 56.5553 236.644 55.9384V56.7403C236.644 57.179 236.506 57.5697 236.232 57.9124C235.958 58.2551 235.499 58.4264 234.855 58.4264C234.06 58.4264 233.429 58.1934 232.963 57.7273L230.866 59.8246C231.4 60.3592 231.997 60.7293 232.655 60.9349C233.313 61.1543 234.101 61.2639 235.019 61.2639C235.759 61.2639 236.438 61.1543 237.055 60.9349C237.672 60.7156 238.206 60.4003 238.659 59.9891C239.563 59.1529 240.016 58.0769 240.016 56.7609ZM236.644 51.6204C236.644 52.3333 236.561 52.8816 236.397 53.2654C236.232 53.6355 235.876 53.8206 235.328 53.8206C234.779 53.8206 234.423 53.6355 234.258 53.2654C234.094 52.8816 234.012 52.3333 234.012 51.6204C234.012 50.9076 234.094 50.3662 234.258 49.9961C234.423 49.6122 234.779 49.4203 235.328 49.4203C235.876 49.4203 236.232 49.6122 236.397 49.9961C236.561 50.3662 236.644 50.9076 236.644 51.6204ZM251.706 52.0317C251.706 50.9488 251.617 50.0989 251.439 49.482C251.274 48.8515 250.959 48.2894 250.493 47.7959C250.109 47.3847 249.622 47.0489 249.033 46.7884C248.457 46.5143 247.758 46.3772 246.936 46.3772C246.127 46.3772 245.428 46.5143 244.838 46.7884C244.249 47.0489 243.762 47.3847 243.379 47.7959C242.912 48.2894 242.59 48.8515 242.412 49.482C242.248 50.0989 242.165 50.9488 242.165 52.0317C242.165 53.1283 242.248 53.9851 242.412 54.6019C242.59 55.2051 242.912 55.7602 243.379 56.2674C243.762 56.6786 244.249 57.0213 244.838 57.2955C245.428 57.556 246.127 57.6862 246.936 57.6862C247.758 57.6862 248.457 57.556 249.033 57.2955C249.622 57.0213 250.109 56.6786 250.493 56.2674C250.959 55.7602 251.274 55.2051 251.439 54.6019C251.617 53.9851 251.706 53.1283 251.706 52.0317ZM248.334 52.0317C248.334 52.6485 248.3 53.1352 248.231 53.4916C248.176 53.848 248.046 54.129 247.84 54.3346C247.635 54.5402 247.333 54.643 246.936 54.643C246.538 54.643 246.237 54.5402 246.031 54.3346C245.825 54.129 245.688 53.848 245.62 53.4916C245.565 53.1352 245.538 52.6485 245.538 52.0317C245.538 51.4148 245.565 50.9282 245.62 50.5718C245.688 50.2154 245.825 49.9344 246.031 49.7288C246.237 49.5231 246.538 49.4203 246.936 49.4203C247.333 49.4203 247.635 49.5231 247.84 49.7288C248.046 49.9344 248.176 50.2154 248.231 50.5718C248.3 50.9282 248.334 51.4148 248.334 52.0317ZM262.394 53.9439C262.394 53.0118 262.113 52.2442 261.551 51.641C261.003 51.0379 260.174 50.6815 259.063 50.5718L257.357 50.4073C257.055 50.3662 256.856 50.2908 256.76 50.1811C256.678 50.0715 256.637 49.9412 256.637 49.7904C256.637 49.6397 256.726 49.4957 256.904 49.3586C257.082 49.2216 257.357 49.153 257.727 49.153C258.234 49.153 258.686 49.201 259.084 49.297C259.495 49.3792 259.824 49.5506 260.071 49.811L262.147 47.7343C261.64 47.2271 261.03 46.8775 260.317 46.6856C259.618 46.48 258.775 46.3772 257.788 46.3772C257.226 46.3772 256.685 46.4526 256.164 46.6034C255.643 46.7541 255.17 46.9872 254.745 47.3025C254.32 47.6177 253.984 48.0084 253.738 48.4745C253.505 48.9268 253.388 49.4477 253.388 50.0372C253.388 51.0653 253.669 51.8329 254.231 52.3401C254.793 52.8473 255.581 53.1489 256.596 53.2448L258.302 53.4093C258.604 53.4367 258.81 53.519 258.919 53.6561C259.043 53.7794 259.104 53.9302 259.104 54.1084C259.104 54.3689 258.947 54.5539 258.631 54.6636C258.33 54.7733 258.008 54.8281 257.665 54.8281C257.185 54.8281 256.712 54.7733 256.246 54.6636C255.794 54.5539 255.369 54.3003 254.971 53.9028L252.792 56.0824C253.477 56.7677 254.183 57.2064 254.91 57.3983C255.65 57.5902 256.548 57.6862 257.603 57.6862C258.261 57.6862 258.878 57.6108 259.454 57.46C260.03 57.3092 260.537 57.083 260.975 56.7815C261.428 56.4799 261.777 56.0892 262.024 55.6094C262.271 55.1297 262.394 54.5745 262.394 53.9439ZM269.388 57.5628V54.7253H268.319C267.867 54.7253 267.64 54.4991 267.64 54.0467V49.5231H269.388V46.9323H267.64V43.7658H264.268V46.9323H263.261V49.5231H264.268V54.2935C264.268 54.691 264.337 55.0817 264.474 55.4655C264.611 55.8493 264.817 56.1989 265.091 56.5142C265.365 56.8294 265.721 57.083 266.16 57.2749C266.612 57.4669 267.126 57.5628 267.702 57.5628H269.388ZM280.641 52.0317C280.641 50.9488 280.552 50.0989 280.374 49.482C280.209 48.8515 279.894 48.2894 279.428 47.7959C279.044 47.3847 278.558 47.0489 277.968 46.7884C277.392 46.5143 276.693 46.3772 275.871 46.3772C275.062 46.3772 274.363 46.5143 273.774 46.7884C273.184 47.0489 272.697 47.3847 272.314 47.7959C271.848 48.2894 271.525 48.8515 271.347 49.482C271.183 50.0989 271.101 50.9488 271.101 52.0317C271.101 53.1283 271.183 53.9851 271.347 54.6019C271.525 55.2051 271.848 55.7602 272.314 56.2674C272.697 56.6786 273.184 57.0213 273.774 57.2955C274.363 57.556 275.062 57.6862 275.871 57.6862C276.693 57.6862 277.392 57.556 277.968 57.2955C278.558 57.0213 279.044 56.6786 279.428 56.2674C279.894 55.7602 280.209 55.2051 280.374 54.6019C280.552 53.9851 280.641 53.1283 280.641 52.0317ZM277.269 52.0317C277.269 52.6485 277.235 53.1352 277.166 53.4916C277.111 53.848 276.981 54.129 276.776 54.3346C276.57 54.5402 276.268 54.643 275.871 54.643C275.473 54.643 275.172 54.5402 274.966 54.3346C274.761 54.129 274.623 53.848 274.555 53.4916C274.5 53.1352 274.473 52.6485 274.473 52.0317C274.473 51.4148 274.5 50.9282 274.555 50.5718C274.623 50.2154 274.761 49.9344 274.966 49.7288C275.172 49.5231 275.473 49.4203 275.871 49.4203C276.268 49.4203 276.57 49.5231 276.776 49.7288C276.981 49.9344 277.111 50.2154 277.166 50.5718C277.235 50.9282 277.269 51.4148 277.269 52.0317ZM286.271 58.5909V53.9851H282.693V61.2228L286.271 58.5909ZM302.51 57.5628V54.5197H297.205L300.701 50.8185C301.359 50.1194 301.825 49.5231 302.099 49.0297C302.373 48.5362 302.51 47.933 302.51 47.2202C302.51 45.8631 302.071 44.7871 301.194 43.992C300.331 43.197 299.207 42.7994 297.822 42.7994C296.479 42.7994 295.355 43.197 294.45 43.992C293.545 44.7871 293.093 45.8768 293.093 47.2613H296.465C296.465 46.7541 296.595 46.3909 296.856 46.1716C297.13 45.9522 297.452 45.8426 297.822 45.8426C298.247 45.8426 298.569 45.9659 298.788 46.2127C299.021 46.4594 299.138 46.7884 299.138 47.1997C299.138 47.5012 299.083 47.7617 298.973 47.981C298.864 48.2003 298.672 48.4608 298.398 48.7624L293.093 54.5197V57.5628H302.51ZM313.853 53.1215V47.3641C313.853 46.6376 313.723 45.9865 313.463 45.4108C313.216 44.835 312.866 44.3553 312.414 43.9714C311.975 43.5739 311.475 43.2792 310.913 43.0873C310.351 42.8954 309.762 42.7994 309.145 42.7994C308.528 42.7994 307.938 42.8954 307.376 43.0873C306.814 43.2792 306.307 43.5739 305.855 43.9714C305.416 44.3553 305.067 44.835 304.806 45.4108C304.559 45.9865 304.436 46.6376 304.436 47.3641V53.1215C304.436 53.848 304.559 54.4991 304.806 55.0748C305.067 55.6506 305.416 56.1372 305.855 56.5347C306.307 56.9185 306.814 57.2064 307.376 57.3983C307.938 57.5902 308.528 57.6862 309.145 57.6862C309.762 57.6862 310.351 57.5902 310.913 57.3983C311.475 57.2064 311.975 56.9185 312.414 56.5347C312.866 56.1372 313.216 55.6506 313.463 55.0748C313.723 54.4991 313.853 53.848 313.853 53.1215ZM310.481 53.142C310.481 53.6355 310.351 54.0125 310.091 54.2729C309.844 54.5197 309.528 54.643 309.145 54.643C308.761 54.643 308.439 54.5197 308.178 54.2729C307.932 54.0125 307.808 53.6355 307.808 53.142V47.3641C307.808 46.8707 307.932 46.4937 308.178 46.2332C308.439 45.9728 308.761 45.8426 309.145 45.8426C309.528 45.8426 309.844 45.9728 310.091 46.2332C310.351 46.4937 310.481 46.8707 310.481 47.3641V53.142ZM325.361 57.5628V54.5197H320.056L323.552 50.8185C324.21 50.1194 324.676 49.5231 324.95 49.0297C325.224 48.5362 325.361 47.933 325.361 47.2202C325.361 45.8631 324.922 44.7871 324.045 43.992C323.181 43.197 322.057 42.7994 320.673 42.7994C319.33 42.7994 318.206 43.197 317.301 43.992C316.396 44.7871 315.944 45.8768 315.944 47.2613H319.316C319.316 46.7541 319.446 46.3909 319.707 46.1716C319.981 45.9522 320.303 45.8426 320.673 45.8426C321.098 45.8426 321.42 45.9659 321.639 46.2127C321.872 46.4594 321.989 46.7884 321.989 47.1997C321.989 47.5012 321.934 47.7617 321.824 47.981C321.715 48.2003 321.523 48.4608 321.249 48.7624L315.944 54.5197V57.5628H325.361ZM334.627 57.5628V42.9228H331.255L328.13 45.637V49.2353L331.255 46.5211V57.5628H334.627Z" fill="black"/>
<g opacity="0.6" clip-path="url(#clip0_464_588)">
<path d="M514.438 64.8699L517.296 67.7311L533.287 51.7278L517.296 35.7245L514.438 38.5857L527.569 51.7278L514.438 64.8699Z" fill="#BDBDBD"/>
</g>
<g opacity="0.6" clip-path="url(#clip1_464_588)">
<path d="M41.205 38.5857L38.3299 35.7245L22.3552 51.7278L38.3461 67.7311L41.205 64.8699L28.0732 51.7278L41.205 38.5857Z" fill="#BDBDBD"/>
</g>
<path d="M26.8666 124.381C26.8666 123.176 26.7973 122.244 26.6587 121.583C26.5308 120.911 26.2163 120.33 25.7152 119.839C25.0008 119.125 24.02 118.768 22.7726 118.768H18.7744V130.155H22.7726C24.02 130.155 25.0008 129.797 25.7152 129.083C26.2056 128.593 26.5201 127.996 26.6587 127.292C26.7973 126.588 26.8666 125.618 26.8666 124.381ZM25.1394 124.381C25.1394 125.351 25.1021 126.098 25.0275 126.62C24.9635 127.132 24.7983 127.537 24.5317 127.836C24.0626 128.347 23.4176 128.603 22.5966 128.603H20.5016V120.319H22.5966C23.4176 120.319 24.0626 120.575 24.5317 121.087C24.7983 121.385 24.9635 121.774 25.0275 122.254C25.1021 122.723 25.1394 123.432 25.1394 124.381ZM35.6148 126.092C35.6148 125.357 35.5455 124.738 35.4069 124.237C35.2683 123.726 35.0177 123.283 34.6552 122.91C34.3674 122.611 34.0209 122.377 33.6157 122.206C33.2106 122.036 32.7468 121.95 32.2244 121.95C31.702 121.95 31.2382 122.036 30.833 122.206C30.4386 122.377 30.0974 122.611 29.8095 122.91C29.447 123.283 29.1965 123.726 29.0579 124.237C28.9193 124.738 28.85 125.357 28.85 126.092C28.85 126.828 28.9193 127.452 29.0579 127.964C29.1965 128.465 29.447 128.907 29.8095 129.291C30.0974 129.589 30.4386 129.824 30.833 129.995C31.2382 130.165 31.702 130.25 32.2244 130.25C32.7468 130.25 33.2106 130.165 33.6157 129.995C34.0209 129.813 34.3674 129.579 34.6552 129.291C35.0177 128.907 35.2683 128.465 35.4069 127.964C35.5455 127.452 35.6148 126.828 35.6148 126.092ZM33.9836 126.092C33.9836 126.626 33.9462 127.073 33.8716 127.436C33.797 127.798 33.6477 128.092 33.4238 128.315C33.104 128.635 32.7042 128.795 32.2244 128.795C31.7553 128.795 31.3608 128.635 31.0409 128.315C30.817 128.092 30.6678 127.798 30.5931 127.436C30.5185 127.073 30.4812 126.626 30.4812 126.092C30.4812 125.559 30.5185 125.112 30.5931 124.749C30.6678 124.387 30.817 124.093 31.0409 123.869C31.3501 123.56 31.7446 123.406 32.2244 123.406C32.7148 123.406 33.1146 123.56 33.4238 123.869C33.6477 124.093 33.797 124.387 33.8716 124.749C33.9462 125.112 33.9836 125.559 33.9836 126.092ZM49.3381 130.155V124.973C49.3381 124.013 49.0503 123.251 48.4745 122.686C48.2293 122.451 47.9308 122.27 47.579 122.142C47.2271 122.014 46.8433 121.95 46.4275 121.95C45.3826 121.95 44.535 122.345 43.8847 123.134C43.3729 122.345 42.6053 121.95 41.5818 121.95C41.166 121.95 40.7661 122.03 40.3823 122.19C40.0092 122.34 39.6893 122.563 39.4228 122.862V122.046H37.8235V130.155H39.4548V125.213C39.4548 124.616 39.6093 124.168 39.9185 123.869C40.2384 123.56 40.6435 123.406 41.134 123.406C41.6244 123.406 42.0189 123.555 42.3174 123.853C42.6159 124.152 42.7652 124.605 42.7652 125.213V130.155H44.3964V125.133C44.3964 124.578 44.5564 124.152 44.8762 123.853C45.2067 123.555 45.6065 123.406 46.0757 123.406C46.5661 123.406 46.9606 123.555 47.2591 123.853C47.5576 124.152 47.7069 124.605 47.7069 125.213V130.155H49.3381Z" fill="#5F5F5F"/>
<path d="M114.716 126.908C114.716 125.895 114.407 125.117 113.788 124.573C113.543 124.349 113.255 124.173 112.925 124.045C112.605 123.907 112.184 123.8 111.661 123.726L111.037 123.63L110.366 123.534C109.811 123.448 109.385 123.272 109.086 123.006C108.799 122.75 108.655 122.398 108.655 121.95C108.655 121.428 108.836 121.001 109.198 120.671C109.572 120.34 110.083 120.175 110.734 120.175C111.245 120.175 111.704 120.245 112.109 120.383C112.514 120.511 112.882 120.735 113.212 121.055L114.316 119.967C113.826 119.509 113.303 119.178 112.749 118.976C112.194 118.773 111.539 118.672 110.782 118.672C109.609 118.672 108.681 118.981 107.999 119.599C107.317 120.207 106.975 121.012 106.975 122.014C106.975 122.942 107.253 123.667 107.807 124.189C108.319 124.669 109.038 124.973 109.966 125.101L110.638 125.197L111.309 125.293C111.64 125.335 111.896 125.394 112.077 125.469C112.258 125.533 112.418 125.634 112.557 125.773C112.855 126.039 113.005 126.434 113.005 126.956C113.005 127.51 112.797 127.942 112.381 128.251C111.976 128.55 111.4 128.699 110.654 128.699C110.035 128.699 109.497 128.619 109.038 128.459C108.58 128.289 108.148 128.006 107.743 127.612L106.592 128.747C107.125 129.291 107.711 129.68 108.351 129.915C108.99 130.139 109.747 130.25 110.622 130.25C111.837 130.25 112.823 129.952 113.58 129.355C114.337 128.758 114.716 127.942 114.716 126.908ZM123.301 126.572V125.853C123.301 124.68 122.997 123.736 122.39 123.022C121.782 122.308 120.94 121.95 119.863 121.95C118.818 121.95 117.981 122.318 117.352 123.054C116.734 123.779 116.424 124.792 116.424 126.092C116.424 126.839 116.515 127.484 116.696 128.028C116.888 128.561 117.144 128.992 117.464 129.323C117.794 129.643 118.178 129.877 118.615 130.027C119.053 130.176 119.538 130.25 120.071 130.25C120.753 130.25 121.318 130.149 121.766 129.947C122.224 129.744 122.672 129.424 123.109 128.987L122.07 128.012C121.771 128.31 121.478 128.523 121.19 128.651C120.902 128.779 120.54 128.843 120.103 128.843C119.452 128.843 118.946 128.641 118.583 128.235C118.221 127.83 118.04 127.276 118.04 126.572H123.301ZM121.686 125.437H118.04C118.05 125.17 118.066 124.962 118.088 124.813C118.12 124.664 118.173 124.504 118.248 124.333C118.376 124.024 118.583 123.779 118.871 123.598C119.159 123.406 119.49 123.31 119.863 123.31C120.236 123.31 120.561 123.406 120.838 123.598C121.126 123.779 121.334 124.024 121.462 124.333C121.547 124.515 121.601 124.685 121.622 124.845C121.654 124.994 121.675 125.192 121.686 125.437ZM131.65 130.107V122.046H130.067V122.91C129.779 122.558 129.465 122.313 129.124 122.174C128.782 122.025 128.388 121.95 127.94 121.95C127.108 121.95 126.458 122.185 125.989 122.654C125.626 123.017 125.381 123.459 125.253 123.981C125.136 124.504 125.077 125.16 125.077 125.949C125.077 126.737 125.136 127.393 125.253 127.916C125.381 128.438 125.626 128.88 125.989 129.243C126.469 129.723 127.114 129.963 127.924 129.963C128.361 129.963 128.745 129.893 129.076 129.755C129.417 129.616 129.731 129.376 130.019 129.035V130.075C130.019 130.672 129.865 131.162 129.555 131.546C129.246 131.94 128.766 132.138 128.116 132.138C127.732 132.138 127.412 132.079 127.156 131.962C126.901 131.855 126.634 131.674 126.357 131.418L125.317 132.457C125.744 132.852 126.17 133.129 126.597 133.289C127.034 133.449 127.562 133.529 128.18 133.529C129.246 133.529 130.088 133.209 130.707 132.569C131.336 131.94 131.65 131.119 131.65 130.107ZM130.019 125.949C130.019 126.322 129.998 126.652 129.955 126.94C129.923 127.228 129.849 127.489 129.731 127.724C129.625 127.958 129.459 128.145 129.235 128.283C129.012 128.422 128.724 128.491 128.372 128.491C128.02 128.491 127.732 128.422 127.508 128.283C127.284 128.145 127.114 127.958 126.997 127.724C126.89 127.489 126.815 127.228 126.773 126.94C126.73 126.652 126.709 126.322 126.709 125.949C126.709 125.575 126.73 125.245 126.773 124.957C126.815 124.669 126.89 124.408 126.997 124.173C127.114 123.939 127.284 123.752 127.508 123.614C127.732 123.475 128.02 123.406 128.372 123.406C128.724 123.406 129.012 123.475 129.235 123.614C129.459 123.752 129.625 123.939 129.731 124.173C129.849 124.408 129.923 124.669 129.955 124.957C129.998 125.245 130.019 125.575 130.019 125.949Z" fill="#5F5F5F"/>
<path d="M201.548 121.263V118.768H193.152V121.263H195.951V130.155H198.75V121.263H201.548ZM209.407 126.7V125.533C209.407 124.968 209.322 124.44 209.151 123.949C208.98 123.448 208.73 123.011 208.399 122.638C208.069 122.265 207.658 121.977 207.168 121.774C206.688 121.561 206.144 121.455 205.537 121.455C204.385 121.455 203.452 121.844 202.738 122.622C202.034 123.4 201.682 124.477 201.682 125.853C201.682 126.737 201.8 127.473 202.034 128.06C202.269 128.646 202.583 129.099 202.978 129.419C203.372 129.728 203.804 129.947 204.273 130.075C204.742 130.192 205.243 130.25 205.776 130.25C206.533 130.25 207.163 130.144 207.664 129.931C208.165 129.707 208.65 129.36 209.119 128.891L207.552 127.324C207.296 127.58 207.04 127.766 206.784 127.884C206.539 127.99 206.203 128.044 205.776 128.044C205.307 128.044 204.934 127.916 204.657 127.66C204.39 127.393 204.257 127.073 204.257 126.7H209.407ZM206.816 124.957H204.257C204.257 124.701 204.305 124.477 204.401 124.285C204.486 124.083 204.625 123.923 204.817 123.806C205.009 123.678 205.249 123.614 205.537 123.614C205.835 123.614 206.075 123.678 206.256 123.806C206.448 123.923 206.587 124.083 206.672 124.285C206.768 124.477 206.816 124.701 206.816 124.957ZM217.604 122.254C217.317 121.966 217.018 121.764 216.709 121.647C216.4 121.519 216.027 121.455 215.589 121.455C215.174 121.455 214.784 121.535 214.422 121.694C214.059 121.854 213.772 122.041 213.558 122.254V121.551H211V130.155H213.622V125.005C213.622 124.578 213.734 124.275 213.958 124.093C214.193 123.912 214.433 123.822 214.678 123.822C214.88 123.822 215.051 123.859 215.19 123.933C215.328 124.008 215.472 124.12 215.621 124.269L217.604 122.254Z" fill="#2500B3"/>
<path d="M286.432 129.707L285.313 128.603C285.643 128.155 285.846 127.654 285.92 127.1C286.006 126.535 286.048 125.655 286.048 124.461C286.048 123.758 286.038 123.203 286.016 122.798C286.006 122.393 285.963 122.014 285.888 121.663C285.824 121.311 285.718 120.991 285.568 120.703C285.419 120.415 285.217 120.143 284.961 119.887C284.15 119.077 283.148 118.672 281.954 118.672C280.771 118.672 279.774 119.077 278.964 119.887C278.697 120.154 278.489 120.436 278.34 120.735C278.191 121.033 278.079 121.359 278.004 121.71C277.94 122.052 277.897 122.419 277.876 122.814C277.865 123.198 277.86 123.747 277.86 124.461C277.86 125.165 277.865 125.714 277.876 126.108C277.897 126.503 277.94 126.876 278.004 127.228C278.068 127.569 278.175 127.889 278.324 128.187C278.484 128.486 278.697 128.769 278.964 129.035C279.774 129.845 280.771 130.25 281.954 130.25C282.86 130.25 283.655 130.011 284.337 129.531L285.472 130.666L286.432 129.707ZM284.321 124.461C284.321 125.24 284.3 125.837 284.257 126.252C284.214 126.658 284.124 126.999 283.985 127.276L282.882 126.172L281.922 127.132L283.122 128.331C282.78 128.577 282.391 128.699 281.954 128.699C281.624 128.699 281.309 128.635 281.011 128.507C280.712 128.379 280.462 128.209 280.259 127.996C280.11 127.836 279.992 127.67 279.907 127.5C279.832 127.329 279.768 127.116 279.715 126.86C279.673 126.604 279.641 126.29 279.619 125.917C279.598 125.533 279.587 125.048 279.587 124.461C279.587 123.875 279.598 123.39 279.619 123.006C279.641 122.622 279.673 122.308 279.715 122.062C279.758 121.806 279.822 121.593 279.907 121.423C280.003 121.241 280.12 121.076 280.259 120.927C280.462 120.703 280.712 120.532 281.011 120.415C281.309 120.287 281.624 120.223 281.954 120.223C282.285 120.223 282.599 120.287 282.898 120.415C283.196 120.532 283.447 120.703 283.649 120.927C283.799 121.087 283.916 121.252 284.001 121.423C284.086 121.593 284.15 121.806 284.193 122.062C284.246 122.318 284.278 122.638 284.289 123.022C284.31 123.395 284.321 123.875 284.321 124.461ZM294.916 130.155V122.046H293.285V126.988C293.285 127.585 293.125 128.038 292.805 128.347C292.496 128.646 292.096 128.795 291.605 128.795C291.126 128.795 290.731 128.646 290.422 128.347C290.123 128.038 289.974 127.585 289.974 126.988V122.046H288.343V127.228C288.343 127.718 288.402 128.15 288.519 128.523C288.647 128.896 288.86 129.227 289.159 129.515C289.67 130.005 290.337 130.25 291.158 130.25C292.043 130.25 292.762 129.947 293.317 129.339V130.155H294.916ZM303.478 130.155V124.733C303.478 122.878 302.363 121.95 300.135 121.95C299.442 121.95 298.877 122.036 298.44 122.206C298.003 122.377 297.598 122.681 297.224 123.118L298.296 124.125C298.52 123.837 298.76 123.635 299.016 123.518C299.272 123.4 299.623 123.342 300.071 123.342C300.69 123.342 301.137 123.464 301.415 123.71C301.702 123.955 301.846 124.339 301.846 124.861V125.437H299.703C298.797 125.437 298.104 125.65 297.624 126.076C297.145 126.503 296.905 127.068 296.905 127.772C296.905 128.486 297.118 129.067 297.544 129.515C298.035 130.005 298.76 130.25 299.719 130.25C300.22 130.25 300.631 130.187 300.951 130.059C301.271 129.931 301.58 129.717 301.878 129.419V130.155H303.478ZM301.846 127.228C301.846 127.793 301.729 128.193 301.495 128.427C301.292 128.619 301.073 128.747 300.839 128.811C300.615 128.864 300.327 128.891 299.975 128.891C298.984 128.891 298.488 128.507 298.488 127.74C298.488 126.961 298.973 126.572 299.943 126.572H301.846V127.228Z" fill="#5F5F5F"/>
<path d="M375.787 129.707L374.667 128.603C374.998 128.155 375.2 127.654 375.275 127.1C375.36 126.535 375.403 125.655 375.403 124.461C375.403 123.758 375.392 123.203 375.371 122.798C375.36 122.393 375.318 122.014 375.243 121.663C375.179 121.311 375.072 120.991 374.923 120.703C374.774 120.415 374.571 120.143 374.315 119.887C373.505 119.077 372.503 118.672 371.309 118.672C370.125 118.672 369.129 119.077 368.318 119.887C368.052 120.154 367.844 120.436 367.695 120.735C367.545 121.033 367.433 121.359 367.359 121.71C367.295 122.052 367.252 122.419 367.231 122.814C367.22 123.198 367.215 123.747 367.215 124.461C367.215 125.165 367.22 125.714 367.231 126.108C367.252 126.503 367.295 126.876 367.359 127.228C367.423 127.569 367.529 127.889 367.679 128.187C367.838 128.486 368.052 128.769 368.318 129.035C369.129 129.845 370.125 130.25 371.309 130.25C372.215 130.25 373.009 130.011 373.692 129.531L374.827 130.666L375.787 129.707ZM373.676 124.461C373.676 125.24 373.654 125.837 373.612 126.252C373.569 126.658 373.479 126.999 373.34 127.276L372.236 126.172L371.277 127.132L372.476 128.331C372.135 128.577 371.746 128.699 371.309 128.699C370.978 128.699 370.664 128.635 370.365 128.507C370.067 128.379 369.816 128.209 369.614 127.996C369.464 127.836 369.347 127.67 369.262 127.5C369.187 127.329 369.123 127.116 369.07 126.86C369.027 126.604 368.995 126.29 368.974 125.917C368.953 125.533 368.942 125.048 368.942 124.461C368.942 123.875 368.953 123.39 368.974 123.006C368.995 122.622 369.027 122.308 369.07 122.062C369.113 121.806 369.177 121.593 369.262 121.423C369.358 121.241 369.475 121.076 369.614 120.927C369.816 120.703 370.067 120.532 370.365 120.415C370.664 120.287 370.978 120.223 371.309 120.223C371.639 120.223 371.954 120.287 372.252 120.415C372.551 120.532 372.801 120.703 373.004 120.927C373.153 121.087 373.271 121.252 373.356 121.423C373.441 121.593 373.505 121.806 373.548 122.062C373.601 122.318 373.633 122.638 373.644 123.022C373.665 123.395 373.676 123.875 373.676 124.461ZM384.271 130.155V122.046H382.639V126.988C382.639 127.585 382.479 128.038 382.16 128.347C381.85 128.646 381.451 128.795 380.96 128.795C380.48 128.795 380.086 128.646 379.777 128.347C379.478 128.038 379.329 127.585 379.329 126.988V122.046H377.698V127.228C377.698 127.718 377.756 128.15 377.874 128.523C378.001 128.896 378.215 129.227 378.513 129.515C379.025 130.005 379.691 130.25 380.512 130.25C381.397 130.25 382.117 129.947 382.671 129.339V130.155H384.271ZM388.546 120.447V118.72H386.819V120.447H388.546ZM388.498 130.155V122.046H386.867V130.155H388.498Z" fill="#5F5F5F"/>
<path d="M445.701 126.549C445.701 125.537 445.392 124.758 444.773 124.215C444.528 123.991 444.24 123.815 443.91 123.687C443.59 123.548 443.169 123.442 442.646 123.367L442.022 123.271L441.351 123.175C440.796 123.09 440.37 122.914 440.071 122.647C439.784 122.391 439.64 122.04 439.64 121.592C439.64 121.069 439.821 120.643 440.183 120.312C440.556 119.982 441.068 119.817 441.719 119.817C442.23 119.817 442.689 119.886 443.094 120.024C443.499 120.152 443.867 120.376 444.197 120.696L445.301 119.609C444.811 119.15 444.288 118.82 443.734 118.617C443.179 118.415 442.524 118.313 441.767 118.313C440.594 118.313 439.666 118.622 438.984 119.241C438.302 119.849 437.96 120.654 437.96 121.656C437.96 122.583 438.238 123.308 438.792 123.831C439.304 124.31 440.023 124.614 440.951 124.742L441.623 124.838L442.294 124.934C442.625 124.977 442.881 125.035 443.062 125.11C443.243 125.174 443.403 125.275 443.542 125.414C443.84 125.68 443.99 126.075 443.99 126.597C443.99 127.152 443.782 127.584 443.366 127.893C442.961 128.191 442.385 128.341 441.639 128.341C441.02 128.341 440.482 128.261 440.023 128.101C439.565 127.93 439.133 127.648 438.728 127.253L437.577 128.389C438.11 128.932 438.696 129.321 439.336 129.556C439.975 129.78 440.732 129.892 441.607 129.892C442.822 129.892 443.808 129.593 444.565 128.996C445.322 128.399 445.701 127.584 445.701 126.549ZM454.286 126.214V125.494C454.286 124.321 453.982 123.378 453.375 122.663C452.767 121.949 451.925 121.592 450.848 121.592C449.803 121.592 448.966 121.96 448.337 122.695C447.719 123.42 447.409 124.433 447.409 125.734C447.409 126.48 447.5 127.125 447.681 127.669C447.873 128.202 448.129 128.634 448.449 128.964C448.779 129.284 449.163 129.519 449.6 129.668C450.038 129.817 450.523 129.892 451.056 129.892C451.738 129.892 452.303 129.791 452.751 129.588C453.209 129.385 453.657 129.066 454.094 128.628L453.055 127.653C452.756 127.951 452.463 128.165 452.175 128.293C451.887 128.421 451.525 128.485 451.088 128.485C450.437 128.485 449.931 128.282 449.568 127.877C449.206 127.472 449.025 126.917 449.025 126.214H454.286ZM452.671 125.078H449.025C449.035 124.812 449.051 124.604 449.073 124.454C449.105 124.305 449.158 124.145 449.233 123.975C449.361 123.665 449.568 123.42 449.856 123.239C450.144 123.047 450.475 122.951 450.848 122.951C451.221 122.951 451.546 123.047 451.823 123.239C452.111 123.42 452.319 123.665 452.447 123.975C452.532 124.156 452.586 124.326 452.607 124.486C452.639 124.636 452.66 124.833 452.671 125.078ZM462.687 129.796L459.92 125.654L462.575 121.688H460.608L459.025 124.326L457.426 121.688H455.458L458.129 125.654L455.346 129.796H457.314L459.025 127.029L460.72 129.796H462.687Z" fill="#5F5F5F"/>
<path d="M520.988 126.908C520.988 125.895 520.678 125.117 520.06 124.573C519.815 124.349 519.527 124.173 519.196 124.045C518.876 123.907 518.455 123.8 517.933 123.726L517.309 123.63L516.638 123.534C516.083 123.448 515.657 123.272 515.358 123.006C515.07 122.75 514.926 122.398 514.926 121.95C514.926 121.428 515.108 121.001 515.47 120.671C515.843 120.34 516.355 120.175 517.005 120.175C517.517 120.175 517.976 120.245 518.381 120.383C518.786 120.511 519.154 120.735 519.484 121.055L520.588 119.967C520.097 119.509 519.575 119.178 519.02 118.976C518.466 118.773 517.81 118.672 517.053 118.672C515.881 118.672 514.953 118.981 514.271 119.599C513.588 120.207 513.247 121.012 513.247 122.014C513.247 122.942 513.524 123.667 514.079 124.189C514.59 124.669 515.31 124.973 516.238 125.101L516.909 125.197L517.581 125.293C517.912 125.335 518.167 125.394 518.349 125.469C518.53 125.533 518.69 125.634 518.829 125.773C519.127 126.039 519.276 126.434 519.276 126.956C519.276 127.51 519.068 127.942 518.653 128.251C518.247 128.55 517.672 128.699 516.925 128.699C516.307 128.699 515.769 128.619 515.31 128.459C514.852 128.289 514.42 128.006 514.015 127.612L512.863 128.747C513.396 129.291 513.983 129.68 514.622 129.915C515.262 130.139 516.019 130.25 516.893 130.25C518.109 130.25 519.095 129.952 519.852 129.355C520.609 128.758 520.988 127.942 520.988 126.908ZM529.077 130.155V124.733C529.077 122.878 527.963 121.95 525.735 121.95C525.042 121.95 524.477 122.036 524.04 122.206C523.602 122.377 523.197 122.681 522.824 123.118L523.896 124.125C524.12 123.837 524.359 123.635 524.615 123.518C524.871 123.4 525.223 123.342 525.671 123.342C526.289 123.342 526.737 123.464 527.014 123.71C527.302 123.955 527.446 124.339 527.446 124.861V125.437H525.303C524.397 125.437 523.704 125.65 523.224 126.076C522.744 126.503 522.504 127.068 522.504 127.772C522.504 128.486 522.718 129.067 523.144 129.515C523.634 130.005 524.359 130.25 525.319 130.25C525.82 130.25 526.231 130.187 526.55 130.059C526.87 129.931 527.179 129.717 527.478 129.419V130.155H529.077ZM527.446 127.228C527.446 127.793 527.329 128.193 527.094 128.427C526.892 128.619 526.673 128.747 526.438 128.811C526.215 128.864 525.927 128.891 525.575 128.891C524.583 128.891 524.088 128.507 524.088 127.74C524.088 126.961 524.573 126.572 525.543 126.572H527.446V127.228ZM538.229 126.092C538.229 125.325 538.165 124.653 538.037 124.077C537.92 123.502 537.68 123.033 537.318 122.67C537.094 122.446 536.811 122.27 536.47 122.142C536.129 122.014 535.756 121.95 535.351 121.95C534.892 121.95 534.492 122.02 534.151 122.158C533.821 122.286 533.512 122.521 533.224 122.862V118.768H531.592V130.155H533.192V129.291C533.49 129.643 533.805 129.893 534.135 130.043C534.476 130.181 534.876 130.25 535.335 130.25C535.74 130.25 536.113 130.187 536.454 130.059C536.806 129.931 537.094 129.755 537.318 129.531C537.68 129.168 537.92 128.699 538.037 128.123C538.165 127.537 538.229 126.86 538.229 126.092ZM536.598 126.092C536.598 126.498 536.577 126.855 536.534 127.164C536.502 127.473 536.422 127.756 536.294 128.012C536.177 128.257 536.006 128.449 535.782 128.587C535.559 128.726 535.271 128.795 534.919 128.795C534.567 128.795 534.274 128.726 534.039 128.587C533.815 128.449 533.645 128.257 533.528 128.012C533.41 127.766 533.33 127.489 533.288 127.18C533.245 126.871 533.224 126.508 533.224 126.092C533.224 125.677 533.245 125.314 533.288 125.005C533.33 124.696 533.41 124.424 533.528 124.189C533.645 123.944 533.815 123.752 534.039 123.614C534.274 123.475 534.567 123.406 534.919 123.406C535.271 123.406 535.559 123.475 535.782 123.614C536.006 123.752 536.177 123.944 536.294 124.189C536.422 124.435 536.502 124.712 536.534 125.021C536.577 125.33 536.598 125.687 536.598 126.092Z" fill="#5F5F5F"/>
<path d="M27.0435 175.997C27.5019 175.773 27.8538 175.459 28.099 175.054C28.3442 174.648 28.4668 174.153 28.4668 173.566C28.4668 172.628 28.1576 171.866 27.5392 171.279C26.9209 170.682 26.1266 170.384 25.1563 170.384C24.2288 170.384 23.4505 170.666 22.8214 171.231C22.1924 171.786 21.8566 172.537 21.8139 173.486H23.4451C23.4878 172.975 23.6584 172.575 23.9569 172.287C24.2661 171.999 24.6659 171.855 25.1563 171.855C25.6361 171.855 26.0359 172.01 26.3558 172.319C26.6756 172.628 26.8356 173.06 26.8356 173.614C26.8356 174.158 26.6916 174.584 26.4038 174.894C26.1159 175.192 25.6841 175.341 25.1084 175.341H24.8365V176.765H25.1084C25.7374 176.765 26.2119 176.93 26.5317 177.261C26.8516 177.591 27.0115 178.05 27.0115 178.636C27.0115 179.222 26.8356 179.686 26.4837 180.027C26.1426 180.358 25.7001 180.523 25.1563 180.523C24.6446 180.523 24.2128 180.379 23.861 180.091C23.5198 179.803 23.3332 179.372 23.3012 178.796H21.67C21.702 179.851 22.0431 180.651 22.6935 181.195C23.3545 181.728 24.1755 181.994 25.1563 181.994C26.1585 181.994 26.9902 181.706 27.6512 181.131C28.3122 180.555 28.6427 179.739 28.6427 178.684C28.6427 178.002 28.5041 177.442 28.2269 177.005C27.9497 176.557 27.5552 176.221 27.0435 175.997ZM37.074 178.716V173.662C37.074 172.671 36.7488 171.871 36.0985 171.263C35.8 170.986 35.4534 170.773 35.059 170.624C34.6645 170.474 34.238 170.4 33.7796 170.4C33.3318 170.4 32.9053 170.474 32.5002 170.624C32.1057 170.773 31.7592 170.986 31.4606 171.263C30.8209 171.871 30.5011 172.671 30.5011 173.662V178.716C30.5011 179.707 30.8209 180.507 31.4606 181.115C31.7592 181.392 32.1057 181.605 32.5002 181.754C32.9053 181.904 33.3318 181.978 33.7796 181.978C34.238 181.978 34.6645 181.904 35.059 181.754C35.4534 181.605 35.8 181.392 36.0985 181.115C36.7488 180.507 37.074 179.707 37.074 178.716ZM35.4428 178.668C35.4428 179.222 35.2935 179.67 34.995 180.011C34.6965 180.352 34.2913 180.523 33.7796 180.523C33.2678 180.523 32.8627 180.352 32.5641 180.011C32.2763 179.67 32.1323 179.222 32.1323 178.668V173.71C32.1323 173.145 32.2763 172.697 32.5641 172.367C32.8627 172.026 33.2678 171.855 33.7796 171.855C34.2913 171.855 34.6965 172.026 34.995 172.367C35.2935 172.708 35.4428 173.156 35.4428 173.71V178.668Z" fill="black" fill-opacity="0.2"/>
<path d="M35.2473 223.679V222.224H28.4665V225.47H30.0338V223.679H33.5042L29.6819 233.61H31.4411L35.2473 223.679Z" fill="#C4C4C4"/>
<path d="M26.6756 285.338V273.951H25.0444L22.8214 275.87V277.678L25.0444 275.727V285.338H26.6756ZM37.4898 283.627V282.108H36.2744V279.453H34.6911V282.108H31.8605L35.8586 273.951H34.0994L30.0853 282.108V283.627H34.6911V285.338H36.2744V283.627H37.4898Z" fill="#C4C4C4"/>
<path d="M28.6267 337.066V335.611H23.9889L27.5552 331.245C27.9497 330.765 28.2269 330.354 28.3868 330.013C28.5468 329.661 28.6267 329.251 28.6267 328.782C28.6267 327.812 28.3229 327.039 27.7151 326.463C27.1074 325.876 26.3131 325.583 25.3323 325.583C24.3621 325.583 23.5678 325.882 22.9494 326.479C22.331 327.065 22.0218 327.838 22.0218 328.798H23.653C23.653 328.201 23.813 327.758 24.1328 327.47C24.4527 327.183 24.8525 327.039 25.3323 327.039C25.8547 327.039 26.2598 327.199 26.5477 327.518C26.8462 327.828 26.9955 328.243 26.9955 328.766C26.9955 329.054 26.9475 329.315 26.8516 329.549C26.7663 329.773 26.6117 330.019 26.3878 330.285L22.0058 335.611V337.066H28.6267ZM35.2029 337.066V325.679H33.5717L31.3487 327.598V329.405L33.5717 327.454V337.066H35.2029Z" fill="#C4C4C4"/>
<path d="M28.6267 388.794V387.338H23.9889L27.5552 382.972C27.9497 382.493 28.2269 382.082 28.3868 381.741C28.5468 381.389 28.6267 380.979 28.6267 380.51C28.6267 379.539 28.3229 378.766 27.7151 378.191C27.1074 377.604 26.3131 377.311 25.3323 377.311C24.3621 377.311 23.5678 377.61 22.9494 378.207C22.331 378.793 22.0218 379.566 22.0218 380.526H23.653C23.653 379.929 23.813 379.486 24.1328 379.198C24.4527 378.91 24.8525 378.766 25.3323 378.766C25.8547 378.766 26.2598 378.926 26.5477 379.246C26.8462 379.555 26.9955 379.971 26.9955 380.494C26.9955 380.781 26.9475 381.043 26.8516 381.277C26.7663 381.501 26.6117 381.746 26.3878 382.013L22.0058 387.338V388.794H28.6267ZM37.2979 385.579C37.2979 384.95 37.1487 384.417 36.8501 383.98C36.5623 383.543 36.1891 383.186 35.7307 382.908C36.1358 382.663 36.4663 382.338 36.7222 381.933C36.9781 381.517 37.106 381.027 37.106 380.462C37.106 379.993 37.0207 379.566 36.8501 379.182C36.6795 378.788 36.4397 378.452 36.1305 378.175C35.8319 377.897 35.4801 377.684 35.075 377.535C34.6805 377.386 34.2487 377.311 33.7796 377.311C33.3211 377.311 32.8893 377.386 32.4842 377.535C32.079 377.684 31.7272 377.897 31.4287 378.175C31.1301 378.452 30.8956 378.788 30.725 379.182C30.5544 379.566 30.4691 379.993 30.4691 380.462C30.4691 381.027 30.5971 381.517 30.8529 381.933C31.1088 382.338 31.4393 382.663 31.8445 382.908C31.386 383.186 31.0075 383.543 30.709 383.98C30.4211 384.417 30.2772 384.95 30.2772 385.579C30.2772 386.08 30.3625 386.539 30.5331 386.955C30.7143 387.37 30.9702 387.722 31.3007 388.01C31.9511 388.596 32.7774 388.89 33.7796 388.89C34.27 388.89 34.7285 388.815 35.1549 388.666C35.5814 388.517 35.9545 388.298 36.2744 388.01C36.9567 387.392 37.2979 386.581 37.2979 385.579ZM35.4748 380.51C35.4748 381.011 35.3148 381.427 34.995 381.757C34.6751 382.077 34.27 382.237 33.7796 382.237C33.2891 382.237 32.884 382.077 32.5641 381.757C32.2549 381.427 32.1003 381.011 32.1003 380.51C32.1003 380.009 32.2549 379.593 32.5641 379.262C32.884 378.932 33.2891 378.766 33.7796 378.766C34.27 378.766 34.6751 378.932 34.995 379.262C35.3148 379.593 35.4748 380.009 35.4748 380.51ZM35.6507 385.547C35.6507 386.08 35.4694 386.528 35.1069 386.891C34.7444 387.253 34.302 387.434 33.7796 387.434C33.2571 387.434 32.8147 387.253 32.4522 386.891C32.0897 386.528 31.9084 386.08 31.9084 385.547C31.9084 385.014 32.0897 384.566 32.4522 384.204C32.8147 383.831 33.2571 383.644 33.7796 383.644C34.302 383.644 34.7444 383.831 35.1069 384.204C35.4694 384.566 35.6507 385.014 35.6507 385.547Z" fill="#C4C4C4"/>
<path d="M118.744 181.882V170.496H117.113L114.89 172.415V174.222L117.113 172.271V181.882H118.744Z" fill="#5F5F5F"/>
<path d="M120.839 230.396C120.839 229.767 120.69 229.234 120.391 228.796C120.103 228.359 119.73 228.002 119.272 227.725C119.677 227.48 120.007 227.155 120.263 226.749C120.519 226.334 120.647 225.843 120.647 225.278C120.647 224.809 120.562 224.383 120.391 223.999C120.221 223.604 119.981 223.268 119.672 222.991C119.373 222.714 119.021 222.501 118.616 222.351C118.222 222.202 117.79 222.128 117.321 222.128C116.862 222.128 116.43 222.202 116.025 222.351C115.62 222.501 115.268 222.714 114.97 222.991C114.671 223.268 114.437 223.604 114.266 223.999C114.096 224.383 114.01 224.809 114.01 225.278C114.01 225.843 114.138 226.334 114.394 226.749C114.65 227.155 114.98 227.48 115.386 227.725C114.927 228.002 114.549 228.359 114.25 228.796C113.962 229.234 113.818 229.767 113.818 230.396C113.818 230.897 113.904 231.355 114.074 231.771C114.255 232.187 114.511 232.539 114.842 232.827C115.492 233.413 116.318 233.706 117.321 233.706C117.811 233.706 118.27 233.632 118.696 233.482C119.122 233.333 119.496 233.114 119.815 232.827C120.498 232.208 120.839 231.398 120.839 230.396ZM119.016 225.326C119.016 225.827 118.856 226.243 118.536 226.574C118.216 226.893 117.811 227.053 117.321 227.053C116.83 227.053 116.425 226.893 116.105 226.574C115.796 226.243 115.641 225.827 115.641 225.326C115.641 224.825 115.796 224.409 116.105 224.079C116.425 223.748 116.83 223.583 117.321 223.583C117.811 223.583 118.216 223.748 118.536 224.079C118.856 224.409 119.016 224.825 119.016 225.326ZM119.192 230.364C119.192 230.897 119.011 231.345 118.648 231.707C118.286 232.07 117.843 232.251 117.321 232.251C116.798 232.251 116.356 232.07 115.993 231.707C115.631 231.345 115.45 230.897 115.45 230.364C115.45 229.831 115.631 229.383 115.993 229.02C116.356 228.647 116.798 228.461 117.321 228.461C117.843 228.461 118.286 228.647 118.648 229.02C119.011 229.383 119.192 229.831 119.192 230.364Z" fill="#5F5F5F"/>
<path d="M112.283 285.338V273.951H110.652L108.429 275.87V277.678L110.652 275.727V285.338H112.283ZM122.794 281.532C122.794 280.892 122.724 280.327 122.586 279.837C122.458 279.336 122.197 278.888 121.802 278.493C121.312 278.003 120.629 277.758 119.755 277.758C119.35 277.758 118.982 277.816 118.652 277.934C118.332 278.051 118.071 278.211 117.868 278.413V275.407H122.538V273.951H116.397V280.172H117.884C117.98 279.874 118.161 279.629 118.428 279.437C118.705 279.245 119.062 279.149 119.499 279.149C120.118 279.149 120.549 279.357 120.795 279.773C121.04 280.188 121.162 280.775 121.162 281.532C121.162 281.99 121.125 282.385 121.05 282.715C120.976 283.046 120.832 283.318 120.619 283.531C120.32 283.829 119.926 283.979 119.435 283.979C118.934 283.979 118.545 283.845 118.268 283.579C118.001 283.302 117.836 282.907 117.772 282.395H116.141C116.173 282.854 116.253 283.259 116.381 283.611C116.509 283.963 116.716 284.283 117.004 284.57C117.271 284.837 117.612 285.05 118.028 285.21C118.444 285.37 118.913 285.45 119.435 285.45C119.958 285.45 120.416 285.37 120.811 285.21C121.216 285.05 121.557 284.832 121.834 284.554C122.218 284.171 122.474 283.744 122.602 283.275C122.73 282.806 122.794 282.225 122.794 281.532Z" fill="#5F5F5F"/>
<path d="M114.234 337.066V335.611H109.597L113.163 331.245C113.557 330.765 113.835 330.354 113.995 330.013C114.154 329.661 114.234 329.251 114.234 328.782C114.234 327.812 113.931 327.039 113.323 326.463C112.715 325.876 111.921 325.583 110.94 325.583C109.97 325.583 109.175 325.882 108.557 326.479C107.939 327.065 107.629 327.838 107.629 328.798H109.261C109.261 328.201 109.421 327.758 109.74 327.47C110.06 327.183 110.46 327.039 110.94 327.039C111.462 327.039 111.867 327.199 112.155 327.518C112.454 327.828 112.603 328.243 112.603 328.766C112.603 329.054 112.555 329.315 112.459 329.549C112.374 329.773 112.219 330.019 111.995 330.285L107.613 335.611V337.066H114.234ZM122.762 337.066V335.611H118.124L121.69 331.245C122.085 330.765 122.362 330.354 122.522 330.013C122.682 329.661 122.762 329.251 122.762 328.782C122.762 327.812 122.458 327.039 121.85 326.463C121.242 325.876 120.448 325.583 119.467 325.583C118.497 325.583 117.703 325.882 117.084 326.479C116.466 327.065 116.157 327.838 116.157 328.798H117.788C117.788 328.201 117.948 327.758 118.268 327.47C118.588 327.183 118.987 327.039 119.467 327.039C119.99 327.039 120.395 327.199 120.683 327.518C120.981 327.828 121.13 328.243 121.13 328.766C121.13 329.054 121.082 329.315 120.986 329.549C120.901 329.773 120.747 330.019 120.523 330.285L116.141 335.611V337.066H122.762Z" fill="#5F5F5F"/>
<path d="M114.234 388.794V387.338H109.597L113.163 382.972C113.557 382.493 113.835 382.082 113.995 381.741C114.154 381.389 114.234 380.979 114.234 380.51C114.234 379.539 113.931 378.766 113.323 378.191C112.715 377.604 111.921 377.311 110.94 377.311C109.97 377.311 109.175 377.61 108.557 378.207C107.939 378.793 107.629 379.566 107.629 380.526H109.261C109.261 379.929 109.421 379.486 109.74 379.198C110.06 378.91 110.46 378.766 110.94 378.766C111.462 378.766 111.867 378.926 112.155 379.246C112.454 379.555 112.603 379.971 112.603 380.494C112.603 380.781 112.555 381.043 112.459 381.277C112.374 381.501 112.219 381.746 111.995 382.013L107.613 387.338V388.794H114.234ZM122.762 380.718C122.762 379.673 122.447 378.846 121.818 378.239C121.2 377.62 120.389 377.311 119.387 377.311C118.396 377.311 117.585 377.631 116.956 378.271C116.338 378.91 116.029 379.747 116.029 380.781C116.029 381.762 116.311 382.557 116.876 383.164C117.452 383.772 118.161 384.076 119.003 384.076C119.409 384.076 119.75 384.017 120.027 383.9L117.58 388.794H119.323L121.914 383.516C122.191 382.962 122.399 382.466 122.538 382.029C122.687 381.581 122.762 381.144 122.762 380.718ZM121.13 380.749C121.13 381.357 120.97 381.837 120.651 382.189C120.331 382.541 119.91 382.717 119.387 382.717C118.854 382.717 118.433 382.535 118.124 382.173C117.815 381.8 117.66 381.325 117.66 380.749C117.66 380.142 117.82 379.662 118.14 379.31C118.46 378.948 118.875 378.766 119.387 378.766C119.899 378.766 120.315 378.948 120.635 379.31C120.965 379.662 121.13 380.142 121.13 380.749Z" fill="#5F5F5F"/>
<path d="M206.303 181.882V180.427H201.665L205.231 176.061C205.626 175.581 205.903 175.171 206.063 174.83C206.223 174.478 206.303 174.067 206.303 173.598C206.303 172.628 205.999 171.855 205.391 171.279C204.783 170.693 203.989 170.4 203.008 170.4C202.038 170.4 201.244 170.698 200.625 171.295C200.007 171.882 199.698 172.655 199.698 173.614H201.329C201.329 173.017 201.489 172.575 201.809 172.287C202.129 171.999 202.529 171.855 203.008 171.855C203.531 171.855 203.936 172.015 204.224 172.335C204.522 172.644 204.672 173.06 204.672 173.582C204.672 173.87 204.624 174.131 204.528 174.366C204.442 174.59 204.288 174.835 204.064 175.102L199.682 180.427V181.882H206.303Z" fill="#5F5F5F"/>
<path d="M206.958 225.79C206.958 224.628 206.596 223.727 205.871 223.087C205.146 222.447 204.245 222.128 203.168 222.128C202.091 222.128 201.19 222.447 200.465 223.087C199.74 223.727 199.378 224.628 199.378 225.79C199.378 226.323 199.463 226.808 199.634 227.245C199.815 227.682 200.055 228.05 200.354 228.349C200.663 228.637 200.993 228.855 201.345 229.004C201.708 229.154 202.065 229.228 202.417 229.228C202.694 229.228 202.907 229.202 203.056 229.148L200.801 233.61H203.68L205.871 229.1L205.951 228.94C206.292 228.258 206.543 227.688 206.703 227.229C206.873 226.76 206.958 226.28 206.958 225.79ZM204.336 225.79C204.336 226.195 204.224 226.515 204 226.749C203.776 226.973 203.499 227.085 203.168 227.085C202.838 227.085 202.56 226.973 202.337 226.749C202.113 226.515 202.001 226.195 202.001 225.79C202.001 225.385 202.113 225.07 202.337 224.846C202.56 224.612 202.838 224.494 203.168 224.494C203.499 224.494 203.776 224.612 204 224.846C204.224 225.07 204.336 225.385 204.336 225.79Z" fill="white"/>
<path d="M197.891 285.338V273.951H196.259L194.037 275.87V277.678L196.259 275.727V285.338H197.891ZM208.369 281.964C208.369 280.983 208.081 280.188 207.505 279.581C206.93 278.973 206.221 278.669 205.378 278.669C204.984 278.669 204.648 278.728 204.371 278.845L206.818 273.951H205.075L202.484 279.229C202.207 279.783 201.993 280.284 201.844 280.732C201.706 281.169 201.636 281.601 201.636 282.028C201.636 283.072 201.945 283.904 202.564 284.522C203.193 285.13 204.008 285.434 205.011 285.434C206.002 285.434 206.807 285.114 207.426 284.474C208.055 283.835 208.369 282.998 208.369 281.964ZM206.738 281.996C206.738 282.593 206.573 283.072 206.242 283.435C205.922 283.797 205.506 283.979 204.995 283.979C204.483 283.979 204.067 283.803 203.747 283.451C203.427 283.088 203.267 282.603 203.267 281.996C203.267 281.388 203.422 280.908 203.731 280.556C204.051 280.204 204.472 280.029 204.995 280.029C205.528 280.029 205.949 280.215 206.258 280.588C206.578 280.951 206.738 281.42 206.738 281.996Z" fill="#5F5F5F"/>
<path d="M199.842 337.066V335.611H195.204L198.77 331.245C199.165 330.765 199.442 330.354 199.602 330.013C199.762 329.661 199.842 329.251 199.842 328.782C199.842 327.812 199.538 327.039 198.93 326.463C198.323 325.876 197.528 325.583 196.547 325.583C195.577 325.583 194.783 325.882 194.164 326.479C193.546 327.065 193.237 327.838 193.237 328.798H194.868C194.868 328.201 195.028 327.758 195.348 327.47C195.668 327.183 196.068 327.039 196.547 327.039C197.07 327.039 197.475 327.199 197.763 327.518C198.061 327.828 198.211 328.243 198.211 328.766C198.211 329.054 198.163 329.315 198.067 329.549C197.981 329.773 197.827 330.019 197.603 330.285L193.221 335.611V337.066H199.842ZM206.786 331.181C207.244 330.957 207.596 330.642 207.841 330.237C208.087 329.832 208.209 329.336 208.209 328.75C208.209 327.812 207.9 327.049 207.282 326.463C206.663 325.866 205.869 325.567 204.899 325.567C203.971 325.567 203.193 325.85 202.564 326.415C201.935 326.969 201.599 327.721 201.556 328.67H203.187C203.23 328.158 203.401 327.758 203.699 327.47C204.008 327.183 204.408 327.039 204.899 327.039C205.378 327.039 205.778 327.193 206.098 327.502C206.418 327.812 206.578 328.243 206.578 328.798C206.578 329.342 206.434 329.768 206.146 330.077C205.858 330.376 205.426 330.525 204.851 330.525H204.579V331.948H204.851C205.48 331.948 205.954 332.114 206.274 332.444C206.594 332.775 206.754 333.233 206.754 333.819C206.754 334.406 206.578 334.87 206.226 335.211C205.885 335.541 205.442 335.707 204.899 335.707C204.387 335.707 203.955 335.563 203.603 335.275C203.262 334.987 203.076 334.555 203.044 333.979H201.412C201.444 335.035 201.785 335.834 202.436 336.378C203.097 336.911 203.918 337.178 204.899 337.178C205.901 337.178 206.733 336.89 207.394 336.314C208.055 335.739 208.385 334.923 208.385 333.867C208.385 333.185 208.246 332.625 207.969 332.188C207.692 331.74 207.298 331.405 206.786 331.181Z" fill="#5F5F5F"/>
<path d="M198.259 382.908C198.717 382.685 199.069 382.37 199.314 381.965C199.559 381.56 199.682 381.064 199.682 380.478C199.682 379.539 199.373 378.777 198.754 378.191C198.136 377.594 197.342 377.295 196.371 377.295C195.444 377.295 194.666 377.578 194.037 378.143C193.407 378.697 193.072 379.449 193.029 380.398H194.66C194.703 379.886 194.873 379.486 195.172 379.198C195.481 378.91 195.881 378.766 196.371 378.766C196.851 378.766 197.251 378.921 197.571 379.23C197.891 379.539 198.051 379.971 198.051 380.526C198.051 381.069 197.907 381.496 197.619 381.805C197.331 382.104 196.899 382.253 196.323 382.253H196.052V383.676H196.323C196.952 383.676 197.427 383.841 197.747 384.172C198.067 384.502 198.227 384.961 198.227 385.547C198.227 386.134 198.051 386.597 197.699 386.939C197.358 387.269 196.915 387.434 196.371 387.434C195.86 387.434 195.428 387.29 195.076 387.003C194.735 386.715 194.548 386.283 194.516 385.707H192.885C192.917 386.763 193.258 387.562 193.909 388.106C194.57 388.639 195.391 388.906 196.371 388.906C197.374 388.906 198.205 388.618 198.866 388.042C199.527 387.466 199.858 386.651 199.858 385.595C199.858 384.913 199.719 384.353 199.442 383.916C199.165 383.468 198.77 383.132 198.259 382.908ZM208.289 385.627V380.574C208.289 379.582 207.964 378.782 207.314 378.175C207.015 377.897 206.669 377.684 206.274 377.535C205.88 377.386 205.453 377.311 204.995 377.311C204.547 377.311 204.12 377.386 203.715 377.535C203.321 377.684 202.974 377.897 202.676 378.175C202.036 378.782 201.716 379.582 201.716 380.574V385.627C201.716 386.619 202.036 387.418 202.676 388.026C202.974 388.303 203.321 388.517 203.715 388.666C204.12 388.815 204.547 388.89 204.995 388.89C205.453 388.89 205.88 388.815 206.274 388.666C206.669 388.517 207.015 388.303 207.314 388.026C207.964 387.418 208.289 386.619 208.289 385.627ZM206.658 385.579C206.658 386.134 206.509 386.581 206.21 386.923C205.912 387.264 205.506 387.434 204.995 387.434C204.483 387.434 204.078 387.264 203.779 386.923C203.491 386.581 203.347 386.134 203.347 385.579V380.622C203.347 380.056 203.491 379.609 203.779 379.278C204.078 378.937 204.483 378.766 204.995 378.766C205.506 378.766 205.912 378.937 206.21 379.278C206.509 379.619 206.658 380.067 206.658 380.622V385.579Z" fill="#5F5F5F"/>
<path d="M290.327 175.997C290.786 175.773 291.138 175.459 291.383 175.054C291.628 174.648 291.751 174.153 291.751 173.566C291.751 172.628 291.442 171.866 290.823 171.279C290.205 170.682 289.41 170.384 288.44 170.384C287.513 170.384 286.734 170.666 286.105 171.231C285.476 171.786 285.14 172.537 285.098 173.486H286.729C286.772 172.975 286.942 172.575 287.241 172.287C287.55 171.999 287.95 171.855 288.44 171.855C288.92 171.855 289.32 172.01 289.64 172.319C289.96 172.628 290.119 173.06 290.119 173.614C290.119 174.158 289.976 174.584 289.688 174.894C289.4 175.192 288.968 175.341 288.392 175.341H288.12V176.765H288.392C289.021 176.765 289.496 176.93 289.816 177.261C290.135 177.591 290.295 178.05 290.295 178.636C290.295 179.222 290.119 179.686 289.768 180.027C289.426 180.358 288.984 180.523 288.44 180.523C287.929 180.523 287.497 180.379 287.145 180.091C286.804 179.803 286.617 179.372 286.585 178.796H284.954C284.986 179.851 285.327 180.651 285.977 181.195C286.638 181.728 287.459 181.994 288.44 181.994C289.442 181.994 290.274 181.706 290.935 181.131C291.596 180.555 291.927 179.739 291.927 178.684C291.927 178.002 291.788 177.442 291.511 177.005C291.234 176.557 290.839 176.221 290.327 175.997Z" fill="#5F5F5F"/>
<path d="M283.498 233.61V222.224H281.867L279.644 224.143V225.95L281.867 223.999V233.61H283.498ZM293.897 230.444V225.39C293.897 224.399 293.572 223.599 292.921 222.991C292.623 222.714 292.276 222.501 291.882 222.351C291.487 222.202 291.061 222.128 290.602 222.128C290.155 222.128 289.728 222.202 289.323 222.351C288.928 222.501 288.582 222.714 288.283 222.991C287.644 223.599 287.324 224.399 287.324 225.39V230.444C287.324 231.435 287.644 232.235 288.283 232.843C288.582 233.12 288.928 233.333 289.323 233.482C289.728 233.632 290.155 233.706 290.602 233.706C291.061 233.706 291.487 233.632 291.882 233.482C292.276 233.333 292.623 233.12 292.921 232.843C293.572 232.235 293.897 231.435 293.897 230.444ZM292.266 230.396C292.266 230.95 292.116 231.398 291.818 231.739C291.519 232.08 291.114 232.251 290.602 232.251C290.091 232.251 289.685 232.08 289.387 231.739C289.099 231.398 288.955 230.95 288.955 230.396V225.438C288.955 224.873 289.099 224.425 289.387 224.095C289.685 223.754 290.091 223.583 290.602 223.583C291.114 223.583 291.519 223.754 291.818 224.095C292.116 224.436 292.266 224.884 292.266 225.438V230.396Z" fill="#5F5F5F"/>
<path d="M283.498 285.338V273.951H281.867L279.644 275.87V277.678L281.867 275.727V285.338H283.498ZM294.137 275.407V273.951H287.356V277.198H288.923V275.407H292.393L288.571 285.338H290.33L294.137 275.407Z" fill="#5F5F5F"/>
<path d="M285.449 337.066V335.611H280.812L284.378 331.245C284.772 330.765 285.05 330.354 285.21 330.013C285.37 329.661 285.449 329.251 285.449 328.782C285.449 327.812 285.146 327.039 284.538 326.463C283.93 325.876 283.136 325.583 282.155 325.583C281.185 325.583 280.391 325.882 279.772 326.479C279.154 327.065 278.845 327.838 278.845 328.798H280.476C280.476 328.201 280.636 327.758 280.956 327.47C281.275 327.183 281.675 327.039 282.155 327.039C282.677 327.039 283.083 327.199 283.37 327.518C283.669 327.828 283.818 328.243 283.818 328.766C283.818 329.054 283.77 329.315 283.674 329.549C283.589 329.773 283.434 330.019 283.211 330.285L278.829 335.611V337.066H285.449ZM294.313 335.355V333.835H293.097V331.181H291.514V333.835H288.683L292.681 325.679H290.922L286.908 333.835V335.355H291.514V337.066H293.097V335.355H294.313Z" fill="#5F5F5F"/>
<path d="M283.866 382.908C284.325 382.685 284.677 382.37 284.922 381.965C285.167 381.56 285.29 381.064 285.29 380.478C285.29 379.539 284.98 378.777 284.362 378.191C283.744 377.594 282.949 377.295 281.979 377.295C281.052 377.295 280.273 377.578 279.644 378.143C279.015 378.697 278.679 379.449 278.637 380.398H280.268C280.311 379.886 280.481 379.486 280.78 379.198C281.089 378.91 281.489 378.766 281.979 378.766C282.459 378.766 282.859 378.921 283.179 379.23C283.498 379.539 283.658 379.971 283.658 380.526C283.658 381.069 283.514 381.496 283.227 381.805C282.939 382.104 282.507 382.253 281.931 382.253H281.659V383.676H281.931C282.56 383.676 283.035 383.841 283.354 384.172C283.674 384.502 283.834 384.961 283.834 385.547C283.834 386.134 283.658 386.597 283.306 386.939C282.965 387.269 282.523 387.434 281.979 387.434C281.467 387.434 281.036 387.29 280.684 387.003C280.343 386.715 280.156 386.283 280.124 385.707H278.493C278.525 386.763 278.866 387.562 279.516 388.106C280.177 388.639 280.998 388.906 281.979 388.906C282.981 388.906 283.813 388.618 284.474 388.042C285.135 387.466 285.465 386.651 285.465 385.595C285.465 384.913 285.327 384.353 285.05 383.916C284.772 383.468 284.378 383.132 283.866 382.908ZM292.026 388.794V377.407H290.394L288.171 379.326V381.133L290.394 379.182V388.794H292.026Z" fill="#5F5F5F"/>
<path d="M379.469 180.171V178.652H378.254V175.997H376.671V178.652H373.84L377.838 170.496H376.079L372.065 178.652V180.171H376.671V181.882H378.254V180.171H379.469Z" fill="#5F5F5F"/>
<path d="M370.721 233.61V222.224H369.09L366.867 224.143V225.95L369.09 223.999V233.61H370.721ZM379.249 233.61V222.224H377.617L375.394 224.143V225.95L377.617 223.999V233.61H379.249Z" fill="#5F5F5F"/>
<path d="M370.721 285.338V273.951H369.09L366.867 275.87V277.678L369.09 275.727V285.338H370.721ZM381.344 282.124C381.344 281.495 381.194 280.961 380.896 280.524C380.608 280.087 380.235 279.73 379.776 279.453C380.181 279.208 380.512 278.882 380.768 278.477C381.024 278.061 381.152 277.571 381.152 277.006C381.152 276.537 381.066 276.11 380.896 275.727C380.725 275.332 380.485 274.996 380.176 274.719C379.878 274.442 379.526 274.229 379.121 274.079C378.726 273.93 378.294 273.855 377.825 273.855C377.367 273.855 376.935 273.93 376.53 274.079C376.125 274.229 375.773 274.442 375.474 274.719C375.176 274.996 374.941 275.332 374.771 275.727C374.6 276.11 374.515 276.537 374.515 277.006C374.515 277.571 374.643 278.061 374.899 278.477C375.154 278.882 375.485 279.208 375.89 279.453C375.432 279.73 375.053 280.087 374.755 280.524C374.467 280.961 374.323 281.495 374.323 282.124C374.323 282.625 374.408 283.083 374.579 283.499C374.76 283.915 375.016 284.267 375.346 284.554C375.997 285.141 376.823 285.434 377.825 285.434C378.316 285.434 378.774 285.359 379.201 285.21C379.627 285.061 380 284.842 380.32 284.554C381.002 283.936 381.344 283.126 381.344 282.124ZM379.52 277.054C379.52 277.555 379.36 277.971 379.041 278.301C378.721 278.621 378.316 278.781 377.825 278.781C377.335 278.781 376.93 278.621 376.61 278.301C376.301 277.971 376.146 277.555 376.146 277.054C376.146 276.553 376.301 276.137 376.61 275.807C376.93 275.476 377.335 275.311 377.825 275.311C378.316 275.311 378.721 275.476 379.041 275.807C379.36 276.137 379.52 276.553 379.52 277.054ZM379.696 282.092C379.696 282.625 379.515 283.072 379.153 283.435C378.79 283.797 378.348 283.979 377.825 283.979C377.303 283.979 376.86 283.797 376.498 283.435C376.135 283.072 375.954 282.625 375.954 282.092C375.954 281.558 376.135 281.111 376.498 280.748C376.86 280.375 377.303 280.188 377.825 280.188C378.348 280.188 378.79 280.375 379.153 280.748C379.515 281.111 379.696 281.558 379.696 282.092Z" fill="#5F5F5F"/>
<path d="M372.672 337.066V335.611H368.035L371.601 331.245C371.995 330.765 372.273 330.354 372.432 330.013C372.592 329.661 372.672 329.251 372.672 328.782C372.672 327.812 372.369 327.039 371.761 326.463C371.153 325.876 370.359 325.583 369.378 325.583C368.408 325.583 367.613 325.882 366.995 326.479C366.377 327.065 366.067 327.838 366.067 328.798H367.699C367.699 328.201 367.859 327.758 368.178 327.47C368.498 327.183 368.898 327.039 369.378 327.039C369.9 327.039 370.305 327.199 370.593 327.518C370.892 327.828 371.041 328.243 371.041 328.766C371.041 329.054 370.993 329.315 370.897 329.549C370.812 329.773 370.657 330.019 370.433 330.285L366.051 335.611V337.066H372.672ZM381.232 333.26C381.232 332.62 381.162 332.055 381.024 331.564C380.896 331.063 380.635 330.616 380.24 330.221C379.75 329.731 379.067 329.485 378.193 329.485C377.788 329.485 377.42 329.544 377.09 329.661C376.77 329.779 376.508 329.939 376.306 330.141V327.135H380.976V325.679H374.835V331.9H376.322C376.418 331.602 376.599 331.357 376.866 331.165C377.143 330.973 377.5 330.877 377.937 330.877C378.556 330.877 378.987 331.085 379.233 331.5C379.478 331.916 379.6 332.503 379.6 333.26C379.6 333.718 379.563 334.113 379.488 334.443C379.414 334.774 379.27 335.045 379.057 335.259C378.758 335.557 378.364 335.707 377.873 335.707C377.372 335.707 376.983 335.573 376.706 335.307C376.439 335.03 376.274 334.635 376.21 334.123H374.579C374.611 334.582 374.691 334.987 374.819 335.339C374.947 335.691 375.154 336.01 375.442 336.298C375.709 336.565 376.05 336.778 376.466 336.938C376.882 337.098 377.351 337.178 377.873 337.178C378.396 337.178 378.854 337.098 379.249 336.938C379.654 336.778 379.995 336.559 380.272 336.282C380.656 335.898 380.912 335.472 381.04 335.003C381.168 334.534 381.232 333.953 381.232 333.26Z" fill="#5F5F5F"/>
<path d="M377.182 388.794V377.407H375.551L373.328 379.326V381.133L375.551 379.182V388.794H377.182Z" fill="black" fill-opacity="0.2"/>
<path d="M455.081 178.076C455.081 177.436 455.012 176.871 454.873 176.381C454.745 175.88 454.484 175.432 454.09 175.038C453.599 174.547 452.917 174.302 452.043 174.302C451.638 174.302 451.27 174.361 450.939 174.478C450.619 174.595 450.358 174.755 450.156 174.958V171.951H454.825V170.496H448.684V176.717H450.172C450.268 176.418 450.449 176.173 450.715 175.981C450.993 175.789 451.35 175.693 451.787 175.693C452.405 175.693 452.837 175.901 453.082 176.317C453.327 176.733 453.45 177.319 453.45 178.076C453.45 178.535 453.413 178.929 453.338 179.26C453.263 179.59 453.12 179.862 452.906 180.075C452.608 180.374 452.213 180.523 451.723 180.523C451.222 180.523 450.833 180.39 450.555 180.123C450.289 179.846 450.124 179.452 450.06 178.94H448.428C448.46 179.398 448.54 179.803 448.668 180.155C448.796 180.507 449.004 180.827 449.292 181.115C449.559 181.381 449.9 181.595 450.316 181.754C450.731 181.914 451.2 181.994 451.723 181.994C452.245 181.994 452.704 181.914 453.098 181.754C453.503 181.595 453.845 181.376 454.122 181.099C454.506 180.715 454.761 180.288 454.889 179.819C455.017 179.35 455.081 178.769 455.081 178.076Z" fill="#5F5F5F"/>
<path d="M446.637 233.61V222.224H445.006L442.783 224.143V225.95L445.006 223.999V233.61H446.637ZM457.116 233.61V232.155H452.478L456.044 227.789C456.439 227.309 456.716 226.899 456.876 226.558C457.036 226.206 457.116 225.795 457.116 225.326C457.116 224.356 456.812 223.583 456.204 223.007C455.596 222.421 454.802 222.128 453.821 222.128C452.851 222.128 452.057 222.426 451.438 223.023C450.82 223.61 450.511 224.383 450.511 225.342H452.142C452.142 224.745 452.302 224.303 452.622 224.015C452.942 223.727 453.341 223.583 453.821 223.583C454.344 223.583 454.749 223.743 455.037 224.063C455.335 224.372 455.484 224.788 455.484 225.31C455.484 225.598 455.436 225.859 455.34 226.094C455.255 226.318 455.101 226.563 454.877 226.829L450.495 232.155V233.61H457.116Z" fill="#5F5F5F"/>
<path d="M446.637 285.338V273.951H445.006L442.783 275.87V277.678L445.006 275.727V285.338H446.637ZM457.116 277.262C457.116 276.217 456.801 275.391 456.172 274.783C455.554 274.165 454.743 273.855 453.741 273.855C452.75 273.855 451.939 274.175 451.31 274.815C450.692 275.455 450.383 276.292 450.383 277.326C450.383 278.307 450.665 279.101 451.23 279.709C451.806 280.316 452.515 280.62 453.357 280.62C453.763 280.62 454.104 280.562 454.381 280.444L451.934 285.338H453.677L456.268 280.061C456.545 279.506 456.753 279.01 456.892 278.573C457.041 278.125 457.116 277.688 457.116 277.262ZM455.484 277.294C455.484 277.902 455.324 278.381 455.005 278.733C454.685 279.085 454.264 279.261 453.741 279.261C453.208 279.261 452.787 279.08 452.478 278.717C452.169 278.344 452.014 277.87 452.014 277.294C452.014 276.686 452.174 276.206 452.494 275.854C452.814 275.492 453.229 275.311 453.741 275.311C454.253 275.311 454.669 275.492 454.989 275.854C455.319 276.206 455.484 276.686 455.484 277.294Z" fill="#5F5F5F"/>
<path d="M448.588 337.066V335.611H443.951L447.517 331.245C447.911 330.765 448.189 330.354 448.349 330.013C448.508 329.661 448.588 329.251 448.588 328.782C448.588 327.812 448.285 327.039 447.677 326.463C447.069 325.876 446.275 325.583 445.294 325.583C444.324 325.583 443.529 325.882 442.911 326.479C442.293 327.065 441.983 327.838 441.983 328.798H443.615C443.615 328.201 443.775 327.758 444.094 327.47C444.414 327.183 444.814 327.039 445.294 327.039C445.816 327.039 446.222 327.199 446.509 327.518C446.808 327.828 446.957 328.243 446.957 328.766C446.957 329.054 446.909 329.315 446.813 329.549C446.728 329.773 446.573 330.019 446.349 330.285L441.967 335.611V337.066H448.588ZM457.116 333.691C457.116 332.711 456.828 331.916 456.252 331.309C455.676 330.701 454.967 330.397 454.125 330.397C453.731 330.397 453.395 330.456 453.118 330.573L455.564 325.679H453.821L451.23 330.957C450.953 331.511 450.74 332.012 450.591 332.46C450.452 332.897 450.383 333.329 450.383 333.755C450.383 334.8 450.692 335.632 451.31 336.25C451.939 336.858 452.755 337.162 453.757 337.162C454.749 337.162 455.554 336.842 456.172 336.202C456.801 335.563 457.116 334.726 457.116 333.691ZM455.484 333.723C455.484 334.321 455.319 334.8 454.989 335.163C454.669 335.525 454.253 335.707 453.741 335.707C453.229 335.707 452.814 335.531 452.494 335.179C452.174 334.816 452.014 334.331 452.014 333.723C452.014 333.116 452.169 332.636 452.478 332.284C452.798 331.932 453.219 331.756 453.741 331.756C454.274 331.756 454.695 331.943 455.005 332.316C455.324 332.679 455.484 333.148 455.484 333.723Z" fill="#5F5F5F"/>
<path d="M455.049 388.794V387.338H450.411L453.978 382.972C454.372 382.493 454.65 382.082 454.809 381.741C454.969 381.389 455.049 380.979 455.049 380.51C455.049 379.539 454.745 378.766 454.138 378.191C453.53 377.604 452.736 377.311 451.755 377.311C450.785 377.311 449.99 377.61 449.372 378.207C448.754 378.793 448.444 379.566 448.444 380.526H450.076C450.076 379.929 450.236 379.486 450.555 379.198C450.875 378.91 451.275 378.766 451.755 378.766C452.277 378.766 452.682 378.926 452.97 379.246C453.269 379.555 453.418 379.971 453.418 380.494C453.418 380.781 453.37 381.043 453.274 381.277C453.189 381.501 453.034 381.746 452.81 382.013L448.428 387.338V388.794H455.049Z" fill="black" fill-opacity="0.2"/>
<path d="M526.12 178.508C526.12 177.527 525.832 176.733 525.256 176.125C524.681 175.517 523.972 175.214 523.129 175.214C522.735 175.214 522.399 175.272 522.122 175.389L524.569 170.496H522.825L520.235 175.773C519.957 176.328 519.744 176.829 519.595 177.277C519.456 177.714 519.387 178.146 519.387 178.572C519.387 179.617 519.696 180.448 520.315 181.067C520.944 181.675 521.759 181.978 522.761 181.978C523.753 181.978 524.558 181.659 525.176 181.019C525.805 180.379 526.12 179.542 526.12 178.508ZM524.489 178.54C524.489 179.137 524.323 179.617 523.993 179.979C523.673 180.342 523.257 180.523 522.745 180.523C522.234 180.523 521.818 180.347 521.498 179.995C521.178 179.633 521.018 179.148 521.018 178.54C521.018 177.932 521.173 177.453 521.482 177.101C521.802 176.749 522.223 176.573 522.745 176.573C523.279 176.573 523.7 176.76 524.009 177.133C524.329 177.495 524.489 177.964 524.489 178.54Z" fill="#C4C4C4"/>
<path d="M517.708 233.61V222.224H516.076L513.853 224.143V225.95L516.076 223.999V233.61H517.708ZM526.603 227.725C527.061 227.501 527.413 227.187 527.658 226.781C527.903 226.376 528.026 225.881 528.026 225.294C528.026 224.356 527.717 223.594 527.098 223.007C526.48 222.41 525.686 222.112 524.716 222.112C523.788 222.112 523.01 222.394 522.381 222.959C521.752 223.514 521.416 224.265 521.373 225.214H523.004C523.047 224.702 523.218 224.303 523.516 224.015C523.825 223.727 524.225 223.583 524.716 223.583C525.195 223.583 525.595 223.738 525.915 224.047C526.235 224.356 526.395 224.788 526.395 225.342C526.395 225.886 526.251 226.312 525.963 226.622C525.675 226.92 525.243 227.069 524.668 227.069H524.396V228.493H524.668C525.297 228.493 525.771 228.658 526.091 228.988C526.411 229.319 526.571 229.777 526.571 230.364C526.571 230.95 526.395 231.414 526.043 231.755C525.702 232.086 525.259 232.251 524.716 232.251C524.204 232.251 523.772 232.107 523.42 231.819C523.079 231.531 522.892 231.099 522.86 230.524H521.229C521.261 231.579 521.602 232.379 522.253 232.923C522.914 233.456 523.735 233.722 524.716 233.722C525.718 233.722 526.549 233.434 527.21 232.859C527.871 232.283 528.202 231.467 528.202 230.412C528.202 229.729 528.063 229.17 527.786 228.733C527.509 228.285 527.114 227.949 526.603 227.725Z" fill="#C4C4C4"/>
<path d="M519.659 285.338V283.883H515.021L518.587 279.517C518.982 279.037 519.259 278.627 519.419 278.285C519.579 277.934 519.659 277.523 519.659 277.054C519.659 276.084 519.355 275.311 518.747 274.735C518.139 274.149 517.345 273.855 516.364 273.855C515.394 273.855 514.6 274.154 513.981 274.751C513.363 275.337 513.054 276.11 513.054 277.07H514.685C514.685 276.473 514.845 276.03 515.165 275.743C515.485 275.455 515.884 275.311 516.364 275.311C516.887 275.311 517.292 275.471 517.58 275.791C517.878 276.1 518.027 276.516 518.027 277.038C518.027 277.326 517.979 277.587 517.884 277.822C517.798 278.045 517.644 278.291 517.42 278.557L513.038 283.883V285.338H519.659ZM528.106 282.172V277.118C528.106 276.126 527.781 275.327 527.13 274.719C526.832 274.442 526.485 274.229 526.091 274.079C525.696 273.93 525.27 273.855 524.812 273.855C524.364 273.855 523.937 273.93 523.532 274.079C523.138 274.229 522.791 274.442 522.493 274.719C521.853 275.327 521.533 276.126 521.533 277.118V282.172C521.533 283.163 521.853 283.963 522.493 284.57C522.791 284.848 523.138 285.061 523.532 285.21C523.937 285.359 524.364 285.434 524.812 285.434C525.27 285.434 525.696 285.359 526.091 285.21C526.485 285.061 526.832 284.848 527.13 284.57C527.781 283.963 528.106 283.163 528.106 282.172ZM526.475 282.124C526.475 282.678 526.326 283.126 526.027 283.467C525.728 283.808 525.323 283.979 524.812 283.979C524.3 283.979 523.895 283.808 523.596 283.467C523.308 283.126 523.164 282.678 523.164 282.124V277.166C523.164 276.601 523.308 276.153 523.596 275.822C523.895 275.481 524.3 275.311 524.812 275.311C525.323 275.311 525.728 275.481 526.027 275.822C526.326 276.164 526.475 276.611 526.475 277.166V282.124Z" fill="#C4C4C4"/>
<path d="M519.659 337.066V335.611H515.021L518.587 331.245C518.982 330.765 519.259 330.354 519.419 330.013C519.579 329.661 519.659 329.251 519.659 328.782C519.659 327.812 519.355 327.039 518.747 326.463C518.139 325.876 517.345 325.583 516.364 325.583C515.394 325.583 514.6 325.882 513.981 326.479C513.363 327.065 513.054 327.838 513.054 328.798H514.685C514.685 328.201 514.845 327.758 515.165 327.47C515.485 327.183 515.884 327.039 516.364 327.039C516.887 327.039 517.292 327.199 517.58 327.518C517.878 327.828 518.027 328.243 518.027 328.766C518.027 329.054 517.979 329.315 517.884 329.549C517.798 329.773 517.644 330.019 517.42 330.285L513.038 335.611V337.066H519.659ZM528.346 327.135V325.679H521.565V328.926H523.132V327.135H526.603L522.78 337.066H524.54L528.346 327.135Z" fill="#C4C4C4"/>
<path d="M521.545 380.398H522.575C523.08 380.398 523.497 380.315 523.825 380.148C524.158 379.977 524.405 379.745 524.567 379.453C524.733 379.157 524.817 378.824 524.817 378.454C524.817 378.017 524.744 377.65 524.598 377.353C524.452 377.056 524.234 376.832 523.942 376.681C523.651 376.53 523.281 376.455 522.833 376.455C522.427 376.455 522.068 376.536 521.756 376.697C521.448 376.853 521.206 377.077 521.029 377.368C520.858 377.66 520.772 378.004 520.772 378.399H519.327C519.327 377.821 519.473 377.296 519.764 376.822C520.056 376.348 520.464 375.971 520.99 375.69C521.521 375.408 522.136 375.268 522.833 375.268C523.52 375.268 524.122 375.39 524.637 375.635C525.152 375.874 525.553 376.234 525.84 376.713C526.126 377.186 526.269 377.777 526.269 378.485C526.269 378.771 526.201 379.079 526.066 379.407C525.936 379.729 525.73 380.031 525.449 380.312C525.173 380.594 524.814 380.825 524.372 381.007C523.929 381.184 523.398 381.273 522.779 381.273H521.545V380.398ZM521.545 381.585V380.718H522.779C523.502 380.718 524.101 380.804 524.575 380.976C525.048 381.148 525.421 381.377 525.691 381.663C525.967 381.95 526.16 382.265 526.269 382.608C526.384 382.947 526.441 383.285 526.441 383.623C526.441 384.154 526.35 384.625 526.168 385.037C525.991 385.448 525.738 385.797 525.41 386.083C525.087 386.369 524.707 386.585 524.27 386.731C523.833 386.877 523.356 386.95 522.841 386.95C522.346 386.95 521.88 386.88 521.443 386.739C521.011 386.599 520.628 386.395 520.295 386.13C519.962 385.859 519.702 385.529 519.514 385.138C519.327 384.743 519.233 384.292 519.233 383.787H520.678C520.678 384.183 520.764 384.529 520.936 384.826C521.113 385.123 521.363 385.354 521.685 385.521C522.013 385.682 522.398 385.763 522.841 385.763C523.283 385.763 523.664 385.687 523.981 385.537C524.304 385.38 524.551 385.146 524.723 384.834C524.9 384.521 524.988 384.128 524.988 383.655C524.988 383.181 524.89 382.793 524.692 382.491C524.494 382.184 524.213 381.957 523.848 381.812C523.489 381.661 523.065 381.585 522.575 381.585H521.545Z" fill="black" fill-opacity="0.2"/>
<defs>
<clipPath id="clip0_464_588">
<rect width="38.7657" height="38.7959" fill="white" transform="translate(503.955 32.3299)"/>
</clipPath>
<clipPath id="clip1_464_588">
<rect width="38.7657" height="38.7959" fill="white" transform="translate(12.9221 32.3299)"/>
</clipPath>
</defs>
</svg>
